<?xml version="1.0" standalone="no"?>
<!DOCTYPE svg PUBLIC "-//W3C//DTD SVG 1.1//EN" "http://www.w3.org/Graphics/SVG/1.1/DTD/svg11.dtd" >
<svg xmlns="http://www.w3.org/2000/svg">
<metadata></metadata>
<defs>
<font id="eb_garamond08_sc_regular" horiz-adv-x="2048" >
<font-face units-per-em="2048" ascent="1487" descent="-561" />
<missing-glyph horiz-adv-x="423" />
<glyph unicode="&#x17f;i" horiz-adv-x="1095" d="M729 618q0 28 -24.5 60t-59.5 45q-43 15 -43 43q0 24 60 51q22 11 110.5 45.5t101.5 34.5q17 0 21 -12t4 -47v-617q0 -43 20 -81.5t58 -49.5q88 -26 88 -53q0 -41 -70 -41q-24 0 -94.5 6t-85.5 6q-20 0 -74 -6t-77 -6q-37 0 -54.5 12t-17.5 29q0 15 24.5 32t65.5 29 q47 14 47 123v397zM102 741q-55 5 -55 27t41 58t84 51q16 6 21.5 15.5t5.5 27.5q0 38 19.5 97.5t61 128.5t97 128.5t135.5 99t168 39.5q123 0 188.5 -46.5t65.5 -125.5q0 -39 -46 -65.5t-93 -26.5q-20 0 -30 7t-30.5 34t-42.5 49q-64 64 -119 64q-58 0 -100.5 -41 t-63.5 -109t-30.5 -138t-9.5 -145v-649q0 -44 9 -80.5t28 -42.5q40 -12 64 -29t24 -32q0 -41 -70 -41q-24 0 -74 6t-65 6q-20 0 -90 -6t-93 -6q-37 0 -54 12t-17 29q0 27 90 53q38 11 58 49.5t20 81.5l2 520h-99z" />
<glyph unicode="&#x17f;l" horiz-adv-x="1122" d="M868 1389q24 6 33 6q17 0 21 -11.5t4 -44.5v-1118q0 -43 20 -81.5t58 -49.5q88 -26 88 -53q0 -41 -70 -41q-24 0 -94.5 6t-85.5 6q-20 0 -82.5 -6t-85.5 -6q-36 0 -47 11t-11 30q0 31 76 53q64 19 64 131v883q0 50 -8.5 81.5t-34.5 53.5q-34 29 -75 46.5t-65 17.5 q-58 0 -100.5 -41t-63.5 -109t-30.5 -138t-9.5 -145v-649q0 -113 63 -131q74 -22 74 -53q0 -9 -1.5 -15t-6 -12.5t-16.5 -10t-31 -3.5q-24 0 -87.5 6t-78.5 6q-20 0 -90 -6t-93 -6q-37 0 -54 12t-17 29q0 27 90 53q38 11 58 49.5t20 81.5l2 520h-99q-55 5 -55 27t41 58 t84 51q16 6 21.5 15.5t5.5 27.5q0 38 19.5 97.5t61 128.5t97 128.5t135.5 99t168 39.5q72 0 131 -16q48 -10 57 -8z" />
<glyph unicode="&#x17f;&#x17f;" horiz-adv-x="1130" d="M717 920q0 87 16 127q5 21 5 27.5t-7 21.5q-28 66 -63 92t-97 26q-95 0 -148.5 -62.5t-53.5 -182.5v-748q0 -66 15.5 -94t43.5 -37q68 -20 68 -53q0 -19 -12 -30t-48 -11q-24 0 -81 6t-72 6q-20 0 -89 -6t-92 -6q-37 0 -54 12t-17 29q0 27 90 53q38 11 58 49.5t20 81.5 v520h-99q-19 0 -37 7t-18 20q0 22 41 58t84 51q29 10 29 43q0 58 36 129t94 133.5t142 104.5t170 42q63 0 145 -39q10 -5 25.5 -14.5t27 -16t15.5 -6.5q14 0 64 43q139 117 305 117q75 0 137.5 -57.5t62.5 -116.5q0 -40 -19.5 -67t-55.5 -27q-14 0 -26.5 5.5t-24 17.5 t-18.5 21t-20 28t-18 26q-18 25 -52.5 40t-78.5 15q-66 0 -118.5 -45t-78.5 -107.5t-26 -125.5v-799q0 -43 20 -81.5t58 -49.5q88 -26 88 -53q0 -41 -70 -41q-24 0 -95.5 6t-86.5 6q-20 0 -72.5 -6t-75.5 -6q-61 0 -61 41q0 30 80 53q45 14 45 131l2 520h-98q-19 0 -37.5 7 t-18.5 20q0 22 41 58t84 51q16 6 21.5 15.5t5.5 27.5z" />
<glyph unicode="&#x17f;&#x17f;i" horiz-adv-x="1613" d="M1247 221v397q0 28 -24.5 60t-59.5 45q-43 15 -43 43q0 24 60 51q22 11 110.5 45.5t102.5 34.5q9 0 14 -2.5t7 -12.5t2.5 -16.5t0.5 -27.5v-617q0 -43 20 -81.5t58 -49.5q88 -26 88 -53q0 -41 -70 -41q-24 0 -95 6t-85 6q-20 0 -74 -6t-77 -6q-37 0 -54.5 12t-17.5 29 q0 15 24.5 32t65.5 29q47 14 47 123zM803 8q-23 0 -75 -6t-75 -6q-61 0 -61 41q0 30 80 53q45 14 45 131l2 520h-98q-19 0 -37.5 7t-18.5 20q0 22 41 58t84 51q16 6 21.5 15.5t5.5 27.5q0 87 16 127q5 21 5 27.5t-7 21.5q-28 66 -63 92t-97 26q-95 0 -148.5 -62.5 t-53.5 -182.5v-748q0 -66 15.5 -94t43.5 -37q68 -20 68 -53q0 -19 -12 -30t-48 -11q-24 0 -81 6t-72 6q-20 0 -89 -6t-92 -6q-37 0 -54 12t-17 29q0 27 90 53q38 11 58 49.5t20 81.5v520h-99q-19 0 -37 7t-18 20q0 22 41 58t84 51q29 10 29 43q0 58 36 129t94 133.5 t142 104.5t170 42q63 0 145 -39q10 -5 25.5 -14.5t27 -16t15.5 -6.5q14 0 64 43q72 61 134 89t146 28q123 0 188.5 -46.5t65.5 -125.5q0 -39 -46 -65.5t-93 -26.5q-20 0 -30 7t-30.5 34t-42.5 49q-64 64 -118 64q-63 -2 -111.5 -48t-71 -109t-22.5 -126v-799q0 -44 9 -80.5 t28 -42.5q40 -12 64 -29t24 -32q0 -41 -70 -41q-24 0 -74 6t-65 6z" />
<glyph unicode="ff" horiz-adv-x="1196" d="M15 0zM684 727h-266q-18 0 -28.5 -2.5t-15 -9t-5 -12t-0.5 -17.5v-6v-459q0 -66 15.5 -94t43.5 -37q68 -20 68 -53q0 -19 -12 -30t-48 -11q-24 0 -81 6t-72 6q-20 0 -89 -6t-92 -6q-37 0 -54 12t-17 29q0 27 90 53q38 11 58 49.5t20 81.5v471q0 9 -5 15t-25 10t-56 4 q-19 0 -42.5 8t-23.5 21q0 36 125 81q27 9 27 60q0 103 59 204t162.5 167.5t220.5 66.5q63 0 145 -39q63 -30 66 -30q4 0 12 6.5t21.5 20t23.5 22.5q124 104 314 104q75 0 137.5 -57.5t62.5 -116.5q0 -40 -19.5 -67t-55.5 -27q-14 0 -26.5 5.5t-24 17.5t-18.5 21t-20 28 t-18 26q-18 25 -52.5 40t-78.5 15q-66 0 -118.5 -45t-78.5 -107.5t-26 -125.5v-160q0 -11 4 -16t8 -5.5t15.5 0.5t17.5 1l133 4q23 0 35 -14.5t12 -32.5q0 -19 -14 -44.5t-33 -25.5h-145q-33 0 -33 -47v-459q0 -43 20 -81.5t58 -49.5q88 -26 88 -53q0 -41 -70 -41 q-24 0 -95.5 6t-86.5 6q-20 0 -72.5 -6t-75.5 -6q-61 0 -61 41q0 30 80 53q45 14 45 131v459q0 29 -8 38t-25 9zM369 872q0 -12 1 -19t4 -10t4.5 -3.5t8 0t8.5 0.5h287h20t10.5 2.5t4.5 3t0.5 6.5t-0.5 8q0 48 3.5 92t7 66.5t5.5 28.5q5 21 5 27.5t-7 21.5q-28 66 -63 92 t-97 26q-94 0 -148 -63t-54 -182v-97z" />
<glyph unicode="fi" horiz-adv-x="1095" d="M15 0zM604 727h-203q-32 0 -32 -47v-459q0 -44 9 -80.5t28 -42.5q40 -12 64 -29t24 -32q0 -41 -70 -41q-24 0 -74 6t-65 6q-20 0 -90 -6t-93 -6q-37 0 -54 12t-17 29q0 27 90 53q38 11 58 49.5t20 81.5v463q0 18 -17 27.5t-69 9.5q-19 0 -42.5 8t-23.5 21q0 37 125 81 q27 9 27 62q0 40 14.5 92.5t41 111t69 114.5t94 101.5t120 73t142.5 27.5q123 0 188.5 -46.5t65.5 -125.5q0 -39 -46 -65.5t-93 -26.5q-20 0 -30 7t-30.5 34t-42.5 49q-64 64 -119 64q-58 0 -100.5 -40.5t-63.5 -108.5t-30.5 -139t-9.5 -149q0 -26 45 -26l252 4q56 0 71 6 q116 47 137 47q17 0 21 -12t4 -47v-617q0 -43 20 -81.5t58 -49.5q88 -26 88 -53q0 -41 -70 -41q-24 0 -94.5 6t-85.5 6q-20 0 -74 -6t-77 -6q-37 0 -54.5 12t-17.5 29q0 15 24.5 32t65.5 29q47 14 47 123v397q0 55 -29 82t-96 27z" />
<glyph unicode="fl" horiz-adv-x="1122" d="M15 0zM809 1374q75 21 92 21t21 -11.5t4 -44.5v-1118q0 -43 20 -81.5t58 -49.5q88 -26 88 -53q0 -41 -70 -41q-24 0 -94.5 6t-85.5 6q-20 0 -77.5 -6t-80.5 -6q-37 0 -54.5 12t-17.5 29q0 27 90 53q20 6 31.5 19t16 35t5.5 36t1 41v506h-355q-32 0 -32 -47v-459 q0 -114 57 -131q90 -26 90 -53q0 -17 -17.5 -29t-54.5 -12q-24 0 -85 6t-76 6q-20 0 -89 -6t-92 -6q-37 0 -54 12t-17 29q0 27 90 53q38 11 58 49.5t20 81.5v471q0 9 -5 15t-25 10t-56 4q-19 0 -42.5 8t-23.5 21q0 37 125 81q27 9 27 60q0 142 55 260t161.5 190t243.5 72 q56 0 117 -33q18 -9 33 -6zM756 844v282q0 36 -8.5 60t-32.5 57q-38 55 -125 55q-101 0 -161 -64.5t-60 -158.5v-198q0 -15 6 -22.5t14.5 -9t24.5 -1.5h342z" />
<glyph unicode="ffi" horiz-adv-x="1613" d="M15 0zM1198 1413q123 0 188.5 -46.5t65.5 -125.5q0 -39 -46 -65.5t-93 -26.5q-20 0 -30 7t-30.5 34t-42.5 49q-64 64 -118 64q-58 0 -100.5 -40.5t-64 -108.5t-31 -139t-9.5 -149q0 -26 45 -26l252 4q56 0 71 6q116 47 138 47q9 0 14 -2.5t7 -12.5t2.5 -16.5t0.5 -27.5 v-617q0 -43 20 -81.5t58 -49.5q88 -26 88 -53q0 -41 -70 -41q-24 0 -94.5 6t-85.5 6q-20 0 -74 -6t-77 -6q-37 0 -54.5 12t-17.5 29q0 15 24.5 32t65.5 29q47 14 47 123v397q0 55 -29 82t-96 27h-202q-33 0 -33 -47v-459q0 -44 9 -80.5t28 -42.5q40 -12 64 -29t24 -32 q0 -41 -70 -41q-24 0 -74 6t-65 6q-19 0 -73 -6t-77 -6q-61 0 -61 41q0 30 80 53q45 14 45 131v459q0 29 -8 38t-25 9h-266q-18 0 -28.5 -2.5t-15 -9t-5 -12t-0.5 -17.5v-6v-459q0 -66 15.5 -94t43.5 -37q68 -20 68 -53q0 -19 -12 -30t-48 -11q-24 0 -81 6t-72 6 q-20 0 -89 -6t-92 -6q-37 0 -54 12t-17 29q0 27 90 53q38 11 58 49.5t20 81.5v471q0 9 -5 15t-25 10t-56 4q-19 0 -42.5 8t-23.5 21q0 36 125 81q27 9 27 60q0 102 59 203t163 168t220 67q63 0 145 -39q63 -30 66 -30q8 0 17.5 8t39.5 41q43 46 121 75t168 29zM369 872 q0 -12 1 -19t4 -10t4.5 -3.5t8 0t8.5 0.5h287h20t10.5 2.5t4.5 3t0.5 6.5t-0.5 8q0 48 3.5 92t7 66.5t5.5 28.5q5 21 5 27.5t-7 21.5q-28 66 -63 92t-97 26q-94 0 -148 -63t-54 -182v-97z" />
<glyph unicode="ffl" horiz-adv-x="1640" d="M15 0zM1178 1413q55 0 116 -33q18 -9 33 -6q75 21 92 21t21 -11.5t4 -44.5v-1118q0 -43 20 -81.5t58 -49.5q88 -26 88 -53q0 -41 -70 -41q-24 0 -94.5 6t-85.5 6q-20 0 -77.5 -6t-80.5 -6q-37 0 -54.5 12t-17.5 29q0 27 91 53q19 6 31 18.5t16.5 35.5t5 35.5t0.5 41.5 v506h-354q-33 0 -33 -47v-459q0 -114 57 -131q90 -26 90 -53q0 -17 -17 -29t-54 -12q-24 0 -85.5 6t-76.5 6q-16 0 -70 -6t-78 -6q-61 0 -61 41q0 30 80 53q45 14 45 131v459q0 29 -8 38t-25 9h-266q-18 0 -28.5 -2.5t-15 -9t-5 -12t-0.5 -17.5v-6v-459q0 -66 15.5 -94 t43.5 -37q68 -20 68 -53q0 -19 -12 -30t-48 -11q-24 0 -81 6t-72 6q-20 0 -89 -6t-92 -6q-37 0 -54 12t-17 29q0 27 90 53q38 11 58 49.5t20 81.5v471q0 9 -5 15t-25 10t-56 4q-19 0 -42.5 8t-23.5 21q0 36 125 81q27 9 27 60q0 103 59 204t162.5 167.5t220.5 66.5 q63 0 145 -39q63 -30 66 -30q4 0 8.5 3.5t18 17t30.5 28.5q120 104 269 104zM1274 844v282q0 36 -8.5 60t-32.5 57q-38 55 -125 55q-101 0 -161 -64.5t-60 -158.5v-198q0 -15 6 -22.5t14.5 -9t24.5 -1.5h342zM369 872q0 -12 1 -19t4 -10t4.5 -3.5t8 0t8.5 0.5h287h20 t10.5 2.5t4.5 3t0.5 6.5t-0.5 8q0 48 3.5 92t7 66.5t5.5 28.5q5 21 5 27.5t-7 21.5q-28 66 -63 92t-97 26q-94 0 -148 -63t-54 -182v-97z" />
<glyph unicode="&#x17f;t" horiz-adv-x="1241" d="M15 0zM705 1214q-25 40 -74.5 64.5t-77.5 24.5q-184 0 -184 -433v-649q0 -43 19.5 -81.5t57.5 -49.5q89 -26 89 -53q0 -41 -70 -41q-24 0 -94.5 6t-85.5 6q-20 0 -90 -6t-93 -6q-37 0 -54 12t-17 29q0 27 90 53q38 11 58 49.5t20 81.5l2 520h-99q-55 5 -55 27t41 58 t84 51q16 6 21.5 15.5t5.5 27.5q0 38 19.5 97.5t61 128.5t97 128.5t135.5 99t168 39.5q90 0 157.5 -76t67.5 -166v-286q0 -31 45 -31h191q23 0 36 -15t13 -32q0 -19 -15 -46.5t-34 -27.5h-203q-33 0 -33 -47v-375q0 -104 25.5 -146t81.5 -42q45 0 94.5 18.5t52.5 18.5 q31 0 31 -29q0 -40 -74.5 -93.5t-159.5 -53.5q-100 0 -160.5 55t-60.5 178v481q0 2 0.5 8t0 7.5t-3.5 5.5t-10 5t-19 2t-31 1t-42.5 8t-23.5 21q0 8 4.5 17t16 20.5t20.5 19t28.5 23.5t29.5 24q20 17 26 37.5t6 54.5v123q0 32 -1.5 50t-8.5 42t-22 47z" />
<glyph unicode="&#x17f;&#x17f;l" horiz-adv-x="1613" d="M803 8q-21 0 -74 -6t-76 -6q-61 0 -61 41q0 30 80 53q45 14 45 131l2 520h-98q-19 0 -37.5 7t-18.5 20q0 22 41 58t84 51q16 6 21.5 15.5t5.5 27.5q0 87 16 127q5 21 5 27.5t-7 21.5q-28 66 -63 92t-97 26q-95 0 -148.5 -62.5t-53.5 -182.5v-748q0 -66 15.5 -94t43.5 -37 q68 -20 68 -53q0 -19 -12 -30t-48 -11q-24 0 -81 6t-72 6q-20 0 -89 -6t-92 -6q-37 0 -54 12t-17 29q0 27 90 53q38 11 58 49.5t20 81.5v520h-99q-19 0 -37 7t-18 20q0 22 41 58t84 51q29 10 29 43q0 58 36 129t94 133.5t142 104.5t170 42q63 0 145 -39q10 -5 25.5 -14.5 t27 -16t15.5 -6.5q18 0 64 43q66 61 119.5 89t133.5 28q73 0 132 -16q48 -10 57 -8q24 6 33 6t14 -2.5t7 -12t2.5 -15.5t0.5 -26v-1118q0 -43 20 -81.5t58 -49.5q88 -26 88 -53q0 -41 -70 -41q-24 0 -94.5 6t-85.5 6q-20 0 -82.5 -6t-85.5 -6q-36 0 -46.5 11t-10.5 30 q0 31 76 53q63 18 63 131v883q0 47 -9 77t-34 58q-59 64 -112 64q-58 0 -100.5 -41t-64 -109t-31 -138t-9.5 -145v-649q0 -113 63 -131q74 -22 74 -53q0 -9 -1.5 -15t-6 -12.5t-16.5 -10t-31 -3.5q-24 0 -87.5 6t-78.5 6z" />
<glyph unicode="&#x17f;s" horiz-adv-x="1159" d="M877 881q12 0 23.5 -1t20.5 -2.5t22 -5.5l19.5 -6t21.5 -7.5t20 -8t22.5 -10t22.5 -9.5q10 -4 13.5 -10t8.5 -22q10 -38 10 -101q0 -17 -0.5 -24t-6 -14t-17.5 -7q-14 0 -27 11.5t-35 40.5q-19 27 -58 54t-81 27q-51 0 -72.5 -26.5t-21.5 -61.5q0 -51 53 -90l203 -153 q59 -44 78.5 -79t19.5 -93q0 -141 -85 -220t-224 -79q-95 0 -135 16q-34 13 -42 23q-5 6 -9 18q-35 94 -35 129q0 66 22 66q19 0 44.5 -20t45.5 -62q38 -78 158 -78q44 0 84.5 31.5t40.5 70.5q0 16 -3.5 31t-8.5 26.5t-13.5 23t-15 19t-16.5 16t-15 12t-14 10t-10 6.5 l-99 69q-66 47 -119 115t-53 119q0 107 77.5 181.5t185.5 74.5zM102 741q-55 5 -55 27t41 58t84 51q16 6 21.5 15.5t5.5 27.5q0 38 19.5 97.5t61 128.5t97 128.5t135.5 99t168 39.5q126 0 200 -45.5t74 -122.5q0 -37 -25.5 -65.5t-62.5 -28.5q-29 0 -63 20.5t-90 67.5 q-34 29 -75 46.5t-65 17.5q-58 0 -100.5 -41t-63.5 -109t-30.5 -138t-9.5 -145v-649q0 -43 19.5 -81.5t57.5 -49.5q89 -26 89 -53q0 -41 -70 -41q-24 0 -94.5 6t-85.5 6q-20 0 -90 -6t-93 -6q-37 0 -54 12t-17 29q0 27 90 53q38 11 58 49.5t20 81.5l2 520h-99z" />
<glyph unicode=" "  horiz-adv-x="423" />
<glyph unicode="&#x09;" horiz-adv-x="423" />
<glyph unicode="&#xa0;" horiz-adv-x="423" />
<glyph unicode="!" horiz-adv-x="423" d="M227 1235q41 0 66.5 -22.5t25.5 -69.5q0 -121 -10.5 -254.5t-21.5 -190.5q-40 -206 -76 -206q-16 0 -29.5 19.5t-19.5 57.5q-13 95 -30 272.5t-17 280.5q0 45 33.5 79t78.5 34zM199 236q46 0 82 -30t36 -73q0 -54 -34.5 -95.5t-85.5 -41.5q-45 0 -78 31t-33 75 q0 53 32 93.5t81 40.5z" />
<glyph unicode="&#x22;" horiz-adv-x="632" d="M375 1270q0 37 39 71q53 43 106 43q29 0 29 -65q0 -100 -115 -358q-8 -19 -20 -35.5t-19 -16.5q-14 0 -14 47q1 19 1 39t-0.5 43t-0.5 35q0 21 -0.5 48.5t-1.5 52.5t-2 47t-1 35zM106 1270q0 37 39 71q53 43 107 43q29 0 29 -65q0 -100 -115 -358q-8 -19 -20 -35.5 t-19 -16.5q-14 0 -14 47q1 19 1 39t-0.5 43t-0.5 35q0 21 -0.5 48.5t-1.5 52.5t-2.5 47t-2.5 35v14z" />
<glyph unicode="#" horiz-adv-x="1490" d="M639 1153q21 53 51.5 91t67.5 38q42 0 34 -51q-5 -27 -53 -152l-2 -6l-53 -143h326l84 223q21 53 47 91t53 38q23 0 33 -14t7.5 -42.5t-12.5 -64.5t-30 -88l-53 -143h155q45 0 93.5 -18.5t48.5 -51.5q0 -24 -46 -43.5t-126 -19.5h-177l-116 -312h182q27 0 57.5 -6.5 t57 -23t26.5 -39.5q0 -24 -46 -44t-126 -20h-202l-84 -225q-50 -127 -123 -127q-52 0 17 189q3 9 7 18l56 145h-328l-84 -225q-50 -127 -105 -127q-19 0 -27 20.5t0 69t34 117.5l55 145h-109q-52 0 -97.5 19.5t-45.5 54.5q0 24 45 41.5t127 17.5h129l117 312h-133 q-52 0 -98 19t-46 54q0 24 45 42t127 18h156zM633 797l-117 -312h326l116 312h-325z" />
<glyph unicode="$" horiz-adv-x="837" d="M451 1231l12 147q3 30 26 52t50 22q28 0 20 -74l-14 -155q79 -16 137 -47q24 -14 39 -32.5t21.5 -44t8 -45t1.5 -53.5q0 -55 -41 -55q-16 0 -30.5 16.5t-41.5 60.5q-6 11 -10 17q-35 54 -94 68l-35 -410l192 -161q46 -38 72.5 -94.5t26.5 -114.5q0 -136 -104 -232 t-251 -114l-14 -164q-1 -25 -23.5 -43.5t-48.5 -18.5q-27 0 -24 58l14 166q-101 10 -176 43q-58 27 -76 50t-18 72q0 57 13.5 97.5t41.5 40.5q23 0 36.5 -21.5t28.5 -71.5q14 -46 55.5 -80.5t102.5 -46.5l39 453l-186 154q-90 72 -90 184q0 146 99.5 256t240.5 121zM477 442 l-35 -383q67 13 107.5 77.5t40.5 146.5q0 68 -82 135zM410 774l30 338q-63 -10 -102 -62.5t-39 -121.5q0 -14 2 -26.5t9 -24.5t11 -19.5t17 -20t18 -17.5t23 -20l24 -20z" />
<glyph unicode="%" horiz-adv-x="1562" d="M1241 1167l-864 -1147q-43 -57 -92 -57q-21 0 -23.5 37t17.5 63l806 1065q27 35 43.5 53.5t42.5 37t50 18.5q26 0 32 -24t-12 -46zM1200 557q119 0 208 -67t89 -175q0 -130 -85.5 -223.5t-211.5 -93.5q-119 0 -199.5 87t-80.5 208q0 111 83 187.5t197 76.5zM1036 276 q0 -72 51 -122t123 -50q73 0 123.5 57t50.5 134q0 68 -55 111t-129 43q-68 0 -116 -51.5t-48 -121.5zM365 1270q119 0 208 -67t89 -175q0 -130 -85.5 -223.5t-211.5 -93.5q-119 0 -200 87t-81 208q0 111 83.5 187.5t197.5 76.5zM201 989q0 -72 51 -122t123 -50 q73 0 123.5 57t50.5 134q0 68 -55 110.5t-129 42.5q-68 0 -116 -51t-48 -121z" />
<glyph unicode="&#x26;" horiz-adv-x="1603" d="M1374 -8q-113 0 -190.5 23.5t-130.5 95.5q-63 100 -135 196l-136 -149q-79 -88 -150.5 -135.5t-160.5 -47.5q-167 0 -276 118.5t-109 305.5q0 64 46 142.5t120 134.5l182 137l-35 31q-54 46 -85 107t-31 122q0 72 48 124.5t117.5 75.5t149.5 23q65 0 121.5 -15.5 t97.5 -54.5t41 -96q0 -48 -23 -81t-69 -72l-113 -94l15 -13q88 -76 149.5 -141.5t147.5 -169.5q4 -5 12 -14.5t12 -14.5l135 154q29 34 29 57q0 14 -12 24.5t-23 12.5q-49 9 -49 35q0 16 14 28.5t37 12.5h162q16 0 62 6t61 6q23 0 36 -12.5t13 -28.5q0 -24 -70 -47 q-21 -7 -68.5 -42t-82.5 -74l-184 -205l204 -260q23 -29 45.5 -47.5t39.5 -29t46.5 -17.5t48.5 -9t64 -6q16 -1 25.5 -11.5t9.5 -23.5q0 -26 -53 -43.5t-105 -17.5zM500 756l-191 -160q-41 -36 -41 -107q0 -129 69.5 -232t174.5 -103q88 0 155.5 44.5t143.5 131.5l47 53 q-2 3 -7 8t-7 8q-185 210 -326 340zM596 932l35 26q21 16 42 53.5t21 65.5q0 56 -35.5 89.5t-89.5 33.5q-34 0 -78.5 -29t-44.5 -61q0 -19 45.5 -73.5t67.5 -71.5z" />
<glyph unicode="'" horiz-adv-x="364" d="M106 1270q0 37 39 71q53 43 109 43q29 0 29 -65q0 -17 -2.5 -37t-8.5 -43t-11.5 -42.5t-15.5 -46.5t-16 -43t-18 -44.5t-16.5 -38t-16 -36t-12.5 -27.5q-8 -19 -20 -35.5t-19 -16.5q-14 0 -14 47q2 43 2 117q0 21 -1 48.5t-2.5 52.5t-2.5 47t-2 35z" />
<glyph unicode="(" horiz-adv-x="595" d="M541 1481q59 0 59 -39q0 -10 -9.5 -22t-30.5 -32.5t-36 -39.5q-81 -105 -136 -199t-101 -209.5t-68 -252t-22 -298.5q0 -199 88 -396.5t213 -330.5q19 -20 43.5 -42.5t34 -32t17 -27.5t7.5 -43q0 -11 -11 -19t-22 -8q-26 0 -65.5 31t-66.5 61t-73 86q-141 174 -205.5 377 t-64.5 397q0 156 25 293.5t74.5 255t107 212.5t137.5 198q61 80 105 80z" />
<glyph unicode=")" horiz-adv-x="595" d="M59 -510q-59 0 -59 39q0 10 9.5 22t30.5 32.5t36 39.5q81 105 136 199t101 209.5t68 252t22 298.5q0 199 -88 396.5t-213 330.5q-19 20 -43.5 42.5t-34 32t-17 27.5t-7.5 43q0 11 11 19t22 8q26 0 65.5 -31t66.5 -61t73 -86q141 -174 205.5 -377.5t64.5 -397.5 q0 -156 -25 -293.5t-75 -254.5t-107 -212t-137 -198q-61 -80 -105 -80z" />
<glyph unicode="*" horiz-adv-x="808" d="M481 1233q0 -38 -20 -135q-6 -40 -6 -54q0 -18 49 -18q58 0 168 -4q90 -3 90 -43q0 -28 -46.5 -42t-140.5 -22q-64 -6 -84.5 -19t-11.5 -38q62 -148 62 -207q0 -20 -10 -37.5t-27 -17.5q-26 0 -48.5 30t-55 96.5t-44.5 88.5q-3 4 -6.5 11.5t-5 10.5t-5 5.5t-7.5 0 t-10 -9.5q-3 -4 -13.5 -13t-28 -24.5t-34.5 -33.5q-37 -39 -64.5 -57.5t-56.5 -18.5q-49 0 -49 47q0 27 80 98q40 36 58.5 64.5t18.5 42.5q0 10 -18 27.5t-41 29.5q-38 23 -60.5 38t-43.5 39.5t-21 47.5q0 31 41 31q27 0 53 -9.5t69 -30.5q8 -5 13 -7q71 -37 84 -37 q8 0 14 14.5t18 56.5q6 20 9 31q20 64 42.5 97.5t43.5 33.5q23 0 34 -22.5t11 -40.5z" />
<glyph unicode="+" horiz-adv-x="940" d="M410 352h-215q-42 0 -75.5 14t-33.5 48q0 29 30.5 51t78.5 22h215v215q0 52 19.5 80.5t45.5 28.5q28 0 48 -20.5t20 -65.5v-238h235q38 0 62 -16.5t24 -40.5q0 -27 -23 -51.5t-65 -24.5h-233v-239q0 -34 -15.5 -58t-50.5 -24q-67 0 -67 78v241z" />
<glyph unicode="," horiz-adv-x="512" d="M199 236q95 0 164 -67t69 -159q0 -67 -43.5 -153.5t-110 -149.5t-124.5 -63q-29 0 -29 26q0 11 23.5 36.5t51 53t51 66t23.5 72.5q0 18 -5.5 34t-10 25.5t-21 22.5t-20.5 16t-27.5 16.5t-25.5 14.5q-80 44 -80 102q0 46 34.5 76.5t80.5 30.5z" />
<glyph unicode="-" horiz-adv-x="790" d="M655 555q26 2 45 -11.5t19 -45.5q0 -39 -17.5 -69.5t-50.5 -31.5l-448 -37q-58 -5 -84.5 2.5t-26.5 36.5q0 36 20 74.5t56 42.5z" />
<glyph unicode="." horiz-adv-x="421" d="M233 238q42 0 74.5 -35t32.5 -76q0 -52 -37.5 -93.5t-87.5 -41.5q-57 0 -93 35t-36 92q0 53 44 86t103 33z" />
<glyph unicode="/" horiz-adv-x="485" d="M700 1366l-612 -1403q-25 -57 -74 -57q-14 0 -20 9.5t-4.5 25.5t6.5 32t12 33l570 1321q16 38 23 52t19 31t24.5 21.5t31.5 4.5q25 0 30.5 -22.5t-6.5 -47.5z" />
<glyph unicode="0" horiz-adv-x="1044" d="M514 881q83 0 165.5 -31.5t147.5 -84.5t105.5 -128t40.5 -156q0 -126 -61 -238.5t-167.5 -181.5t-230.5 -69q-115 0 -215 63t-157.5 167.5t-57.5 221.5q0 109 60.5 210.5t160.5 164t209 62.5zM211 434q0 -121 95.5 -214t217.5 -93q125 0 218.5 105t93.5 235 q0 77 -49.5 147.5t-126.5 112t-156 41.5q-115 0 -204 -106t-89 -228z" />
<glyph unicode="1" horiz-adv-x="565" d="M369 641v-420q0 -43 19.5 -81.5t57.5 -49.5q89 -26 89 -53q0 -41 -70 -41q-24 0 -94.5 6t-85.5 6q-20 0 -90 -6t-93 -6q-37 0 -54 12t-17 29q0 27 90 53q38 11 58 49.5t20 81.5v420q0 43 -20 81.5t-58 49.5q-78 23 -78 53q0 41 70 41q24 0 89.5 -6t80.5 -6q20 0 82.5 6 t85.5 6q37 0 54 -12t17 -29q0 -30 -80 -53q-38 -11 -55.5 -48.5t-17.5 -82.5z" />
<glyph unicode="2" horiz-adv-x="849" d="M557 139q81 -9 141 62q11 14 24 31t21 27.5t16 20.5t14.5 14.5t12.5 4.5q29 0 29 -51q0 -48 -20 -109t-44.5 -102t-39.5 -41q-33 0 -127 6t-158 6q-59 0 -133.5 -3t-125.5 -6t-52 -3q-5 0 -19 18.5t-14 24.5q0 10 14 24q52 52 107 97q23 19 51.5 44.5t80 77.5t90.5 101 t69 108.5t30 106.5q0 70 -33.5 105.5t-93.5 35.5q-72 0 -121 -20.5t-100 -77.5q-20 -20 -31 -20q-8 0 -17 17.5t-9 27.5q0 7 11.5 29t38.5 53.5t64 60.5t96.5 49.5t127.5 20.5q100 0 170.5 -63.5t70.5 -158.5q0 -44 -47 -121.5t-96 -136.5q-44 -53 -129.5 -143.5 t-101.5 -101.5q-11 -8 5 -14q7 -3 13 -3z" />
<glyph unicode="3" horiz-adv-x="643" d="M371 879q92 0 156.5 -61t64.5 -152q0 -62 -11.5 -102t-53.5 -85.5t-124 -97.5q-4 -2 -5 -4.5t1 -4.5t7 -3q56 -6 98.5 -24t66.5 -41.5t39 -54t20 -56t5 -52.5q0 -130 -69.5 -236.5t-184 -165t-246.5 -58.5q-30 0 -52 19t-22 44q0 31 25.5 50.5t56.5 19.5q6 0 68 -12.5 t84 -12.5q74 0 125 86.5t51 192.5v28.5t-1 26.5t-2.5 27t-5 23.5t-9 23t-13.5 18.5t-19 17t-25 11t-33 8.5t-41 2.5q-28 0 -57.5 -6t-48.5 -12.5t-21 -6.5q-11 0 -23 16.5t-12 28.5q0 13 22 40t41 38q14 8 41.5 21t52 28t50.5 39q65 58 65 191q0 56 -36.5 88.5t-86.5 32.5 q-84 0 -174 -97q-12 -16 -33 -16q-28 0 -28 33q0 17 25 50.5t63.5 69t96 61.5t112.5 26z" />
<glyph unicode="4" horiz-adv-x="1083" d="M684 885q45 0 45 -133v-529q0 -26 9.5 -35.5t45.5 -9.5h191q33 0 33 -39q0 -36 -29 -62t-76 -26h-137q-37 0 -37 -82v-202q0 -43 -36 -78t-79 -35q-55 0 -55 61v287q0 25 -11 36t-42 11h-352q-33 0 -50.5 14.5t-17.5 34.5q0 10 6.5 23t14.5 23.5t23 29.5t24 31l460 641 q25 39 70 39zM264 213q-13 -20 -6 -27.5t37 -7.5h237q8 0 13.5 1.5t8.5 2.5t4 6l1.5 7.5t0 12t-0.5 13.5v338q0 45 -7 45q-4 0 -11 -10z" />
<glyph unicode="5" horiz-adv-x="671" d="M446 856l146 12q18 1 25.5 -11t7.5 -28q0 -25 -29 -70.5t-61 -53.5q-22 -5 -105.5 -11t-99.5 -14q-22 -10 -35.5 -31.5t-13.5 -40.5q0 -22 33 -59.5t104 -102.5q66 -59 98.5 -147t32.5 -160q0 -185 -338 -450q-23 -18 -56.5 -26.5t-54.5 -8.5q-23 0 -47 20.5t-24 40.5 q0 34 18.5 63.5t54.5 37.5q24 6 154 6q35 0 90 64t55 137q0 44 -10 85.5t-34.5 81.5t-43.5 67.5t-60.5 67.5t-60 56t-65.5 56q-9 8 -14 12q-33 29 -33 63q0 46 37 80l190 180q47 43 76 62t63 22z" />
<glyph unicode="6" horiz-adv-x="970" d="M752 1167q41 0 41 -37q0 -12 -25.5 -34.5t-62.5 -40.5q-105 -49 -206.5 -137.5t-136.5 -194.5q-5 -14 18 -11q9 2 17 5q50 16 115 16q93 0 183 -42t149 -117t59 -162q0 -106 -53 -205.5t-146 -163t-200 -63.5q-130 0 -226 65.5t-144 176t-48 249.5q0 99 48 201.5 t126.5 188.5t173 156.5t193.5 117.5q65 32 125 32zM291 406q0 -75 29.5 -151.5t86.5 -130.5t125 -54q51 0 87 29.5t54.5 79.5t26 102t7.5 112q0 101 -86 182.5t-199 81.5q-49 0 -80 -42t-41 -94.5t-10 -114.5z" />
<glyph unicode="7" horiz-adv-x="868" d="M668 856q87 0 123 -9.5t36 -39.5q0 -6 -0.5 -11t-0.5 -9t-1.5 -9t-2.5 -8.5t-3.5 -10t-4 -10t-6 -12.5l-6.5 -13t-8.5 -16.5t-9.5 -19.5l-487 -964q-10 -20 -23.5 -51t-20.5 -44.5t-19 -29t-27.5 -21.5t-38.5 -6q-33 0 -33 61q0 18 45 103l428 813q41 82 41 100 q0 20 -10.5 26.5t-52.5 6.5h-285q-37 0 -72.5 -23.5t-46.5 -54.5q-7 -25 -26 -41t-39 -16q-18 0 -24.5 12t-6.5 45q0 16 37 115q14 34 21 49.5t21 40.5t29.5 36t34.5 11h439z" />
<glyph unicode="8" horiz-adv-x="843" d="M262 264q0 -74 44 -136t110 -62q60 0 113 41t53 96q0 83 -24.5 145.5t-82.5 114.5l-74 67l-69 -69q-70 -70 -70 -197zM580 911q0 61 -45.5 113.5t-106.5 52.5q-54 0 -89.5 -51.5t-35.5 -112.5q0 -23 11.5 -46t21 -34.5t38.5 -38.5t36 -34l53 -53l55 49q62 57 62 155z M336 592l-121 108q-43 40 -61.5 82.5t-18.5 100.5q0 82 51 145.5t129 95t166 31.5q101 0 171.5 -73t70.5 -175q0 -30 -14 -58.5t-28 -44.5t-44 -46l-115 -113l144 -145q53 -53 76.5 -106.5t23.5 -125.5t-38.5 -128.5t-102 -89.5t-137 -49.5t-152.5 -16.5q-106 0 -182 76 t-76 182q0 29 4.5 53.5t17.5 49.5t21 40t33 40t34 34.5t42 38.5t42 37z" />
<glyph unicode="9" horiz-adv-x="958" d="M547 881q166 0 272.5 -107.5t106.5 -273.5q0 -96 -42 -205.5t-113.5 -209.5t-176 -184t-221.5 -126q-12 -4 -36.5 -13t-38.5 -14l-35 -12.5t-35 -11.5t-29.5 -8.5t-27.5 -6.5t-21 -2q-24 0 -38 10.5t-14 26.5q0 22 15 48t32 32q69 25 179 86q82 46 153 103.5t82 84.5 q2 5 -4 7.5t-20.5 4.5t-30.5 4t-40.5 4.5t-45.5 6.5q-153 27 -243.5 119t-90.5 239q0 114 66.5 206.5t172 142t224.5 49.5zM287 426q0 -104 71 -173t174 -69q88 0 139.5 95t51.5 253q0 64 -19 125t-62 105.5t-101 44.5q-83 0 -143 -59.5t-85.5 -143.5t-25.5 -178z" />
<glyph unicode=":" horiz-adv-x="407" d="M229 238q48 0 79.5 -38t31.5 -89q0 -53 -40.5 -87t-96.5 -34q-47 0 -81 33.5t-34 80.5q0 56 41.5 95t99.5 39zM229 829q48 0 79.5 -38t31.5 -89q0 -52 -40.5 -86t-96.5 -34q-47 0 -81 33.5t-34 80.5q0 56 41.5 94.5t99.5 38.5z" />
<glyph unicode=";" horiz-adv-x="473" d="M199 236q95 0 164 -67t69 -159q0 -67 -43.5 -153.5t-110 -149.5t-124.5 -63q-29 0 -29 26q0 11 23.5 36.5t51 53t51 66t23.5 72.5q0 18 -5.5 34t-10 25.5t-21 22.5t-20.5 16t-27.5 16.5t-25.5 14.5q-80 44 -80 102q0 46 34.5 76.5t80.5 30.5zM252 723q48 0 79 -38t31 -89 q0 -53 -40.5 -87t-96.5 -34q-47 0 -80.5 34t-33.5 81q0 56 41.5 94.5t99.5 38.5z" />
<glyph unicode="&#x3c;" horiz-adv-x="1183" d="M279 502l749 -340q25 -12 39 -52t14 -63q0 -8 -7 -17.5t-15 -9.5q-1 0 -3 1.5t-3 1.5l-879 409q-84 38 -84 55t20 50t48 45l895 409q1 0 3 1t3 1q20 0 20 -20q0 -24 -20 -66.5t-47 -54.5l-736 -332q-7 -3 -6 -9t9 -9z" />
<glyph unicode="=" horiz-adv-x="940" d="M195 176q-42 0 -75.5 14t-33.5 48q0 29 30.5 51t78.5 22h583q38 0 62 -16.5t24 -40.5q0 -27 -23 -51.5t-65 -24.5zM195 500q-43 0 -76 13.5t-33 47.5q0 29 30.5 51.5t78.5 22.5h583q38 0 62 -16.5t24 -40.5q0 -27 -23 -51.5t-65 -24.5z" />
<glyph unicode="&#x3e;" horiz-adv-x="1183" d="M905 512l-749 340q-25 12 -39.5 52t-14.5 63q0 8 7 17t16 9q1 0 3 -1t3 -1l879 -409q30 -14 57 -31t27 -25q0 -17 -20 -49.5t-48 -44.5l-895 -409q-1 0 -3 -1.5t-3 -1.5q-9 0 -15 6t-6 15q0 24 20 66.5t48 54.5l735 332q7 3 6.5 9t-8.5 9z" />
<glyph unicode="?" horiz-adv-x="544" d="M471 743q0 -73 -15.5 -106t-45.5 -45q-22 -8 -69.5 -23.5t-82.5 -29.5q-6 -2 -17.5 -33t-27.5 -60.5t-33 -29.5q-21 0 -37 60.5t-16 109.5q0 101 35 114q24 10 68.5 24.5t66.5 23.5q55 24 80.5 57.5t25.5 85.5q0 32 -22 63t-47 39q-99 27 -152 47q-73 26 -73 97 q0 147 36 147q91 0 155.5 -38.5t101 -112t53 -169t16.5 -221.5zM332 133q0 -57 -34 -95t-91 -38q-50 0 -85.5 33.5t-35.5 83.5q0 53 37 88t92 35q49 0 83 -29.5t34 -77.5z" />
<glyph unicode="@" horiz-adv-x="1484" d="M1004 119q-37 0 -60 21.5t-33.5 43t-17.5 21.5q-5 0 -38.5 -21.5t-88 -43t-111.5 -21.5q-106 0 -183 64.5t-77 168.5q0 90 39 169.5t102 133t144.5 84.5t165.5 31q49 0 133 -27q37 -12 47 -12t25.5 19.5t25.5 19.5q24 0 45 -10q8 -3 6 -6q-30 -82 -45 -164l-43 -271 q-6 -54 -6 -55q0 -59 37 -59q109 0 179.5 76t70.5 202q0 140 -70 254t-188.5 178t-259.5 64q-163 0 -298 -65.5t-217.5 -193.5t-82.5 -296q0 -159 80.5 -290t217 -204t298.5 -73q102 0 225.5 42t198.5 105q25 21 37 21q28 0 28 -27q0 -19 -50 -57.5t-122.5 -78t-167 -69 t-172.5 -29.5q-182 0 -337 80t-249 227.5t-94 331.5q0 159 61.5 288t165.5 211t237 125.5t282 43.5q151 0 285.5 -75t216 -204t81.5 -278q0 -116 -60.5 -208t-156.5 -139.5t-206 -47.5zM801 698q-94 0 -161 -82t-67 -225q0 -102 44.5 -147t111.5 -45q23 0 42.5 6t31 13 t37.5 26q41 26 55 100l39 211q2 8 2 25q0 57 -34.5 87.5t-100.5 30.5z" />
<glyph unicode="A" horiz-adv-x="1329" d="M1071 8q-77 0 -165 -6t-109 -6q-23 0 -44.5 9.5t-21.5 25.5q0 14 15.5 23.5t49.5 21t46 16.5q35 16 50.5 36t14 37t-5.5 36l-59 194q-8 25 -33 25h-342q-24 0 -33 -23l-78 -223q-13 -27 -4 -51t49 -35q38 -10 57 -25.5t19 -31.5q0 -35 -71 -35q-20 0 -84 6t-84 6 q-28 0 -72 -6t-57 -6q-30 0 -49 9t-19 26q0 14 16.5 24t50.5 21t46 16t20 9t16 9.5t12.5 8.5t9.5 10.5t7.5 10.5t7 14.5t6.5 16.5t8 21t9 25l313 866q9 22 17 45.5t12 34t8.5 20.5t9 13t11.5 4q23 2 54 32t34 30q10 0 18 -7t15.5 -23t12.5 -30.5t13.5 -42t15.5 -45.5 l271 -764q48 -135 79.5 -183.5t102.5 -74.5q82 -30 82 -63t-59 -33q-21 0 -86.5 6t-102.5 6zM487 557q-11 -25 -9 -34t28 -9h250q30 0 33.5 12t-11.5 62l-125 383q-8 28 -22 -6z" />
<glyph unicode="B" horiz-adv-x="1071" d="M346 1210q19 0 113 5.5t145 5.5q130 0 230 -65t100 -175q0 -109 -49 -187.5t-137 -107.5q-11 -4 -15 -11t-1 -13t11 -7q122 -18 199.5 -92.5t77.5 -193.5q0 -92 -37.5 -164t-103.5 -117.5t-153 -68.5t-191 -23q-22 0 -99 5t-96 5q-42 0 -96.5 -2.5t-92.5 -5t-42 -2.5 q-22 2 -45 12t-23 23q0 14 16.5 24t50.5 21t46 16q96 43 96 172v723q0 18 -2 32t-4 25.5t-8.5 21t-10.5 16t-15.5 13t-17.5 10t-22.5 9t-24.5 8t-30 8.5l-33 9q-33 11 -33 35q0 36 72 36h225zM444 1081v-338q0 -57 62 -57q96 0 174 67.5t78 159.5q0 104 -63.5 164t-155.5 60 q-60 0 -77.5 -11.5t-17.5 -44.5zM444 211q0 -64 40.5 -97.5t70.5 -33.5q111 0 174.5 77t63.5 187q0 131 -67 191.5t-220 60.5q-62 0 -62 -55v-330z" />
<glyph unicode="C" horiz-adv-x="1386" d="M836 1245q69 0 154 -19.5t151.5 -40.5t81.5 -22q61 -5 61 -225q0 -26 -10 -41.5t-27 -15.5q-23 0 -42 31t-40 98q-20 63 -135.5 103t-234.5 40q-198 0 -334.5 -146t-136.5 -358q0 -117 41.5 -224.5t114 -189t177.5 -130t224 -48.5q50 0 91.5 12.5t69.5 29.5t57.5 50 t46.5 58.5t47 72t50 74.5q11 17 37 17q13 0 23 -16t10 -42q0 -16 -82 -194q-26 -53 -41.5 -70.5t-52.5 -30.5q-62 -22 -158 -36.5t-182 -14.5q-130 0 -255.5 42.5t-225.5 118t-161 189.5t-61 246q0 196 101.5 353.5t270.5 243t370 85.5z" />
<glyph unicode="D" horiz-adv-x="1466" d="M690 1225q103 0 203 -25.5t186.5 -76t152.5 -118.5t104 -159t38 -193q0 -136 -39 -254t-115 -211.5t-200.5 -147.5t-284.5 -54q-110 0 -236.5 11t-160.5 11q-41 0 -95 -3t-92 -6t-42 -3q-24 2 -46 11t-22 24q0 14 16.5 24t50.5 21t46 16q96 44 96 172v723q0 22 -3 39 t-6 29t-14 22.5t-16.5 16t-24.5 13t-27.5 10.5t-36.5 10.5t-40 11.5q-33 11 -33 35q0 36 72 36q32 0 83 -1t81 -1q63 0 202 8.5t203 8.5zM444 1067v-725q0 -79 25 -132.5t72.5 -81.5t102.5 -39t128 -11q88 0 160.5 46.5t118 123t70 171t24.5 193.5q0 147 -69.5 266.5 t-189 187t-263.5 67.5q-72 0 -125.5 -17t-53.5 -49z" />
<glyph unicode="E" horiz-adv-x="1165" d="M444 729q0 -63 48 -63h176q31 0 54.5 8t35 17.5t35.5 31.5q7 6 20 21t23 22.5t20 7.5q23 0 23 -41q0 -6 -4.5 -54t-4.5 -65q0 -16 1 -61t1 -55q0 -19 -6.5 -36.5t-19.5 -17.5q-8 0 -16 5.5t-16 16.5t-13 19.5t-12 21t-9 15.5q-9 14 -15.5 22t-21 14.5t-34.5 6.5h-215 q-29 0 -39.5 -10t-10.5 -39v-229q0 -85 36 -140t106 -55h223q45 0 78.5 8t55.5 21t41.5 38.5t32 49t32.5 65.5q3 6 4 9q7 17 24 28t31 11q29 0 29 -52q0 -38 -30.5 -122.5t-47.5 -112.5q-13 -25 -21.5 -32t-33.5 -7q-20 0 -279 5t-385 5q-42 0 -96.5 -2.5t-92.5 -5t-42 -2.5 q-22 2 -45 12t-23 23q0 14 16.5 24t50.5 21t46 16q96 43 96 172v723q0 18 -2 32t-4 25.5t-8.5 21t-10.5 16t-15.5 13t-17.5 10t-22.5 9t-24.5 8t-30 8.5l-33 9q-33 11 -33 35q0 36 72 36h588q49 0 140 5.5t103 5.5q48 0 54 -29q5 -23 11.5 -85.5t6.5 -82.5q0 -53 -33 -53 q-18 0 -38.5 23t-34.5 55q-13 29 -55 48t-111 19h-244q-39 0 -51.5 -10.5t-12.5 -32.5v-344z" />
<glyph unicode="F" horiz-adv-x="1001" d="M109 -4q-22 2 -45 12t-23 23q0 14 16.5 24t50.5 21t46 16q96 43 96 172v723q0 18 -2 32t-4 25.5t-8.5 21t-10.5 16t-15.5 13t-17.5 10t-22.5 9t-24.5 8t-30 8.5l-33 9q-33 11 -33 35q0 36 72 36h571q49 0 140.5 5.5t103.5 5.5q47 0 53 -29q6 -23 12.5 -85.5t6.5 -82.5 q0 -53 -33 -53q-18 0 -39 23t-35 55q-13 29 -55 48t-111 19h-227q-39 0 -51.5 -10.5t-12.5 -32.5l-2 -338q0 -35 12 -49t35 -14h160q31 0 54.5 8t35 17.5t35.5 31.5q7 6 20.5 21t23.5 22.5t20 7.5q22 0 22 -41q0 -6 -4 -53.5t-4 -64.5t1 -62t1 -55q0 -19 -7 -36t-20 -17 q-8 0 -16 5.5t-15.5 16t-13 19t-12 21t-8.5 15.5q-9 14 -16 22t-21.5 14.5t-34.5 6.5h-198q-29 0 -39.5 -10t-10.5 -39l2 -256q0 -131 97 -174q12 -5 46 -16t50 -21t16 -24t-22 -23.5t-43 -11.5q-3 0 -45.5 3t-101 6t-101.5 3q-42 0 -96.5 -3t-92.5 -6t-42 -3z" />
<glyph unicode="G" horiz-adv-x="1454" d="M858 1245q67 0 119 -6.5t79 -13.5t77.5 -23.5t85.5 -25.5q7 -2 12 -7t8.5 -13.5t5.5 -14.5t4.5 -18t3.5 -15q7 -27 16 -94.5t9 -106.5q0 -13 -9.5 -21.5t-23.5 -8.5q-24 0 -67 81q-54 101 -157 148t-233 47q-132 0 -239.5 -75t-166 -196.5t-58.5 -260.5q0 -149 60.5 -281 t175.5 -215.5t257 -83.5q83 0 173.5 26t90.5 52v248q0 18 -36.5 44.5t-73.5 39.5q-12 4 -33 11.5t-28.5 10.5t-18 9t-14 12.5t-3.5 15.5q0 16 13.5 24.5t30.5 8.5q24 0 131.5 -4t144.5 -4q36 0 95.5 4t82.5 4q41 0 41 -41q0 -10 -15 -25t-34 -22q-25 -10 -58.5 -38.5 t-33.5 -45.5v-215q0 -20 14 -39.5t27.5 -33t13.5 -20.5q0 -34 -216.5 -73t-381.5 -39q-161 0 -307.5 80.5t-237 219.5t-90.5 298q0 200 104.5 360.5t279 248t380.5 87.5z" />
<glyph unicode="H" horiz-adv-x="1484" d="M444 545v-281q0 -69 14 -110t62 -62q12 -5 46 -16t50.5 -21t16.5 -24t-22.5 -23.5t-43.5 -11.5q-4 0 -40.5 3t-90 6t-96.5 3q-42 0 -96.5 -3t-92.5 -6t-42 -3q-22 2 -45 12t-23 23q0 14 16.5 24t50.5 21t46 16q96 43 96 172v723q0 18 -2 32t-4 25.5t-8.5 21t-10.5 16 t-15.5 13t-17.5 10t-22.5 9t-24.5 8t-30 8.5l-33 9q-33 11 -33 35q0 17 22.5 26.5t49.5 9.5q41 0 116 -5t111 -5t103 5t102 5q27 0 49.5 -9.5t22.5 -26.5q0 -25 -31 -35q-89 -25 -108 -37q-36 -21 -41 -79q-1 -16 -1 -36v-303q0 -22 27 -22h543q15 0 20.5 5.5t5.5 20.5v299 q0 78 -23 100.5t-107 46.5q-11 3 -17 5q-33 11 -33 35q0 17 22.5 26.5t49.5 9.5q41 0 106 -5t101 -5t113 5t112 5q27 0 49.5 -9.5t22.5 -26.5q0 -25 -31 -35q-10 -3 -36 -10t-33.5 -9t-26 -8.5t-24 -11t-17.5 -12.5t-15.5 -17t-9 -21.5t-7 -28t-1.5 -34.5v-723 q0 -129 96 -172q12 -5 46 -16t50.5 -21t16.5 -24t-22.5 -23.5t-43.5 -11.5q-3 0 -45.5 3t-101 6t-101.5 3q-42 0 -91 -3t-82 -6t-37 -3q-22 2 -45 12t-23 23q0 14 16.5 24t50.5 21t46 16q48 21 61.5 61.5t13.5 110.5v277q0 14 -6 18t-22 4h-537h-5q-10 0 -14.5 -0.5t-8 -4.5 t-3.5 -13z" />
<glyph unicode="I" horiz-adv-x="694" d="M573 1210q27 0 49.5 -9.5t22.5 -26.5q0 -25 -31 -35q-10 -3 -36 -10t-33.5 -9t-26 -8.5t-24 -11t-17.5 -12.5t-15.5 -17t-9 -21.5t-7 -28t-1.5 -34.5v-723q0 -129 97 -172q12 -5 46 -16t50 -21t16 -24t-22 -23.5t-43 -11.5q-3 0 -45.5 3t-101 6t-101.5 3q-42 0 -96.5 -3 t-92.5 -6t-42 -3q-22 2 -45 12t-23 23q0 14 16.5 24t50.5 21t46 16q96 43 96 172v723q0 18 -2 32t-4 25.5t-8.5 21t-10.5 16t-15.5 13t-17.5 10t-22.5 9t-24.5 8t-30 8.5l-33 9q-33 11 -33 35q0 17 22.5 26.5t49.5 9.5q41 0 116 -5t111 -5t113 5t112 5z" />
<glyph unicode="J" horiz-adv-x="643" d="M444 985v-698q0 -154 -9 -257.5t-29.5 -163t-36.5 -85t-47 -60.5q-106 -116 -271 -116q-92 0 -142 32t-50 70q0 42 23 78.5t50 36.5q39 0 61.5 -12t41.5 -41q51 -78 96 -78q68 0 93.5 79.5t25.5 241.5v973q0 20 -1.5 35.5t-7 28.5t-8.5 21.5t-15.5 17t-17 12.5t-24 11 t-25.5 9t-33 9t-36 10q-33 11 -33 35q0 17 22.5 26.5t49.5 9.5q41 0 116 -5t111 -5t113 5t112 5q27 0 49.5 -9.5t22.5 -26.5q0 -25 -31 -35l-33 -9t-30 -8.5t-25 -8t-23 -9t-17.5 -10t-15.5 -13.5t-11 -16.5t-9 -21t-4 -26t-2 -32.5z" />
<glyph unicode="K" horiz-adv-x="1286" d="M807 1137q-35 11 -35 37q0 17 22.5 26.5t49.5 9.5q15 0 73 -5t74 -5q15 0 65 5t66 5q27 0 49.5 -9.5t22.5 -26.5q0 -23 -35 -35q-189 -63 -285 -183l-92 -94q-55 -57 -85.5 -106t-30.5 -74q0 -23 16 -50t70 -100q83 -116 135.5 -170.5t169.5 -152.5q42 -36 107 -69.5 t102 -33.5q19 0 35 -14t16 -22q0 -29 -38 -57.5t-97 -28.5q-147 0 -295 112q-27 20 -54 45t-52.5 52.5t-46 51.5t-42.5 53.5t-34 46t-29 40.5t-19 27q-29 41 -65.5 78.5t-55.5 37.5q-22 0 -33.5 -36t-11.5 -72v-156q0 -129 97 -172q12 -5 46 -16t50 -21t16 -24t-22 -23.5 t-43 -11.5q-3 0 -45.5 3t-101 6t-101.5 3q-42 0 -96.5 -3t-92.5 -6t-42 -3q-22 2 -45 12t-23 23q0 14 16.5 24t50.5 21t46 16q96 43 96 172v723q0 18 -2 32t-4 25.5t-8.5 21t-10.5 16t-15.5 13t-17.5 10t-22.5 9t-24.5 8t-30 8.5l-33 9q-33 11 -33 35q0 17 22.5 26.5 t49.5 9.5q41 0 116 -5t111 -5t113 5t112 5q27 0 49.5 -9.5t22.5 -26.5q0 -25 -31 -35q-10 -3 -36 -10t-33.5 -9t-26 -8.5t-24 -11t-17.5 -12.5t-15.5 -17t-9 -21.5t-7 -28t-1.5 -34.5v-266q0 -26 8.5 -34.5t28.5 -8.5q26 0 97 88l229 285q55 69 0 86z" />
<glyph unicode="L" horiz-adv-x="1210" d="M444 285q0 -84 36 -138.5t106 -54.5h223q33 0 60 6.5t48 21.5t35.5 29.5t29.5 41.5t24 44.5t23.5 52t23.5 52.5q7 17 24 28t31 11q15 0 26 -27t11 -69q0 -38 -27 -131.5t-41 -116.5q-13 -25 -22.5 -32t-34.5 -7q-20 0 -287 5t-393 5q-42 0 -96.5 -2.5t-92.5 -5t-42 -2.5 q-22 2 -45 12t-23 23q0 14 16.5 24t50.5 21t46 16q96 43 96 172v723q0 18 -2 32t-4 25.5t-8.5 21t-10.5 16t-15.5 13t-17.5 10t-22.5 9t-24.5 8t-30 8.5l-33 9q-33 11 -33 35q0 36 74 36q41 0 116 -5t111 -5t113 5t112 5q27 0 49.5 -9.5t22.5 -26.5q0 -25 -31 -35 q-11 -3 -36 -10t-33.5 -9.5t-27 -8.5t-24 -10.5t-17.5 -12.5t-16 -17t-9.5 -21.5t-7 -28t-1.5 -34.5v-702z" />
<glyph unicode="M" horiz-adv-x="1665" d="M1456 264q7 -133 96 -172q12 -5 46 -16t50.5 -21t16.5 -24t-22.5 -23.5t-43.5 -11.5q-3 0 -45 3t-100.5 6t-101.5 3q-42 0 -96.5 -3t-93 -6t-42.5 -3q-22 2 -44.5 12t-22.5 23q0 14 16 24t50 21t46 16q51 23 75.5 68t21.5 104l-17 395q-5 81 -16.5 140t-24.5 59 q-8 0 -12.5 -1t-15.5 -9t-21.5 -24t-27 -48.5t-35.5 -79.5l-187 -428q-16 -36 -58.5 -115t-53.5 -79q-17 0 -33.5 24.5t-46.5 102.5l-203 520q-50 131 -72 131q-14 0 -15 -1q-14 -10 -22 -142l-26 -437q-4 -51 11.5 -107t51.5 -73q12 -5 46 -16t50.5 -21t16.5 -24 t-22.5 -23.5t-43.5 -11.5q-4 0 -34.5 3t-77.5 6t-90 3q-42 0 -86 -3t-71.5 -6t-31.5 -3q-22 2 -44.5 12t-22.5 23q0 14 15 23.5t50.5 21t46.5 16.5q95 42 119 215l70 545q8 40 5 75t-5.5 55.5t-15 40.5t-22.5 31.5t-28 28.5q-13 12 -43 32t-48.5 36t-18.5 31q0 29 63 28h6 q35 0 107 -5t121 -5q41 0 70 -29.5t59 -99.5l225 -553q4 -10 23.5 -22.5t27.5 -12.5q28 0 59 70l289 600q16 32 37 39.5t68 7.5q25 0 125 10.5t135 10.5q32 0 32 -35q0 -14 -16.5 -24t-81.5 -38q-49 -21 -66.5 -60t-13.5 -124z" />
<glyph unicode="N" horiz-adv-x="1402" d="M342 264q0 -129 96 -172q12 -5 46 -16t50.5 -21t16.5 -24t-22.5 -23.5t-43.5 -11.5q-4 0 -34.5 3t-77.5 6t-90 3q-42 0 -86 -3t-71.5 -6t-31.5 -3q-22 2 -44.5 12t-22.5 23q0 14 16 24t50 21t46 16q97 43 97 172v535q0 144 -29 178l-76 84q-12 13 -29.5 32t-27 29.5 t-19.5 22.5t-14 19.5t-4 13.5q0 22 31 22h198q45 0 109 -74l543 -608q67 -75 104 -113.5t51 -49.5t23 -11q12 0 15 25t3 118v500q0 20 -1.5 35.5t-7 28t-9 21.5t-14.5 17t-17 12t-24 10.5t-26.5 9t-32.5 9t-36 9.5q-33 11 -33 35q0 17 22.5 26.5t49.5 9.5q41 0 95.5 -5 t90.5 -5t93 5t92 5q27 0 49 -9.5t22 -26.5q0 -25 -30 -35q-12 -4 -36 -10t-33 -9t-26.5 -8.5t-24 -10t-17.5 -12.5t-15 -17t-9.5 -21.5t-7 -28t-1.5 -35.5v-817q0 -53 3 -99.5t3 -68.5q0 -25 -41 -25q-21 0 -71 32.5t-103 90.5l-602 670q-44 49 -60 49q-9 0 -11.5 -27 t-2.5 -112v-416z" />
<glyph unicode="O" horiz-adv-x="1372" d="M766 1225q137 0 267 -84.5t211 -222t81 -283.5q0 -174 -78 -325t-219 -243t-311 -92q-182 0 -329.5 78.5t-232.5 223t-85 327.5q0 190 89.5 332t246.5 215.5t360 73.5zM299 676q0 -109 30.5 -215.5t85 -194t141 -142t189.5 -54.5q88 0 157 44t110.5 117t62.5 160t21 182 q0 102 -27 199.5t-76.5 178t-129 130t-175.5 49.5q-109 0 -199.5 -66.5t-140 -170.5t-49.5 -217z" />
<glyph unicode="P" horiz-adv-x="1095" d="M438 1071v-807q0 -129 97 -172q12 -5 46 -16t50 -21t16 -24t-22 -23.5t-43 -11.5q-4 0 -46 3t-100.5 6t-101.5 3q-39 0 -91.5 -3t-91 -6t-42.5 -3q-22 2 -45 12t-23 23q0 14 16.5 24t50.5 21t46 16q96 43 96 172v723q0 18 -2 32t-4 25.5t-8.5 21t-10.5 16t-15.5 13 t-17.5 10t-22.5 9t-24.5 8t-30 8.5l-33 9q-33 11 -33 35q0 33 72 36q270 21 446 21q81 0 156.5 -18t139.5 -52.5t102.5 -93.5t38.5 -133q0 -118 -65.5 -199.5t-184.5 -146.5q-76 -41 -131 -41q-37 0 -37 35q0 9 8.5 15.5t32.5 22.5t47 35q125 106 125 248q0 101 -76.5 169.5 t-181.5 68.5q-43 0 -73 -20.5t-30 -49.5z" />
<glyph unicode="Q" horiz-adv-x="1544" d="M774 1239q160 0 296.5 -82t216 -220.5t79.5 -299.5q0 -160 -62 -289t-182 -217q-19 -14 -41.5 -30t-34 -24t-24.5 -18t-19 -15.5t-11.5 -12t-7 -12.5t-1.5 -13q0 -44 139 -134t236 -130q128 -53 187 -77t158 -60.5t159.5 -52t145.5 -34t166.5 -24.5t176.5 -6 q85 0 143.5 2t120.5 8.5t103.5 18.5t83 32t70 49.5t53.5 70t43 93.5q9 28 31 48t46 20q33 0 49.5 -21.5t16.5 -50.5q0 -93 -84 -174t-209.5 -131.5t-261.5 -79t-250 -28.5q-102 0 -192 5.5t-157.5 12.5t-142.5 24.5t-119.5 28.5t-118 39t-108 42t-119 50.5t-124.5 53.5 q-99 43 -257.5 130.5t-172.5 94.5q-108 53 -328 176q-373 217 -373 573q0 135 55.5 258.5t147.5 212t217 141t260 52.5zM324 666q0 -75 11 -148.5t33 -144t57.5 -130t81 -104.5t107.5 -70.5t134 -25.5q65 0 136 40t130 99q69 69 96 162.5t27 220.5q0 113 -29.5 216.5 t-83 185.5t-137.5 131t-185 49q-84 0 -156.5 -42.5t-120 -111t-74.5 -154t-27 -173.5z" />
<glyph unicode="R" horiz-adv-x="1333" d="M459 647q23 -33 63 -33q45 0 91.5 13t60.5 28q63 54 94 111t31 133q0 101 -76.5 167.5t-181.5 66.5q-43 0 -73 -20.5t-30 -49.5v-326q0 -59 21 -90zM858 504q190 -285 383 -424q36 -26 117 -33q16 -1 25.5 -11.5t9.5 -23.5q0 -27 -43.5 -44t-100.5 -17q-77 0 -147.5 25.5 t-112.5 70.5q-185 194 -323 426q-41 68 -170 68q-29 0 -43.5 -31.5t-14.5 -71.5v-174q0 -129 97 -172q12 -5 46 -16t50 -21t16 -24t-22 -23.5t-43 -11.5q-4 0 -46 3t-100.5 6t-101.5 3q-39 0 -91.5 -3t-91 -6t-42.5 -3q-22 2 -45 12t-23 23q0 14 16.5 24t50.5 21t46 16 q96 43 96 172v715q0 19 -1.5 34.5t-7 28t-8.5 21t-15 17t-17.5 12.5t-23.5 10.5t-26 8.5t-33 9t-36 10q-33 11 -33 35q0 34 72 37q270 21 446 21q81 0 156 -17t139.5 -51t103 -92.5t38.5 -132.5q0 -169 -162 -287q-7 -5 -16.5 -11t-12 -8.5t-4.5 -6.5t-2 -11q0 -28 51 -102z " />
<glyph unicode="S" horiz-adv-x="837" d="M475 1231q48 0 109 -17t98 -38q24 -14 39 -32.5t21.5 -44t8 -45t1.5 -53.5q0 -55 -41 -55q-16 0 -30.5 16.5t-41.5 60.5q-6 11 -10 17q-46 74 -162 74q-75 0 -121.5 -54.5t-46.5 -131.5q0 -14 2 -26.5t9 -24.5t11 -19.5t17 -20t18 -17.5t23 -20l24 -20l289 -243 q46 -38 72.5 -94.5t26.5 -114.5q0 -100 -59 -181.5t-153 -125.5t-200 -44q-47 0 -112.5 14t-102.5 32q-58 27 -76 50t-18 72q0 57 13.5 97.5t41.5 40.5q23 0 36.5 -21.5t28.5 -71.5q18 -58 77 -95.5t145 -37.5q80 0 129 66.5t49 159.5q0 68 -82 135l-307 252q-90 72 -90 184 q0 153 107 265t257 112z" />
<glyph unicode="T" horiz-adv-x="1212" d="M545 1034q0 64 -33 64h-250q-36 0 -53 -14.5t-35 -47.5q-6 -11 -19 -41t-23 -43.5t-23 -13.5q-18 0 -27.5 15t-9.5 32q0 21 5 57.5t5 71.5q0 18 -2 51t-2 41q0 21 10 36t25 15q9 0 18.5 -6.5t25 -19t29.5 -21.5q28 -3 55.5 -6.5t43 -5.5t22.5 -2h715q50 0 80 8.5t63 26.5 q8 5 19.5 13.5t20.5 13t20 4.5q17 0 27 -11.5t10 -25.5q0 -6 -4.5 -34t-4.5 -54q0 -28 2 -81t2 -61q0 -26 -5 -36.5t-23 -10.5q-20 0 -74 92q-34 58 -74 58h-317q-13 0 -19 -21t-6 -43v-770q0 -129 97 -172q12 -5 46 -16t50 -21t16 -24t-22 -23.5t-43 -11.5q-3 0 -45.5 3 t-101 6t-101.5 3q-42 0 -96.5 -3t-93 -6t-42.5 -3q-22 2 -44.5 12t-22.5 23q0 14 16.5 24t50.5 21t46 16q96 43 96 172v770z" />
<glyph unicode="U" horiz-adv-x="1263" d="M1147 1008v-496q0 -236 -141.5 -380t-368.5 -144q-108 0 -189 26t-132 71.5t-83 115t-44.5 147t-12.5 176.5v463q0 73 -22.5 96t-120.5 56q-33 11 -33 35q0 17 22.5 26.5t49.5 9.5q41 0 83 -5t78 -5t117.5 5t116.5 5q27 0 49.5 -9.5t22.5 -26.5q0 -25 -31 -35 q-70 -23 -103.5 -56t-33.5 -92v-409q0 -130 13.5 -216.5t47.5 -151.5t94.5 -94.5t153.5 -29.5q83 0 144.5 25.5t100.5 70t62.5 113t33 146t9.5 178.5v381q0 37 -3.5 57.5t-15 33.5t-26 19.5t-44.5 16.5q-12 4 -19 6q-35 12 -35 37q0 17 22 26.5t49 9.5q15 0 66.5 -5t67.5 -5 t66 5t65 5q27 0 49 -9.5t22 -26.5q0 -24 -34 -35q-71 -23 -92 -47t-21 -84z" />
<glyph unicode="V" horiz-adv-x="1140" d="M807 1137q-35 12 -35 37q0 17 22.5 26.5t49.5 9.5q15 0 73 -5t74 -5q15 0 65 5t66 5q27 0 49.5 -9.5t22.5 -26.5q0 -23 -35 -35q-65 -22 -100.5 -67.5t-63.5 -123.5l-254 -700q-104 -279 -135 -279q-26 0 -78 142l-311 827q-32 86 -54 116q-41 55 -130 85q-33 11 -33 35 q0 17 22.5 26.5t49.5 9.5q41 0 83 -5t78 -5t127.5 5t126.5 5q27 0 49.5 -9.5t22.5 -26.5q0 -25 -31 -35q-79 -26 -115 -60.5t-14 -95.5l201 -537q16 -43 28 -66t19 -28.5t15 -5.5q9 0 17 5.5t24 34.5t34 83l152 459q17 52 19.5 88t-11 59t-34.5 36.5t-56 25.5z" />
<glyph unicode="W" horiz-adv-x="1509" d="M887 1137q-35 12 -35 37q0 36 51 36q15 0 54 -4t55 -4t66 4t65 4q51 0 51 -36q0 -23 -35 -35q-65 -22 -100.5 -67.5t-63.5 -123.5l-102 -282l82 -220q16 -43 27.5 -66t18.5 -28.5t15 -5.5q7 0 13 3t15.5 14t21.5 38t26 68l152 459q36 107 36 152t-38 57q-35 12 -35 37 q0 36 49 36q16 0 58 -4t57 -4t63 4t64 4q51 0 51 -36q0 -23 -35 -35q-65 -22 -100.5 -67.5t-63.5 -123.5l-254 -700q-104 -279 -135 -279q-26 0 -78 142l-108 286l-54 -149q-104 -279 -135 -279q-26 0 -78 142l-311 827q-32 86 -54 116q-41 55 -130 85q-33 11 -33 35 q0 17 22.5 26.5t49.5 9.5q16 0 76 -4t75 -4t64 4t65 4q72 0 72 -30q0 -13 -8.5 -24.5t-22.5 -16.5q-17 -5 -24.5 -14.5t-4 -31t7.5 -35.5t19 -53q5 -14 8 -22l201 -537q16 -43 28 -66t19 -28.5t15 -5.5q9 0 17 5.5t24 34.5t34 83l15 43l-160 426q-6 16 -16.5 46t-16.5 46 t-15.5 38.5t-18 34.5t-20 22.5t-24.5 13.5q-32 7 -32 35q0 18 13 27t32 9q16 0 66 -4t65 -4t59 4t59 4q27 0 49.5 -9.5t22.5 -26.5q0 -25 -31 -35q-20 -7 -29.5 -18.5t-8.5 -33t7.5 -44t20.5 -60.5l70 -188l45 133q19 57 27.5 90t10 59.5t-8 39.5t-31.5 20z" />
<glyph unicode="X" horiz-adv-x="1253" d="M524 1079q0 -8 6.5 -31.5t12.5 -33.5l139 -258l111 166q65 101 65 145q0 20 -17 40.5t-44 29.5q-35 12 -35 37q0 17 22 25.5t50 8.5q16 0 74 -4t73 -4q16 0 65.5 4t65.5 4q28 0 50 -8.5t22 -25.5q0 -23 -35 -35q-86 -29 -138 -70.5t-91 -101.5l-193 -297l229 -424 q59 -108 183 -154q82 -30 82 -63t-60 -33q-21 0 -86 6t-102 6q-77 0 -165.5 -6t-109.5 -6q-23 0 -44 9.5t-21 25.5q0 14 15.5 23.5t49.5 21t45 16.5q26 13 38.5 27t9.5 32.5t-8.5 31t-18.5 34.5l-150 279l-198 -308q-13 -18 -20.5 -38.5t-4.5 -38.5t21 -23q65 -17 65 -57 q0 -35 -71 -35q-20 0 -84 6t-84 6q-28 0 -72 -6t-57 -6q-30 0 -49 9t-19 26q0 14 16.5 24t50.5 21t46 16q58 26 98.5 55t77.5 78l237 359l-155 288q-111 210 -250 258q-15 5 -28 18t-13 26q0 17 22 25.5t50 8.5q41 0 83 -4t78 -4t99 4t98 4q28 0 50 -8.5t22 -25.5 q0 -25 -31 -35q-68 -23 -68 -60z" />
<glyph unicode="Y" horiz-adv-x="882" d="M633 266q0 -131 96 -174q12 -5 46 -16t50.5 -21t16.5 -24t-22.5 -23.5t-43.5 -11.5q-4 0 -46 3t-100.5 6t-101.5 3q-42 0 -96.5 -3t-92.5 -6t-42 -3q-22 2 -45 12t-23 23q0 14 16.5 24t50.5 21t46 16q96 43 96 174v150q0 36 -2.5 67.5t-4.5 50t-9.5 44t-10 33t-13.5 34.5 t-13 31l-92 237q-62 161 -260 226q-33 11 -33 35q0 17 22.5 26.5t49.5 9.5q41 0 83 -5t78 -5t99 5t98 5q27 0 49.5 -9.5t22.5 -26.5q0 -25 -31 -35q-28 -9 -42 -18.5t-16.5 -15.5t-2.5 -15t25 -61.5t50 -100.5l25 -49q41 -84 63 -84q4 0 8 2t9 7.5t9 11.5t11 18.5t13 23 t16.5 29.5t19.5 35l76 133q10 18 -10 45.5t-49 36.5q-35 12 -35 37q0 17 22.5 26.5t49.5 9.5q15 0 73 -5t74 -5t66 5t65 5q27 0 49.5 -9.5t22.5 -26.5q0 -23 -35 -35q-10 -3 -36.5 -12t-31 -10.5t-24 -9.5t-23.5 -12.5t-19.5 -16t-23 -22.5t-23 -30t-29.5 -40t-34 -52 l-116 -180q-13 -19 -21 -37t-11 -35.5t-3.5 -27t0 -26t0.5 -18.5v-344z" />
<glyph unicode="Z" horiz-adv-x="1210" d="M528 6q-81 0 -215.5 -5t-199.5 -5q-37 0 -37 57q0 7 13.5 26.5t50.5 68t65 88.5l508 718q31 44 40 63t9 48q0 45 -98 45h-275q-116 0 -162 -53q-12 -13 -40.5 -50t-47 -57t-26.5 -20q-31 0 -31 57q0 53 22 189q8 45 48 45q11 0 64 -11.5t108 -11.5h372q27 0 158 3t168 3 h9q20 0 29 -0.5t21 -5t16.5 -14.5t4.5 -27q0 -24 -76 -129l-573 -805q-4 -7 -15.5 -23t-17.5 -25.5t-11.5 -23t-5.5 -24.5q0 -21 33.5 -28t104.5 -7h315q33 0 60 6.5t48 21.5t35.5 29.5t29.5 41.5t24 44.5t23.5 52t23.5 52.5q7 17 24 28t31 11q15 0 26 -27t11 -69 q0 -38 -27 -131.5t-41 -116.5q-13 -25 -22.5 -32t-34.5 -7q-40 0 -275 5t-264 5z" />
<glyph unicode="[" horiz-adv-x="548" d="M174 1196h338q37 0 37 -29q0 -20 -13 -39.5t-40 -19.5h-222q-45 0 -62 -20.5t-17 -67.5v-1233q0 -52 15 -79t56 -27h230q53 0 53 -31q0 -19 -17.5 -38.5t-35.5 -19.5h-336q-38 0 -51 8.5t-13 43.5v1482q0 50 13 60t65 10z" />
<glyph unicode="\" horiz-adv-x="718" d="M45 1436q27 0 38.5 -15.5t39.5 -79.5l567 -1335q19 -47 19 -72q0 -28 -23 -28q-27 0 -40.5 10t-24.5 35l-590 1364q-4 7 -10.5 24.5t-11.5 31.5t-5 15q0 28 9 39t32 11z" />
<glyph unicode="]" horiz-adv-x="548" d="M375 -408h-338q-37 0 -37 29q0 20 13 40t40 20h221q45 0 62.5 20.5t17.5 67.5v1232q0 52 -15 79.5t-56 27.5h-230q-53 0 -53 31q0 19 17.5 38t35.5 19h336q39 0 51.5 -8.5t12.5 -42.5v-1483q0 -50 -12.5 -60t-65.5 -10z" />
<glyph unicode="^" horiz-adv-x="567" d="M30 490zM264 1200q-38 -54 -123 -151q-40 -45 -61 -45q-13 0 -16 5.5t-3 20.5q0 20 68 147t113 201q21 37 41 37t41 -37q46 -76 114 -202t68 -146q0 -15 -3 -20.5t-16 -5.5q-21 0 -61 45q-89 102 -125 151q-19 25 -37 0z" />
<glyph unicode="_" horiz-adv-x="1208" d="M141 -240q-141 0 -141 33q0 46 42.5 73.5t127.5 27.5h897h14q29 0 45 -0.5t38.5 -3.5t33 -11.5t10.5 -21.5q0 -46 -43 -71.5t-129 -25.5h-895z" />
<glyph unicode="`" horiz-adv-x="477" d="M69 490zM319 1049q-67 73 -154.5 178.5t-87.5 124.5q0 23 34.5 35t78.5 12q15 0 30.5 -11t24.5 -26q35 -61 94.5 -186t59.5 -146q0 -15 -3 -20.5t-16 -5.5q-21 0 -61 45z" />
<glyph unicode="a" horiz-adv-x="1089" d="M1001 98q34 -14 48 -29t14 -38q0 -14 -22.5 -23.5t-43.5 -11.5q-3 0 -24 3t-58.5 6t-80.5 3q-42 0 -79 -3t-58 -6t-25 -3q-22 2 -45 12t-23 23q0 22 16.5 35.5t57.5 27.5q14 5 30.5 28.5t12.5 41.5l-33 108q-10 52 -59 52h-199q-24 0 -36.5 -11t-20.5 -34l-31 -95 q-24 -73 25 -88q43 -13 65.5 -28t22.5 -37q0 -14 -22.5 -23.5t-43.5 -11.5q-3 0 -25.5 3t-61 6t-81.5 3q-42 0 -81 -3t-62 -6t-27 -3q-22 2 -44.5 12t-22.5 23q0 21 35 41.5t77 33.5q73 24 97 82l268 623q2 5 6.5 17.5t8.5 20t10 12.5q15 13 35 31.5t33 31t27.5 25 t24.5 18.5t17 6q11 0 28.5 -21.5t28.5 -58.5l209 -688q7 -23 38.5 -55.5t73.5 -51.5zM424 438q-6 -17 -1 -20.5t30 -3.5h157q6 0 9.5 0.5t6.5 0.5t3.5 2t1.5 3t0 4.5t-1.5 5t-3 7.5t-3.5 9l-68 224q-4 11 -10 15t-12 -0.5t-11 -16.5z" />
<glyph unicode="b" horiz-adv-x="935" d="M319 8q-42 0 -86 -3t-72 -6t-32 -3q-22 2 -45 12t-23 23q0 9 7 17t20.5 15t26 12.5t31 13t28.5 11.5q10 5 18.5 10.5t15 10.5t11.5 14t8 13.5t5 17t3.5 16.5t2 19.5t0.5 19v21.5v22v441q0 76 -17 96t-89 39q-19 5 -30 8q-13 4 -22.5 16.5t-9.5 26.5q0 17 22.5 27t48.5 10 q39 0 134 8t139 8q67 0 121.5 -4.5t111 -18.5t94.5 -37t62 -63t24 -94q0 -72 -46.5 -119.5t-123.5 -68.5q-19 -5 -9 -16q5 -7 18 -9q88 -14 148 -80.5t60 -152.5q0 -79 -50 -145.5t-127.5 -103t-159.5 -36.5q-25 0 -94.5 6t-123.5 6zM414 725v-119q0 -59 47 -59 q33 0 58.5 3.5t51.5 14.5t43.5 29.5t28 49.5t10.5 73q0 48 -50.5 79t-113.5 31q-42 0 -58.5 -17.5t-16.5 -84.5zM414 412v-176q0 -57 34 -91t91 -34q59 0 96 49t37 125q0 168 -197 168q-61 0 -61 -41z" />
<glyph unicode="c" horiz-adv-x="1046" d="M637 963q66 0 133 -14.5t88 -30.5q60 -46 83.5 -69.5t23.5 -45.5q0 -50 -23 -101t-39 -51t-24.5 9t-25 42t-32.5 58q-64 100 -207 100q-93 0 -164.5 -58t-107 -147t-35.5 -190q0 -98 33 -185t101 -145.5t157 -58.5q94 0 213 108q14 13 34 42t35 49t25 20q33 0 33 -49 q0 -154 -70 -185q-176 -81 -313 -81q-125 0 -231 64.5t-166 172t-60 232.5q0 139 74.5 258t198.5 187.5t266 68.5z" />
<glyph unicode="d" horiz-adv-x="1185" d="M319 8q-42 0 -86 -3t-72 -6t-32 -3q-22 2 -45 12t-23 23q0 9 7 17t20.5 15t26 12.5t31 13t28.5 11.5q10 5 18.5 10.5t15 10.5t11.5 14t8 13.5t5 17t3.5 16.5t2 19.5t0.5 19v21.5v22v441q0 76 -17 96t-89 39q-19 5 -30 8q-13 4 -22.5 16.5t-9.5 26.5q0 17 22.5 27t48.5 10 q58 0 193 10t219 10q81 0 161 -15t153.5 -47t129.5 -77.5t89.5 -111t33.5 -142.5q0 -237 -153 -396t-379 -159q-32 0 -139 4t-130 4zM414 713v-462q0 -67 51 -110t147 -43q99 0 169.5 59.5t102 147.5t31.5 191q0 146 -102.5 245t-245.5 99q-92 0 -122.5 -26t-30.5 -101z" />
<glyph unicode="e" horiz-adv-x="907" d="M319 8q-27 0 -99 -6t-91 -6q-21 0 -44.5 10.5t-23.5 24.5q0 9 7 17t20.5 15t26 12.5t31 13t28.5 11.5q10 5 18.5 10.5t15 10.5t11.5 14t8 13.5t5 17t3.5 16.5t2 19.5t0.5 19v21.5v22v441q0 76 -17 96t-89 39q-19 5 -30 8q-13 4 -22.5 16.5t-9.5 26.5q0 17 22.5 27 t48.5 10q41 0 96 -4t91 -4q34 0 189 4t200 4q25 0 29.5 -4t13.5 -35q12 -36 12 -101q0 -22 -8.5 -42.5t-26.5 -20.5q-41 0 -67 70q-5 13 -23.5 24.5t-40.5 11.5h-143q-33 0 -41 -9t-8 -40v-176q0 -19 0.5 -30.5t3.5 -25t10 -20t18 -6.5h103q31 0 52.5 13t31.5 28t22 28 t25 13q14 0 19.5 -31.5t5.5 -105.5q0 -81 -4.5 -110t-24.5 -29q-12 0 -23.5 14t-21 31t-32 31t-54.5 14h-94q-23 0 -28 -6q-9 -10 -9 -62v-139q0 -38 17.5 -63t53.5 -25h172q18 0 34 18t24.5 35.5t21.5 49.5q3 7 4 10q6 18 21.5 31.5t30.5 13.5q20 0 32.5 -19.5t12.5 -56.5 q0 -53 -32.5 -132t-57.5 -79q-68 0 -211.5 6t-217.5 6z" />
<glyph unicode="f" horiz-adv-x="845" d="M453 420q-39 0 -39 -49v-107q0 -5 0.5 -22t0.5 -22t1 -19t2.5 -19t3.5 -16.5t5.5 -16.5t8.5 -14t11.5 -14t15 -10.5t18.5 -10.5q10 -4 28.5 -11.5t31 -13t26 -12.5t20.5 -15t7 -17q0 -14 -22.5 -23.5t-43.5 -11.5q-4 0 -35.5 3t-79.5 6t-91 3q-42 0 -86.5 -3t-72.5 -6 t-32 -3q-23 2 -46.5 11.5t-23.5 23.5q0 9 7 17t20.5 15t26 12.5t31 13t28.5 11.5q10 5 18.5 10.5t15 10.5t11.5 14t8 13.5t5 17t3.5 16.5t2 19.5t0.5 19v21.5v22v441q0 76 -17 96t-89 39q-19 5 -30 8q-13 4 -22.5 16.5t-9.5 26.5q0 17 22.5 27t48.5 10q41 0 96 -5t91 -5 q41 0 222 5t191 5q24 0 29 -5t14 -34q4 -12 8.5 -49t4.5 -52q0 -22 -8.5 -42.5t-26.5 -20.5q-42 0 -68 70q-5 13 -23 24.5t-40 11.5h-166q-33 0 -41 -9t-8 -40v-176q0 -25 1.5 -40.5t9 -28.5t22.5 -13h124q31 0 55.5 13t37 28t23 28t16.5 13q14 0 19 -31t5 -106 q0 -81 -4.5 -110t-24.5 -29q-6 0 -16 14t-21.5 31t-36.5 31t-57 14h-116z" />
<glyph unicode="g" horiz-adv-x="1028" d="M895 158q0 -14 1 -30.5t0.5 -22t-1.5 -13t-7 -11.5t-13.5 -8t-24.5 -12q-175 -81 -313 -81q-125 0 -231 64.5t-166 172t-60 232.5q0 139 74.5 258t198 187.5t265.5 68.5q150 0 265 -50q19 -9 30 -29.5t11 -43.5q0 -56 -12.5 -116t-26.5 -60q-25 0 -40.5 21t-35.5 75 q-17 46 -80 73t-133 27q-93 0 -164.5 -58t-107 -147t-35.5 -190q0 -98 33 -185t101 -145.5t157 -58.5q54 0 96.5 27.5t42.5 64.5v108q0 34 -21.5 47t-113.5 39q-14 4 -23.5 17t-9.5 27q0 17 22.5 26.5t49.5 9.5q41 0 95.5 -5t90.5 -5t70 5t69 5q53 0 53 -36q0 -14 -9 -27 t-21 -17q-76 -25 -76 -86v-118z" />
<glyph unicode="h" horiz-adv-x="1318" d="M414 377v-113q0 -70 8 -111.5t33 -52.5q10 -4 28.5 -11.5t31 -13t25.5 -12.5t20 -15t7 -17q0 -14 -22 -23.5t-43 -11.5q-3 0 -29 3t-68.5 6t-85.5 3q-42 0 -86 -3t-72 -6t-32 -3q-22 2 -45 12t-23 23q0 9 7 17t20.5 15t26 12.5t31 13t28.5 11.5q10 5 18.5 10.5t15 10.5 t11.5 14t8 13.5t5 17t3.5 16.5t2 19.5t0.5 19v21.5v22v441q0 76 -17 96t-89 39q-19 5 -30 8q-13 4 -22.5 16.5t-9.5 26.5q0 17 22.5 27t48.5 10q41 0 96 -5t91 -5t81 5t80 5q27 0 49.5 -10t22.5 -27q0 -14 -9 -26.5t-22 -16.5q-74 -21 -88 -31q-24 -17 -27 -71 q-1 -16 -1 -41v-160q0 -37 26 -37h416q39 3 39 37v160q0 80 -14.5 99t-81.5 39q-10 3 -15 5q-13 4 -22.5 16.5t-9.5 26.5q0 17 22.5 27t48.5 10q41 0 83.5 -5t78.5 -5t92.5 5t91.5 5q27 0 49.5 -10t22.5 -27q0 -14 -9 -26.5t-22 -16.5q-11 -3 -35 -9.5t-30.5 -8.5t-22 -7.5 t-19 -9t-12.5 -11.5t-10.5 -15.5t-5 -20t-4 -27t-0.5 -34.5v-441q0 -82 10 -108q14 -37 56 -56q10 -4 28.5 -11.5t31 -13t25.5 -12.5t20 -15t7 -17q0 -14 -22 -23.5t-43 -11.5q-4 0 -35.5 3t-80 6t-91.5 3q-42 0 -80 -3t-60 -6t-26 -3q-22 2 -45 12t-23 23q0 9 7 17t20.5 15 t26 12.5t31 13t28.5 11.5q15 7 23.5 18t12 30.5t4.5 31t0 42.5t-1 42v119q0 33 -27 33h-426q-28 0 -28 -39z" />
<glyph unicode="i" horiz-adv-x="565" d="M512 928q27 0 49.5 -10t22.5 -27q0 -14 -9 -26.5t-22 -16.5q-11 -3 -35 -9.5t-30.5 -8.5t-22 -7.5t-19 -9t-12.5 -11.5t-10.5 -15.5t-5 -20t-4 -27t-0.5 -34.5v-441v-14q0 -27 0.5 -40t3.5 -33.5t9.5 -32t19.5 -24t32 -20.5q10 -4 28.5 -11.5t31 -13t26 -12.5t20.5 -15 t7 -17q0 -14 -22.5 -23.5t-43.5 -11.5q-4 0 -35.5 3t-80 6t-91.5 3q-42 0 -86 -3t-72 -6t-32 -3q-22 2 -45 12t-23 23q0 9 7 17t20.5 15t26 12.5t31 13t28.5 11.5q10 5 18.5 10.5t15 10.5t11.5 14t8 13.5t5 17t3.5 16.5t2 19.5t0.5 19v21.5v22v441q0 76 -17 96t-89 39 q-19 5 -30 8q-13 4 -22.5 16.5t-9.5 26.5q0 17 22.5 27t48.5 10q41 0 96 -5t91 -5t92.5 5t91.5 5z" />
<glyph unicode="j" horiz-adv-x="602" d="M238 27v678q0 76 -17 96t-89 39q-19 5 -30 8q-13 4 -22.5 16.5t-9.5 26.5q0 17 22.5 27t48.5 10q41 0 96 -5t91 -5t92.5 5t91.5 5q27 0 49.5 -10t22.5 -27q0 -14 -9 -26.5t-22 -16.5q-11 -3 -35 -9.5t-30.5 -8.5t-22 -7.5t-19 -9t-12.5 -11.5t-10.5 -15.5t-5 -20t-4 -27 t-0.5 -34.5v-605q0 -94 -22.5 -182.5t-65.5 -162.5t-113.5 -118.5t-157.5 -44.5q-76 0 -149.5 32.5t-73.5 76.5q0 46 35 83.5t80 37.5q22 0 40.5 -19t30.5 -42.5t32.5 -42.5t45.5 -19q29 0 52 12t38 28.5t25 46.5t15.5 54t8 63t3 62t0.5 62z" />
<glyph unicode="k" horiz-adv-x="1107" d="M778 721l-137 -168q-20 -25 -18 -37t34 -53l207 -262q8 -9 15.5 -17.5t16.5 -16t15 -13t17.5 -12t16 -9.5t18.5 -9.5t17.5 -8t20 -9t19.5 -8.5q34 -13 47.5 -28.5t13.5 -38.5q0 -14 -22 -23.5t-43 -11.5q-3 0 -24.5 3t-59 6t-80.5 3q-42 0 -79 -3t-58 -6t-25 -3 q-22 2 -44.5 12t-22.5 23q0 22 16.5 35.5t56.5 27.5q14 5 15 23t-21 49l-131 166q-22 28 -47.5 44t-39 19.5t-23.5 3.5q-22 -2 -28.5 -7.5t-6.5 -24.5v-170q0 -74 49 -97q40 -18 59 -33t19 -36q0 -14 -22.5 -23.5t-43.5 -11.5q-3 0 -22.5 3t-55 6t-78.5 3q-42 0 -86 -3 t-72 -6t-32 -3q-22 2 -45 12t-23 23q0 9 7 17t20.5 15t26 12.5t31 13t28.5 11.5q10 5 18.5 10.5t15 10.5t11.5 14t8 13.5t5 17t3.5 16.5t2 19.5t0.5 19v21.5v22v441q0 76 -17 96t-89 39q-19 5 -30 8q-13 4 -22.5 16.5t-9.5 26.5q0 17 22.5 27t48.5 10q41 0 96 -5t91 -5t80 5 t79 5q27 0 49.5 -10t22.5 -27q0 -14 -9 -26.5t-22 -16.5q-79 -22 -92 -32q-20 -14 -22 -58v-53v-168q0 -26 3.5 -31.5t18.5 -5.5q42 0 125 101q4 5 6 7l138 168q17 20 8.5 41t-37.5 31q-13 5 -23 17.5t-10 25.5q0 17 22.5 27t49.5 10q8 0 48.5 -5t61.5 -5q26 0 83 5t81 5 q27 0 49.5 -10t22.5 -27q0 -14 -9 -26.5t-22 -16.5q-122 -35 -159 -52q-53 -27 -93 -75z" />
<glyph unicode="l" horiz-adv-x="989" d="M311 8q-42 0 -84 -3t-68 -6t-30 -3q-22 2 -45 12t-23 23q0 9 7 17t20.5 15t26 12.5t31 13t28.5 11.5q10 5 18.5 10.5t15 10.5t11.5 14t8 13.5t5 17t3.5 16.5t2 19.5t0.5 19v21.5v22v441q0 76 -17 96t-89 39q-19 5 -30 8q-13 4 -22.5 16.5t-9.5 26.5q0 17 22.5 27t48.5 10 q41 0 96 -5t91 -5t92.5 5t91.5 5q27 0 49.5 -10t22.5 -27q0 -14 -9 -26.5t-22 -16.5q-11 -3 -35 -9.5t-30.5 -8.5t-22 -7.5t-19 -9t-12.5 -11.5t-10.5 -15.5t-5 -20t-4 -27t-0.5 -34.5v-441q0 -82 21.5 -105.5t88.5 -23.5h176q38 0 74 42t55 89q7 17 22.5 31t29.5 14 q20 0 32.5 -19t12.5 -56q0 -13 -9.5 -48.5t-26.5 -80t-48 -78t-66 -33.5q-69 0 -233.5 6t-231.5 6z" />
<glyph unicode="m" horiz-adv-x="1476" d="M1028 94q13 4 20 16t9 29t1.5 31.5t-2 30.5t-1.5 20l-27 328q-3 31 -14 29q-7 -1 -13 -15l-153 -303q-6 -11 -35 -78.5t-52.5 -105t-43.5 -37.5q-45 0 -99 119l-6 12l-192 418q-14 30 -20 -11q-2 -12 -3 -30l-14 -264q-3 -57 18 -113.5t54 -69.5q8 -3 29 -11.5t32 -13 t25 -12t20 -15.5t6 -17q0 -14 -22 -23.5t-43 -11.5q-4 0 -35.5 3t-80 6t-91.5 3q-42 0 -83.5 -3t-67 -6t-29.5 -3q-22 2 -45 12t-23 23q0 36 103 69q15 5 30 13t33.5 22t32 36t16.5 48l49 412q3 30 3 54.5t-1.5 40.5t-8 29t-11 20t-15.5 13.5t-16.5 9t-19.5 7.5 q-25 9 -72.5 23t-67.5 20q-14 4 -23 16.5t-9 26.5q0 17 22.5 27t48.5 10q41 0 141 -5t136 -5q34 0 50 -10t26 -31l225 -476q47 -99 108 33l203 432q24 52 98 52q12 0 82.5 5t110.5 5q27 0 49.5 -10t22.5 -27q0 -14 -9 -26.5t-22 -16.5q-99 -28 -122 -43q-40 -26 -36 -89v-3 l27 -363q7 -99 20 -150t29.5 -69t50.5 -29q88 -28 88 -71q0 -14 -22 -23.5t-43 -11.5q-3 0 -23 3t-56 6t-79 3q-42 0 -86 -3t-72 -6t-32 -3q-22 2 -45 12t-23 23q0 34 90 63z" />
<glyph unicode="n" horiz-adv-x="1103" d="M850 705q0 108 -107 143q-13 5 -22.5 17.5t-9.5 25.5q0 37 55 37q14 0 65 -5t80 -5q27 0 69 5t60 5q25 0 42.5 -9.5t17.5 -27.5q0 -14 -9.5 -27t-21.5 -16q-42 -12 -71 -49.5t-29 -89.5v-367q0 -37 7 -116t7 -99q0 -147 -29 -147q-31 0 -70.5 33t-117.5 130l-358 449 q-6 7 -11 -11q-6 -24 -6 -79v-238q0 -82 10 -108q14 -37 56 -56q31 -14 44.5 -20.5t28.5 -20.5t15 -28t-22.5 -23.5t-43.5 -11.5q-3 0 -23.5 3t-57 6t-79.5 3q-42 0 -81 -3t-61.5 -6t-26.5 -3q-22 2 -45 12t-23 23q0 9 7 17t20.5 15t26 12.5t31 13t28.5 11.5q11 5 20.5 10.5 t16 14t11 14t7.5 18t5 17.5t2.5 21t0.5 20.5v24v24.5v381q0 102 -31 131q-53 49 -125 72q-14 4 -23 16.5t-9 26.5q0 17 22.5 27t48.5 10q41 0 97 -5t90 -5q27 0 55.5 -25t71.5 -78l360 -446q4 -4 11 -14q19 -26 22 -16q2 4 2 17v349z" />
<glyph unicode="o" horiz-adv-x="1146" d="M592 963q128 0 238 -55.5t177.5 -157t67.5 -226.5q0 -112 -44 -212.5t-118 -173.5t-175.5 -115.5t-213.5 -42.5q-186 0 -315 133.5t-129 322.5q0 142 67.5 263t185.5 192.5t259 71.5zM289 520q0 -81 18.5 -159t54 -144t95.5 -106.5t135 -40.5q67 0 120.5 36.5t85.5 95.5 t49 129t17 142q0 99 -38 188.5t-112.5 148t-168.5 58.5q-79 0 -139 -53t-88.5 -131t-28.5 -164z" />
<glyph unicode="p" horiz-adv-x="942" d="M414 705v-441v-14q0 -27 0.5 -40t3.5 -33.5t9.5 -32t19.5 -24t32 -20.5q10 -4 28.5 -11.5t31 -13t26 -12.5t20.5 -15t7 -17q0 -14 -22.5 -23.5t-43.5 -11.5q-4 0 -35.5 3t-80 6t-91.5 3q-42 0 -86 -3t-72 -6t-32 -3q-22 2 -45 12t-23 23q0 9 7 17t20.5 15t26 12.5t31 13 t28.5 11.5q10 5 18.5 10.5t15 10.5t11.5 14t8 13.5t5 17t3.5 16.5t2 19.5t0.5 19v21.5v22v441q0 76 -17 96t-89 39q-19 5 -30 8q-13 4 -22.5 16.5t-9.5 26.5q0 17 22.5 27t48.5 10q36 0 126.5 7t148.5 7q82 0 159.5 -16t145 -48t108.5 -89t41 -130q0 -77 -48 -148.5 t-116.5 -112t-132.5 -40.5q-24 0 -40.5 9t-16.5 24q0 16 6 25.5t13 12.5t20 7q44 12 78.5 68t34.5 141q0 93 -52.5 137.5t-132.5 44.5q-19 0 -27 -1t-18.5 -6.5t-14 -18.5t-6.5 -36t-3 -60z" />
<glyph unicode="q" horiz-adv-x="1198" d="M635 963q192 0 328.5 -135.5t136.5 -327.5q0 -78 -16 -155t-48.5 -148.5t-88 -127t-126.5 -81.5q-7 -3 -13 -8t-7 -9t2 -6q39 -20 136.5 -70.5t153 -78t151 -69t168.5 -64t165.5 -39.5t177.5 -17q59 0 103.5 10.5t70 21.5t39.5 11q35 0 35 -39q0 -30 -58.5 -62.5 t-141 -53.5t-152.5 -21q-109 0 -243.5 38.5t-245.5 87.5t-278.5 123t-289.5 118q-107 39 -170 82q-65 44 -109 78t-92.5 82t-77 95t-47 109.5t-18.5 132.5q0 145 78 266t205 189t272 68zM295 471q0 -87 21 -169.5t61 -150.5t106 -109.5t148 -41.5q72 0 124.5 39.5t80.5 106 t40.5 139.5t12.5 155q0 80 -20 155.5t-58 137t-99.5 98.5t-136.5 37q-68 0 -123 -35t-88.5 -92.5t-51 -127t-17.5 -142.5z" />
<glyph unicode="r" horiz-adv-x="1208" d="M557 932q120 0 208.5 -70t88.5 -182q0 -84 -47.5 -146.5t-128.5 -84.5q-25 -6 -4 -23q49 -41 102 -103t88 -110t77 -91.5t77 -58.5q19 -8 41 -16t35 -12t25 -10t17 -12.5t5 -16.5q0 -72 -144 -72q-39 0 -93 19.5t-91 56.5q-51 51 -130 153.5t-126 151.5q-45 47 -67 58 q-22 12 -46 12h-9h-8t-5 -1.5t-4.5 -4.5t-2 -9t-1.5 -14.5v-21.5v-60v-14q0 -27 0.5 -40t3.5 -33.5t9.5 -32t19.5 -24t32 -20.5q10 -4 28.5 -11.5t31 -13t26 -12.5t20.5 -15t7 -17q0 -14 -22.5 -23.5t-43.5 -11.5q-4 0 -35.5 3t-80 6t-91.5 3q-42 0 -86 -3t-72 -6t-32 -3 q-22 2 -45 12t-23 23q0 9 7 17t20.5 15t26 12.5t31 13t28.5 11.5q10 5 18.5 10.5t15 10.5t11.5 14t8 13.5t5 17t3.5 16.5t2 19.5t0.5 19v21.5v22v441q0 76 -17 96t-89 39q-19 5 -30 8q-13 4 -22.5 16.5t-9.5 26.5q0 17 22.5 27t48.5 10q41 0 96 -5t91 -5t113 7t116 7z M414 561q0 -74 67 -74q73 0 127 55t54 128q0 67 -53 111t-124 44q-32 0 -51.5 -17.5t-19.5 -49.5v-197z" />
<glyph unicode="s" horiz-adv-x="763" d="M436 963q33 0 58.5 -6t51.5 -16.5t42 -14.5q20 -6 33.5 -18.5t13.5 -24.5q0 -146 -33 -146q-36 0 -57 37q-19 32 -58.5 51t-89.5 19q-47 0 -80.5 -30t-33.5 -75q0 -33 11.5 -58t40.5 -48.5t57 -39.5t83 -44q128 -65 172.5 -128t44.5 -173q0 -87 -60.5 -150t-146.5 -90.5 t-182 -27.5q-74 0 -132 23.5t-67 47.5q-9 25 -18.5 74.5t-9.5 79.5q0 35 30 35q15 0 40 -25.5t50 -55.5t70 -55.5t96 -25.5q55 0 91 40t36 97q0 32 -14.5 61.5t-31.5 48.5t-53 42.5t-55 34t-63 32.5q-184 90 -184 264q0 81 52 143t130 92t166 30z" />
<glyph unicode="t" horiz-adv-x="1089" d="M453 702q0 61 -9 77t-34 16h-164q-17 0 -40.5 -28.5t-44 -56.5t-32.5 -28q-22 0 -35.5 13.5t-13.5 39.5q0 85 21.5 150t52.5 65q15 0 39 -13t59 -26.5t78 -13.5h440q48 0 94 14.5t77 28.5t42 14q43 0 43 -59q0 -30 -25.5 -107t-46.5 -77q-13 0 -25 13t-20 29t-25 29 t-40 13h-156q-36 0 -44 -6q-15 -13 -15 -82v-443v-14q0 -27 0.5 -40t3.5 -33.5t9.5 -32t19.5 -24t32 -20.5q10 -4 28.5 -11.5t31 -13t26 -12.5t20.5 -15t7 -17q0 -14 -22.5 -23.5t-43.5 -11.5q-3 0 -35 3t-80 6t-91 3q-42 0 -86.5 -3t-72.5 -6t-32 -3q-22 2 -45 12t-23 23 q0 9 7 17t20.5 15t26 12.5t31 13t28.5 11.5q10 5 18.5 10.5t15 10.5t11.5 14t8 13.5t5 17t3.5 16.5t2 19.5t0.5 19v21.5v22v438z" />
<glyph unicode="u" horiz-adv-x="1269" d="M238 705q0 76 -17 96t-89 39q-19 5 -30 8q-13 4 -22.5 16.5t-9.5 26.5q0 17 22.5 27t48.5 10q41 0 96 -5t91 -5t92.5 5t91.5 5q27 0 49.5 -10t22.5 -27q0 -14 -9 -26.5t-22 -16.5q-11 -3 -35 -9.5t-30.5 -8.5t-22 -7.5t-19 -9t-12.5 -11.5t-10.5 -15.5t-5 -20t-4 -27 t-0.5 -34.5v-338q0 -113 76.5 -196t185.5 -83q126 0 194 73t68 197v334q0 51 -33.5 95.5t-70.5 54.5q-20 6 -31.5 20t-11.5 29q0 17 22.5 27t48.5 10q18 0 57.5 -5t61.5 -5q21 0 70 5t69 5q27 0 49.5 -10t22.5 -27q0 -35 -35 -43q-69 -19 -93 -53.5t-24 -94.5v-282 q0 -186 -115 -314.5t-294 -128.5q-75 0 -139.5 24.5t-110.5 66.5t-78.5 99t-48.5 122.5t-16 136.5v281z" />
<glyph unicode="v" horiz-adv-x="1124" d="M852 592l-166 -361q-17 -37 -35 -91l-28 -84t-29.5 -53t-46.5 -23q-11 0 -21 7t-21 22.5t-19.5 31t-20.5 42.5t-19.5 46.5t-21 54t-21.5 54.5l-163 405q-69 169 -197 205q-14 5 -23.5 17.5t-9.5 25.5q0 17 22.5 27t49.5 10q26 0 92 -5t94 -5q29 0 97.5 5t87.5 5 q26 0 48.5 -10t22.5 -27q0 -14 -13 -28.5t-34 -20.5q-59 -16 -69.5 -34t10.5 -71l145 -360q30 -67 62 4l163 356q18 42 6 68.5t-49 36.5q-21 6 -32 20t-11 29q0 17 22.5 27t49.5 10q18 0 57.5 -5t61.5 -5q21 0 75 5t74 5q27 0 49.5 -10t22.5 -27q0 -34 -35 -43 q-73 -20 -120.5 -74.5t-106.5 -181.5z" />
<glyph unicode="w" horiz-adv-x="1566" d="M686 807q-36 28 -82 41q-14 5 -23.5 17.5t-9.5 25.5q0 17 22.5 27t49.5 10q26 0 92 -5t94 -5q29 0 97.5 5t87.5 5q26 0 48.5 -10t22.5 -27q0 -14 -13 -28.5t-34 -20.5q-83 -22 -103 -33q-42 -24 -26 -72l121 -360q32 -72 62 4l139 356q20 41 7 68t-50 37q-21 6 -32 20 t-11 29q0 17 22.5 27t49.5 10q18 0 57 -5t61 -5q21 0 75 5t75 5q26 0 48.5 -10t22.5 -27q0 -34 -34 -43q-70 -19 -114 -71.5t-114 -184.5l-141 -361q-12 -31 -26 -75t-23.5 -70.5t-22 -53.5t-29 -39.5t-38.5 -12.5q-18 0 -35.5 18.5t-39 65t-32.5 75.5t-37 99l-90 270 q-5 14 -9.5 19.5t-9.5 1.5t-9 -17l-90 -281q-6 -20 -16.5 -53.5t-16.5 -52.5t-15.5 -45.5t-18 -41.5t-19.5 -30t-24.5 -21.5t-29.5 -6.5q-11 0 -21 7t-20.5 22.5t-19.5 31t-20.5 42.5t-19.5 47t-21 53.5t-21 54.5l-139 405q-13 37 -34 73.5t-65 76.5t-98 55 q-14 5 -23.5 17.5t-9.5 25.5q0 17 22.5 27t49.5 10q26 0 92 -5t94 -5q29 0 97.5 5t87.5 5q26 0 48.5 -10t22.5 -27q0 -14 -13 -28.5t-34 -20.5q-59 -16 -68.5 -33.5t9.5 -71.5l121 -360q8 -19 18 -28.5t22 -3t21 35.5l115 356q6 17 -2.5 37t-26.5 33z" />
<glyph unicode="x" horiz-adv-x="1089" d="M301 657l-25.5 34t-24 31.5t-21 25t-25 25t-25.5 19.5t-32.5 21t-38 16.5t-48.5 18.5q-14 4 -23 16.5t-9 26.5q0 17 22.5 27t48.5 10t92.5 -5t94.5 -5q29 0 97 5t87 5q27 0 49.5 -10t22.5 -27q0 -14 -13 -28.5t-34 -20.5q-44 -13 -46.5 -36t31.5 -69l121 -167l137 167 q26 32 18 64t-44 41q-20 6 -31.5 20t-11.5 29q0 17 22.5 27t48.5 10q18 0 57.5 -5t61.5 -5q20 0 75 5t75 5q26 0 48.5 -10t22.5 -27q0 -35 -34 -43q-60 -17 -82.5 -26t-59.5 -41.5t-92 -102.5l-151 -191l204 -282q22 -30 50.5 -52.5t49 -32.5t60.5 -28q35 -14 48 -26.5 t13 -34.5q0 -14 -22 -23.5t-43 -11.5q-4 0 -25 3t-58.5 6t-80.5 3q-32 0 -93.5 -6t-68.5 -6q-22 0 -44.5 10.5t-22.5 24.5q0 22 16.5 35.5t56.5 27.5q10 7 2.5 26t-26.5 44l-133 174l-121 -154q-24 -30 -28.5 -54t18.5 -34q43 -13 65.5 -28t22.5 -37q0 -14 -22.5 -23.5 t-43.5 -11.5q-4 0 -26 3t-60.5 6t-81.5 3q-42 0 -83.5 -3t-67 -6t-29.5 -3q-22 2 -45 12t-23 23q0 32 117 67q43 14 89 40.5t65 49.5l190 233z" />
<glyph unicode="y" horiz-adv-x="1124" d="M768 678l-125 -170q-35 -47 -42 -71.5t-7 -71.5v-134q0 -68 6 -84q11 -26 59 -47q10 -4 28.5 -11.5t31 -13t26 -12.5t20.5 -15t7 -17q0 -14 -22 -23.5t-43 -11.5q-3 0 -35 3t-80.5 6t-91.5 3q-42 0 -86.5 -3t-72.5 -6t-32 -3q-22 2 -44.5 12t-22.5 23q0 9 7 17t20 15 t25.5 12.5t31 13t28.5 11.5q46 20 55 39t9 71v17v103q0 32 -14.5 74t-30.5 65l-123 188q-4 6 -18.5 29.5t-22.5 35t-26.5 33.5t-37 35.5t-47.5 30t-63 27.5q-14 4 -23.5 16.5t-9.5 26.5q0 17 22.5 27t49.5 10q26 0 92 -5t94 -5q29 0 97 5t87 5q27 0 49.5 -10t22.5 -27 q0 -14 -13 -28.5t-34 -20.5q-62 -15 -74 -35t15 -70l90 -147q15 -24 24 -33t22.5 -3.5t26 20.5t39.5 51l82 112q24 34 16.5 65t-42.5 40q-20 6 -31.5 20t-11.5 29q0 17 22.5 27t48.5 10q18 0 57.5 -5t61.5 -5q21 0 75 5t75 5q26 0 48.5 -10t22.5 -27q0 -35 -35 -43 q-49 -14 -63.5 -18.5t-44.5 -22.5t-55.5 -46.5t-69.5 -82.5z" />
<glyph unicode="z" horiz-adv-x="999" d="M700 133q37 0 73.5 43.5t55.5 89.5q6 18 21.5 31.5t30.5 13.5q20 0 32.5 -19t12.5 -56q0 -28 -35 -136t-55 -108q-55 0 -267.5 7t-263.5 7q-34 0 -95 -7t-75 -7q-24 0 -46.5 26t-22.5 48q0 13 13 32t41.5 53t47.5 60l414 539q25 32 19.5 47.5t-46.5 15.5h-240 q-23 0 -40.5 -6.5t-31.5 -21.5t-22.5 -27.5t-21.5 -36t-21 -35.5q-9 -13 -14.5 -20t-15 -13t-21.5 -6q-47 0 -47 62q0 16 18 89.5t33 108.5q22 51 53 51q6 0 59 -19.5t111 -18.5h334q26 0 91 8t79 8q28 0 39.5 -7.5t11.5 -27.5q0 -15 -3.5 -25.5t-6 -15t-12.5 -16.5 l-486 -621q-66 -90 -18 -90h317z" />
<glyph unicode="{" horiz-adv-x="763" d="M209 571q64 -17 140.5 -98t76.5 -172q0 -57 -13.5 -169.5t-13.5 -184.5q0 -106 66.5 -156.5t173.5 -50.5q53 0 53 -25q0 -13 -11.5 -21.5t-25.5 -8.5q-76 0 -146.5 16t-131.5 47t-98 85.5t-37 123.5q0 74 13 188.5t13 176.5q0 85 -52.5 144.5t-141.5 92.5q-23 9 -23 19 q0 5 3 7t10 3t10 2q89 33 141.5 92.5t52.5 144.5q0 61 -13 176t-13 189q0 69 37 123.5t98 85.5t131.5 47t146.5 16q14 0 25.5 -8.5t11.5 -21.5q0 -25 -53 -25q-107 0 -173.5 -50.5t-66.5 -156.5q0 -72 13.5 -184.5t13.5 -169.5q0 -63 -39 -121t-86 -92.5t-96 -54.5 q-9 -5 4 -9z" />
<glyph unicode="|" horiz-adv-x="321" d="M113 1176q0 30 24 51.5t51 21.5q13 0 17 -14t4 -59v-1561q0 -25 -23 -43t-49 -18q-14 0 -19 12.5t-5 44.5v1565z" />
<glyph unicode="}" horiz-adv-x="763" d="M557 571q10 5 4 9q-49 20 -96 54.5t-86 92.5t-39 121q0 57 13.5 169.5t13.5 184.5q0 106 -67.5 156.5t-174.5 50.5q-53 0 -53 25q0 13 11.5 21.5t25.5 8.5q76 0 146.5 -16t131.5 -47t98 -85.5t37 -123.5q0 -74 -13 -189t-13 -176q0 -85 52 -144.5t142 -92.5q3 -1 7.5 -2 t7.5 -1t5.5 -2.5t2.5 -6.5q0 -10 -23 -19q-90 -33 -142 -92.5t-52 -144.5q0 -62 13 -176.5t13 -188.5q0 -69 -37 -123.5t-98 -85.5t-131.5 -47t-146.5 -16q-14 0 -25.5 8.5t-11.5 21.5q0 25 53 25q107 0 174.5 50.5t67.5 156.5q0 72 -13.5 184.5t-13.5 169.5q0 91 76.5 172 t140.5 98z" />
<glyph unicode="~" horiz-adv-x="790" d="M494 362q-51 0 -114 34t-114 34q-27 0 -58 -22.5t-53.5 -45t-29.5 -22.5q-13 0 -28 10.5t-15 24.5q0 25 29.5 69t79.5 81.5t96 37.5q49 0 115.5 -32.5t115.5 -32.5q23 0 48 14t41.5 30t32.5 30t24 14q16 0 30.5 -10.5t14.5 -24.5q0 -22 -32 -66.5t-84.5 -83.5t-98.5 -39z " />
<glyph unicode="&#xa1;" horiz-adv-x="423" d="M178 -410q-41 0 -66.5 23t-25.5 70q0 120 10.5 253t22.5 191q40 207 76 207q16 0 29.5 -20t19.5 -58q13 -95 30 -272.5t17 -280.5q0 -45 -34 -79t-79 -34zM207 590q-46 0 -82.5 29.5t-36.5 72.5q0 54 35 95.5t86 41.5q45 0 77.5 -31t32.5 -75q0 -53 -31.5 -93t-80.5 -40z " />
<glyph unicode="&#xa3;" horiz-adv-x="1228" d="M459 999q37 210 156.5 313t304.5 103q59 0 100 -62t41 -147q0 -46 -24.5 -66t-78.5 -20q-40 0 -40 49q0 10 6 45.5t6 38.5q0 30 -32.5 53t-74.5 23q-70 0 -121 -60.5t-71 -148.5q-8 -34 -39 -273t-60 -321q-22 -63 -41.5 -99t-60.5 -87q-12 -14 -13 -25.5t10.5 -20.5 t30.5 -16.5t50 -15.5q49 -13 102.5 -40t90.5 -50t86 -41t96 -18q69 0 95 15.5t26 59.5q0 2 -6.5 34.5t-6.5 60.5q0 110 80 110q41 0 60.5 -36t19.5 -95q0 -54 -33 -107.5t-83 -92.5t-111 -63t-117 -24q-32 0 -60 2.5t-53.5 9.5t-44 12t-41 19.5t-34 21.5t-34.5 28t-31 28.5 t-34 34t-35 35.5q-28 34 -57 25.5t-82 -76.5q-49 -66 -73.5 -83.5t-75.5 -17.5q-30 0 -50 24t-20 60q0 77 162 185q41 29 57.5 47t24.5 41q30 82 51 165.5t30.5 138.5t25 158.5t26.5 165.5zM827 776q68 0 68 -24q0 -25 -19 -45.5t-45 -20.5h-544q-31 0 -83.5 -11t-68.5 -11 q-21 0 -29 4.5t-8 17.5q0 33 11.5 61.5t27.5 28.5h690z" />
<glyph unicode="&#xa4;" horiz-adv-x="989" d="M84 889q-6 6 -6 14q0 20 21.5 42t41.5 22q11 0 17 -6l92 -84q100 75 244 75q148 0 241 -75l94 86q6 6 17 6q19 0 40 -20.5t21 -41.5q0 -12 -8 -20l-84 -92q72 -96 72 -242t-72 -242l88 -96q6 -6 6 -14q0 -20 -21.5 -42t-41.5 -22q-11 0 -17 6l-94 86q-93 -75 -241 -75 q-149 0 -242 75l-96 -86q-6 -6 -17 -6q-20 0 -40.5 21t-20.5 41q0 10 6 16l88 96q-72 96 -72 242q0 147 72 240zM494 829q-121 0 -196 -77t-75 -199t75 -199.5t196 -77.5t195.5 77.5t74.5 199.5t-74.5 199t-195.5 77z" />
<glyph unicode="&#xa6;" horiz-adv-x="321" d="M113 236q0 30 24 51.5t51 21.5q13 0 17 -14t4 -59v-621q0 -25 -23 -43t-49 -18q-14 0 -19 12.5t-5 44.5v625zM113 1176q0 30 24 51.5t51 21.5q13 0 17 -14t4 -59v-621q0 -25 -23 -43t-49 -18q-14 0 -19 12.5t-5 44.5v625z" />
<glyph unicode="&#xa7;" horiz-adv-x="681" d="M545 1167q46 0 81.5 -29t35.5 -79q0 -25 -23.5 -45.5t-65.5 -20.5q-20 0 -40 12.5t-52 41.5q-21 18 -69 18q-46 0 -77.5 -40t-31.5 -89q0 -31 34.5 -83.5t83.5 -112.5t98 -127t83.5 -146t34.5 -150q0 -96 -36 -205t-95 -201t-146 -153t-180 -61q-56 0 -95.5 31t-39.5 82 q0 23 20 37t58 14q23 0 69 -35t78 -35q44 0 72.5 40.5t28.5 96.5q0 22 -33.5 70.5t-81.5 110t-96 129.5t-81.5 147.5t-33.5 146.5q0 78 20.5 163.5t63 169.5t100 151.5t140.5 109t176 41.5zM162 649q0 -47 35 -125t85 -156t101 -149.5t87.5 -116.5t39.5 -45q11 0 20 46t9 79 q0 37 -35 110t-85 151t-101.5 150t-88 118.5t-39.5 46.5q-28 0 -28 -109z" />
<glyph unicode="&#xa8;" horiz-adv-x="667" d="M510 1339q44 0 75 -32t31 -76q0 -45 -31 -77t-75 -32t-77.5 32.5t-33.5 76.5t33 76t78 32zM158 1339q44 0 77 -32t33 -76t-33 -76.5t-77 -32.5t-75.5 32.5t-31.5 76.5t31.5 76t75.5 32z" />
<glyph unicode="&#xa9;" horiz-adv-x="1386" d="M778 1165q-122 0 -235 -41t-199 -112t-138 -175t-52 -223t52 -223.5t138 -176t199 -112.5t235 -41q141 0 257 77.5t179.5 204t63.5 271.5t-63.5 271t-179.5 203t-257 77zM778 1237q161 0 293.5 -87t205.5 -229.5t73 -306.5q0 -123 -43.5 -236.5t-118.5 -199t-182 -137 t-228 -51.5q-136 0 -262.5 47t-222.5 128t-153.5 198.5t-57.5 250.5q0 177 98 321.5t257 223t341 78.5zM784 1022q106 0 230 -61q32 -14 46.5 -49.5t14.5 -110.5q0 -26 -10 -42t-27 -16q-22 0 -42.5 27t-30.5 61q-11 36 -75 70.5t-130 34.5q-113 0 -192 -81t-79 -196 q0 -92 34 -173t101.5 -134t153.5 -53q131 0 230 150q47 71 57 71q22 0 22 -57q0 -14 -10 -54t-22 -67q-17 -39 -94 -78q-111 -51 -216 -51q-115 0 -215.5 51t-162.5 143.5t-62 204.5q0 90 40.5 167.5t107 130t153 82.5t178.5 30z" />
<glyph unicode="&#xab;" horiz-adv-x="1310" d="M100 19zM864 444q-9 -9 -9 -14t9 -14q125 -125 230 -314q8 -12 8 -24q0 -10 -7 -24.5t-14 -14.5q-24 0 -61 37q-170 178 -348 297q-14 9 -25.5 27.5t-11.5 31.5q0 11 6 14q111 75 198.5 153.5t196.5 195.5q24 24 49 24q6 0 13.5 -15.5t7.5 -23.5q0 -12 -12 -32 q-89 -135 -132 -192t-98 -112zM434 444q-9 -9 -9 -14t9 -14q125 -125 230 -314q8 -12 8 -24q0 -10 -7 -24.5t-14 -14.5q-24 0 -61 37q-170 178 -348 297q-14 9 -25.5 27.5t-11.5 31.5q0 11 6 14q111 75 198.5 153.5t196.5 195.5q24 24 49 24q6 0 13.5 -15.5t7.5 -23.5 q0 -12 -12 -32q-89 -135 -132 -192t-98 -112z" />
<glyph unicode="&#xae;" />
<glyph unicode="&#xaf;" horiz-adv-x="593" d="M0 684zM100 1371h416q9 0 17.5 -8t8.5 -17q0 -38 -16.5 -69t-46.5 -31h-399q-11 0 -20 7.5t-9 16.5q0 26 12 63.5t37 37.5z" />
<glyph unicode="&#xb0;" horiz-adv-x="731" d="M365 1270q119 0 208 -67t89 -175q0 -130 -85.5 -223.5t-211.5 -93.5q-119 0 -200 87t-81 208q0 111 83.5 187.5t197.5 76.5zM201 989q0 -72 51 -122t123 -50q73 0 123.5 57t50.5 134q0 68 -55 110.5t-129 42.5q-68 0 -116 -51t-48 -121z" />
<glyph unicode="&#xb1;" horiz-adv-x="868" d="M195 0q-43 0 -76 13.5t-33 47.5q0 29 30.5 51.5t78.5 22.5h583q38 0 62 -16.5t24 -40.5q0 -27 -23 -51.5t-65 -24.5zM410 567h-215q-42 0 -75.5 14t-33.5 48q0 29 30.5 51t78.5 22h215v216q0 52 19.5 80t45.5 28q28 0 48 -20.5t20 -65.5v-238h235q38 0 62 -16.5t24 -40.5 q0 -27 -23 -51.5t-65 -24.5h-233v-239q0 -34 -15.5 -58t-50.5 -24q-67 0 -67 78v241z" />
<glyph unicode="&#xb2;" horiz-adv-x="636" d="M98 1300q-14 -11 -29.5 -0.5t-15.5 33.5q0 47 89 100.5t177 53.5q77 0 139 -37.5t62 -101.5q0 -24 -7.5 -48t-25.5 -49.5t-33.5 -45t-47.5 -49t-50.5 -45.5t-58.5 -49.5t-57 -47.5q-6 -6 11 -11q7 -2 13 -2h205q45 0 57 2.5t27 14.5q34 26 45 24q4 0 9 -6.5t5 -11.5 q0 -1 -1 -4t-1 -4q-3 -7 -8 -21.5t-6.5 -18.5t-5 -14.5l-4.5 -13.5t-3.5 -11t-3.5 -12.5t-3 -13t-3.5 -16t-3.5 -18.5q-4 -25 -24 -25h-412q-37 0 -61.5 12t-24.5 33q0 18 7.5 29.5t25.5 25.5l76 60q70 55 143.5 134t73.5 128q0 53 -32 79.5t-77 26.5q-17 0 -34.5 -4t-28 -7 t-29.5 -15t-23.5 -15t-27 -20.5t-23.5 -18.5z" />
<glyph unicode="&#xb3;" horiz-adv-x="614" d="M229 889q-135 0 -135 67q0 14 12.5 36t24.5 22q17 0 27 -10q72 -46 133 -46q13 0 30.5 5.5t39.5 19t36.5 44t14.5 71.5q0 52 -39.5 84t-98.5 32q-21 0 -75 -14q-6 -2 -15 1.5t-14 10t0 11.5q14 14 31.5 23t39 16.5t29.5 11.5q62 33 87.5 58.5t25.5 72.5q0 30 -32.5 53 t-63.5 23q-86 0 -148 -62q-12 -12 -16 -12q-5 0 -12.5 8.5t-4.5 14.5q31 59 84 103t127 44q83 0 132 -35.5t49 -109.5q0 -76 -121 -136q-6 -3 -6 -9.5t6 -6.5q60 0 100.5 -45.5t40.5 -108.5q0 -59 -29.5 -106.5t-74.5 -75t-93.5 -41.5t-91.5 -14z" />
<glyph unicode="&#xb4;" horiz-adv-x="423" d="M36 549zM132 1108q-40 -45 -62 -45q-12 0 -15 5t-3 21q0 21 59.5 145.5t95.5 186.5q9 15 25 26t31 11q43 0 76.5 -12t33.5 -35q0 -19 -87.5 -125.5t-153.5 -177.5z" />
<glyph unicode="&#xb5;" horiz-adv-x="1044" d="M860 158q33 0 67 20t56 40t27 20q8 0 15 -6t7 -13q0 -107 -63.5 -171t-137.5 -64q-50 0 -78 27t-59 102q-22 66 -26 110q-11 -25 -44.5 -76t-90.5 -105t-103 -54q-60 0 -107 16t-72.5 38t-43 44.5t-28.5 38.5t-19 16q-21 0 -21 -69q0 -67 25 -217q12 -69 43.5 -140 t56.5 -116t25 -58q0 -32 -19 -59t-47 -27q-87 0 -129 105q-13 35 -22 181.5t-9 272.5q0 14 7.5 83t7.5 106q0 31 -7.5 241t-7.5 258q0 74 26 125.5t81 51.5q45 0 70.5 -40.5t25.5 -113.5q0 -43 -31.5 -221t-31.5 -219q0 -48 41 -100t102 -52q80 0 127.5 30t85.5 101 q16 31 28 61t19 64t11.5 57t6 63t2 59t0 67.5t-0.5 66.5q0 64 33 117t83 53q32 0 53.5 -24t28 -51t6.5 -54q0 -34 -49 -186t-49 -211q0 -42 12.5 -83t43 -73t73.5 -32z" />
<glyph unicode="&#xb6;" horiz-adv-x="1200" d="M430 -375q0 -41 29 -72.5t69 -31.5q68 0 117 46t70.5 112t21.5 141v286q0 52 -26 52q-166 0 -305.5 64.5t-225.5 189t-86 284.5q0 103 41 192.5t111 154t162 110t196 67.5t211 21h287q16 0 23.5 -14t7.5 -31t-9 -43.5t-20 -26.5h-215q-15 0 -26 -11t-11 -25v-1211 q0 -106 -35.5 -202.5t-109 -162t-170.5 -65.5q-84 0 -144.5 57.5t-60.5 141.5q0 78 47.5 136t120.5 58q57 0 96 -38t39 -95q0 -42 -27.5 -72t-68.5 -30q-23 0 -53.5 23.5t-36.5 23.5q-9 0 -14 -9t-5 -20z" />
<glyph unicode="&#xb7;" horiz-adv-x="417" d="M209 889q53 0 90 -37.5t37 -89.5t-37 -89.5t-90 -37.5t-90 37.5t-37 89.5t37 89.5t90 37.5z" />
<glyph unicode="&#xb8;" horiz-adv-x="423" d="M40 0zM362 18q-56 -39 -87.5 -78t-31.5 -59q0 -13 26 -39.5t57 -53.5t57 -65.5t26 -72.5q0 -54 -44 -99.5t-105 -69.5t-119 -24q-70 0 -70 86q0 23 15.5 44.5t32.5 21.5q2 0 47.5 -30t70.5 -30q24 0 30.5 11t6.5 38q0 26 -26 57t-58 55t-58 51t-26 44q0 43 33 80.5 t141 132.5h82z" />
<glyph unicode="&#xbb;" horiz-adv-x="1310" d="M100 19zM876 414q9 9 9 14t-9 14q-122 122 -229 314q-8 12 -8 24q0 10 6.5 24.5t13.5 14.5q25 0 62 -37q170 -178 348 -297q14 -9 25.5 -27.5t11.5 -31.5q0 -11 -6 -14q-112 -75 -200 -154t-196 -195q-24 -24 -49 -24q-6 0 -13 15.5t-7 23.5q0 13 12 33 q89 135 131.5 191.5t97.5 111.5zM446 414q9 9 9 14t-9 14q-122 122 -229 314q-8 12 -8 24q0 10 6.5 24.5t13.5 14.5q25 0 62 -37q170 -178 348 -297q14 -9 25.5 -27.5t11.5 -31.5q0 -11 -6 -14q-112 -75 -200 -154t-196 -195q-24 -24 -49 -24q-6 0 -13 15.5t-7 23.5 q0 13 12 33q89 135 131.5 191.5t97.5 111.5z" />
<glyph unicode="&#xbf;" horiz-adv-x="544" d="M86 86q0 73 15.5 107t45.5 45q22 8 69.5 23.5t82.5 29.5q6 2 17.5 33t27.5 60.5t33 29.5q21 0 37 -60.5t16 -109.5q0 -102 -35 -115q-25 -10 -69 -24t-66 -23q-55 -24 -80.5 -57.5t-25.5 -85.5q0 -32 22 -63.5t47 -39.5q99 -27 152 -47q74 -26 74 -96q0 -148 -37 -148 q-91 0 -155.5 38.5t-101 112t-53 169t-16.5 221.5zM225 696q0 57 34 95t91 38q50 0 85.5 -33t35.5 -83q0 -53 -37 -88t-92 -35q-49 0 -83 29t-34 77z" />
<glyph unicode="&#xc0;" horiz-adv-x="1329" d="M20 0zM762 1331q-14 0 -37 18q-165 122 -266 209q-27 24 -27 39q0 19 50 33t81 14q38 0 56 -26q24 -35 48.5 -76t52 -90.5t44.5 -77.5q10 -17 10 -31q0 -12 -12 -12zM1071 8q-77 0 -165 -6t-109 -6q-23 0 -44.5 9.5t-21.5 25.5q0 14 15.5 23.5t49.5 21t46 16.5 q35 16 50.5 36t14 37t-5.5 36l-59 194q-8 25 -33 25h-342q-24 0 -33 -23l-78 -223q-13 -27 -4 -51t49 -35q38 -10 57 -25.5t19 -31.5q0 -35 -71 -35q-20 0 -84 6t-84 6q-28 0 -72 -6t-57 -6q-30 0 -49 9t-19 26q0 14 16.5 24t50.5 21t46 16t20 9t16 9.5t12.5 8.5t9.5 10.5 t7.5 10.5t7 14.5t6.5 16.5t8 21t9 25l313 866q9 22 17 45.5t12 34t8.5 20.5t9 13t11.5 4q23 2 54 32t34 30q10 0 18 -7t15.5 -23t12.5 -30.5t13.5 -42t15.5 -45.5l271 -764q48 -135 79.5 -183.5t102.5 -74.5q82 -30 82 -63t-59 -33q-21 0 -86.5 6t-102.5 6zM487 557 q-11 -25 -9 -34t28 -9h250q30 0 33.5 12t-11.5 62l-125 383q-8 28 -22 -6z" />
<glyph unicode="&#xc1;" horiz-adv-x="1329" d="M20 0zM615 1331q-13 0 -13 12q0 13 11 31q17 28 44.5 77.5t52 90.5t48.5 76q18 26 55 26q31 0 81 -14t50 -33q0 -16 -26 -39q-95 -81 -267 -209q-23 -18 -36 -18zM1071 8q-77 0 -165 -6t-109 -6q-23 0 -44.5 9.5t-21.5 25.5q0 14 15.5 23.5t49.5 21t46 16.5 q35 16 50.5 36t14 37t-5.5 36l-59 194q-8 25 -33 25h-342q-24 0 -33 -23l-78 -223q-13 -27 -4 -51t49 -35q38 -10 57 -25.5t19 -31.5q0 -35 -71 -35q-20 0 -84 6t-84 6q-28 0 -72 -6t-57 -6q-30 0 -49 9t-19 26q0 14 16.5 24t50.5 21t46 16t20 9t16 9.5t12.5 8.5t9.5 10.5 t7.5 10.5t7 14.5t6.5 16.5t8 21t9 25l313 866q9 22 17 45.5t12 34t8.5 20.5t9 13t11.5 4q23 2 54 32t34 30q10 0 18 -7t15.5 -23t12.5 -30.5t13.5 -42t15.5 -45.5l271 -764q48 -135 79.5 -183.5t102.5 -74.5q82 -30 82 -63t-59 -33q-21 0 -86.5 6t-102.5 6zM487 557 q-11 -25 -9 -34t28 -9h250q30 0 33.5 12t-11.5 62l-125 383q-8 28 -22 -6z" />
<glyph unicode="&#xc2;" horiz-adv-x="1329" d="M20 0zM420 1323q-31 0 -31 20q0 13 15 25l200 170q31 28 46.5 36.5t37.5 8.5t37.5 -8.5t46.5 -36.5l201 -170q12 -10 12 -25q0 -22 -28 -22q-20 0 -113.5 39t-134.5 63q-13 7 -20.5 7t-20.5 -7q-41 -24 -134.5 -62t-113.5 -38zM1071 8q-77 0 -165 -6t-109 -6 q-23 0 -44.5 9.5t-21.5 25.5q0 14 15.5 23.5t49.5 21t46 16.5q35 16 50.5 36t14 37t-5.5 36l-59 194q-8 25 -33 25h-342q-24 0 -33 -23l-78 -223q-13 -27 -4 -51t49 -35q38 -10 57 -25.5t19 -31.5q0 -35 -71 -35q-20 0 -84 6t-84 6q-28 0 -72 -6t-57 -6q-30 0 -49 9t-19 26 q0 14 16.5 24t50.5 21t46 16t20 9t16 9.5t12.5 8.5t9.5 10.5t7.5 10.5t7 14.5t6.5 16.5t8 21t9 25l313 866q9 22 17 45.5t12 34t8.5 20.5t9 13t11.5 4q23 2 54 32t34 30q10 0 18 -7t15.5 -23t12.5 -30.5t13.5 -42t15.5 -45.5l271 -764q48 -135 79.5 -183.5t102.5 -74.5 q82 -30 82 -63t-59 -33q-21 0 -86.5 6t-102.5 6zM487 557q-11 -25 -9 -34t28 -9h250q30 0 33.5 12t-11.5 62l-125 383q-8 28 -22 -6z" />
<glyph unicode="&#xc3;" horiz-adv-x="1329" d="M20 0zM811 1380q-25 0 -126.5 5t-127.5 5q-23 0 -66.5 -25.5t-50.5 -25.5q-13 0 -23 10.5t-10 24.5q0 34 66.5 86.5t105.5 52.5q26 0 122 -4t122 -4q24 0 46.5 12.5t35 27.5t25 27.5t20.5 12.5q15 0 25 -10t10 -25q0 -33 -67.5 -101.5t-106.5 -68.5zM1071 8 q-77 0 -165 -6t-109 -6q-23 0 -44.5 9.5t-21.5 25.5q0 14 15.5 23.5t49.5 21t46 16.5q35 16 50.5 36t14 37t-5.5 36l-59 194q-8 25 -33 25h-342q-24 0 -33 -23l-78 -223q-13 -27 -4 -51t49 -35q38 -10 57 -25.5t19 -31.5q0 -35 -71 -35q-20 0 -84 6t-84 6q-28 0 -72 -6 t-57 -6q-30 0 -49 9t-19 26q0 14 16.5 24t50.5 21t46 16t20 9t16 9.5t12.5 8.5t9.5 10.5t7.5 10.5t7 14.5t6.5 16.5t8 21t9 25l313 866q9 22 17 45.5t12 34t8.5 20.5t9 13t11.5 4q23 2 54 32t34 30q10 0 18 -7t15.5 -23t12.5 -30.5t13.5 -42t15.5 -45.5l271 -764 q48 -135 79.5 -183.5t102.5 -74.5q82 -30 82 -63t-59 -33q-21 0 -86.5 6t-102.5 6zM487 557q-11 -25 -9 -34t28 -9h250q30 0 33.5 12t-11.5 62l-125 383q-8 28 -22 -6z" />
<glyph unicode="&#xc4;" horiz-adv-x="1329" d="M20 0zM885 1556q43 0 76.5 -33.5t33.5 -76.5t-33.5 -77t-76.5 -34t-77 34t-34 77t34 76.5t77 33.5zM502 1556q43 0 76.5 -33.5t33.5 -76.5t-33.5 -77t-76.5 -34t-77 34t-34 77t34 76.5t77 33.5zM1071 8q-77 0 -165 -6t-109 -6q-23 0 -44.5 9.5t-21.5 25.5q0 14 15.5 23.5 t49.5 21t46 16.5q35 16 50.5 36t14 37t-5.5 36l-59 194q-8 25 -33 25h-342q-24 0 -33 -23l-78 -223q-13 -27 -4 -51t49 -35q38 -10 57 -25.5t19 -31.5q0 -35 -71 -35q-20 0 -84 6t-84 6q-28 0 -72 -6t-57 -6q-30 0 -49 9t-19 26q0 14 16.5 24t50.5 21t46 16t20 9t16 9.5 t12.5 8.5t9.5 10.5t7.5 10.5t7 14.5t6.5 16.5t8 21t9 25l313 866q9 22 17 45.5t12 34t8.5 20.5t9 13t11.5 4q23 2 54 32t34 30q10 0 18 -7t15.5 -23t12.5 -30.5t13.5 -42t15.5 -45.5l271 -764q48 -135 79.5 -183.5t102.5 -74.5q82 -30 82 -63t-59 -33q-21 0 -86.5 6 t-102.5 6zM487 557q-11 -25 -9 -34t28 -9h250q30 0 33.5 12t-11.5 62l-125 383q-8 28 -22 -6z" />
<glyph unicode="&#xc5;" horiz-adv-x="1329" d="M20 0zM688 1596q68 0 119 -38t51 -100q0 -69 -55.5 -113t-130.5 -44q-69 0 -119.5 39t-50.5 102q0 68 56 111t130 43zM596 1448q0 -43 25.5 -68.5t68.5 -25.5q36 0 55 26.5t19 67.5t-24.5 66.5t-65.5 25.5q-38 0 -58 -25t-20 -67zM1071 8q-77 0 -165 -6t-109 -6 q-23 0 -44.5 9.5t-21.5 25.5q0 14 15.5 23.5t49.5 21t46 16.5q35 16 50.5 36t14 37t-5.5 36l-59 194q-8 25 -33 25h-342q-24 0 -33 -23l-78 -223q-13 -27 -4 -51t49 -35q38 -10 57 -25.5t19 -31.5q0 -35 -71 -35q-20 0 -84 6t-84 6q-28 0 -72 -6t-57 -6q-30 0 -49 9t-19 26 q0 14 16.5 24t50.5 21t46 16t20 9t16 9.5t12.5 8.5t9.5 10.5t7.5 10.5t7 14.5t6.5 16.5t8 21t9 25l313 866q9 22 17 45.5t12 34t8.5 20.5t9 13t11.5 4q23 2 54 32t34 30q10 0 18 -7t15.5 -23t12.5 -30.5t13.5 -42t15.5 -45.5l271 -764q48 -135 79.5 -183.5t102.5 -74.5 q82 -30 82 -63t-59 -33q-21 0 -86.5 6t-102.5 6zM487 557q-11 -25 -9 -34t28 -9h250q30 0 33.5 12t-11.5 62l-125 383q-8 28 -22 -6z" />
<glyph unicode="&#xc6;" horiz-adv-x="1816" d="M641 1139q-23 3 -36 14t-13 25q0 32 72 32h696q49 0 140.5 5.5t103.5 5.5q47 0 53 -29q5 -23 11.5 -85.5t6.5 -82.5q0 -53 -33 -53q-18 0 -38.5 23t-34.5 55q-13 29 -55 48t-111 19h-213q-39 0 -51.5 -10.5t-12.5 -32.5v-385q0 -63 48 -63h145q31 0 54.5 8t35 17.5 t35.5 31.5q7 6 20 21t23 22.5t20 7.5q23 0 23 -41q0 -6 -4 -54t-4 -65t1 -61t1 -55q0 -19 -7 -36.5t-20 -17.5q-8 0 -16 6t-15.5 16.5t-13 19t-12 21t-8.5 15.5q-9 14 -16 22t-21.5 14.5t-34.5 6.5h-184q-29 0 -39.5 -10t-10.5 -39v-188q0 -85 36 -140t106 -55h192 q45 0 78.5 8t55.5 21t41.5 38.5t32 49t32.5 65.5q3 6 4 9q7 17 24 28t31 11q29 0 29 -52q0 -38 -30.5 -122.5t-47.5 -112.5q-13 -25 -21.5 -32t-33.5 -7q-20 0 -263.5 5t-369.5 5q-42 0 -96.5 -2.5t-92.5 -5t-42 -2.5q-22 2 -45 12t-23 23q0 14 16.5 24t50.5 21t46 16 q96 43 96 170v213q0 20 -7 34.5t-18 14.5h-289q-14 0 -30.5 -13.5t-24.5 -29.5l-180 -307q-10 -16 -14 -25.5t-6 -23t7.5 -22.5t30.5 -15q38 -10 57 -25.5t19 -31.5q0 -35 -71 -35q-20 0 -84 6t-84 6q-28 0 -72 -6t-57 -6q-30 0 -49 9t-19 26q0 14 16.5 24t50.5 21t46 16 q48 22 66.5 42t55.5 83l486 813q32 53 1 76t-122 33zM668 664q-13 -23 -9 -31t31 -8h217q16 0 20.5 11.5t4.5 35.5v348q0 57 -19 54q-11 -3 -22 -23z" />
<glyph unicode="&#xc7;" horiz-adv-x="1386" d="M46 0zM665 -236q0 14 13 31l163 221h64l-84 -127q-7 -9 1 -18.5t19 -13.5q53 -23 94.5 -70.5t41.5 -112.5q0 -49 -28.5 -95t-70 -76t-86.5 -48t-80 -18q-49 0 -70.5 19t-21.5 46q0 33 10 51.5t23 18.5q4 0 16 -7t40.5 -13.5t72.5 -6.5q32 0 59 20t27 60q0 44 -23.5 77.5 t-72.5 33.5q-13 0 -29 -3t-24 -3q-24 0 -39 11.5t-15 22.5zM836 1245q69 0 154 -19.5t151.5 -40.5t81.5 -22q61 -5 61 -225q0 -26 -10 -41.5t-27 -15.5q-23 0 -42 31t-40 98q-20 63 -135.5 103t-234.5 40q-198 0 -334.5 -146t-136.5 -358q0 -117 41.5 -224.5t114 -189 t177.5 -130t224 -48.5q50 0 91.5 12.5t69.5 29.5t57.5 50t46.5 58.5t47 72t50 74.5q11 17 37 17q13 0 23 -16t10 -42q0 -16 -82 -194q-26 -53 -41.5 -70.5t-52.5 -30.5q-62 -22 -158 -36.5t-182 -14.5q-130 0 -255.5 42.5t-225.5 118t-161 189.5t-61 246q0 196 101.5 353.5 t270.5 243t370 85.5z" />
<glyph unicode="&#xc8;" horiz-adv-x="1165" d="M20 0zM700 1331q-14 0 -37 18q-165 122 -266 209q-27 24 -27 39q0 19 50 33t81 14q38 0 56 -26q24 -35 48.5 -76t52 -90.5t44.5 -77.5q10 -17 10 -31q0 -12 -12 -12zM444 729q0 -63 48 -63h176q31 0 54.5 8t35 17.5t35.5 31.5q7 6 20 21t23 22.5t20 7.5q23 0 23 -41 q0 -6 -4.5 -54t-4.5 -65q0 -16 1 -61t1 -55q0 -19 -6.5 -36.5t-19.5 -17.5q-8 0 -16 5.5t-16 16.5t-13 19.5t-12 21t-9 15.5q-9 14 -15.5 22t-21 14.5t-34.5 6.5h-215q-29 0 -39.5 -10t-10.5 -39v-229q0 -85 36 -140t106 -55h223q45 0 78.5 8t55.5 21t41.5 38.5t32 49 t32.5 65.5q3 6 4 9q7 17 24 28t31 11q29 0 29 -52q0 -38 -30.5 -122.5t-47.5 -112.5q-13 -25 -21.5 -32t-33.5 -7q-20 0 -279 5t-385 5q-42 0 -96.5 -2.5t-92.5 -5t-42 -2.5q-22 2 -45 12t-23 23q0 14 16.5 24t50.5 21t46 16q96 43 96 172v723q0 18 -2 32t-4 25.5t-8.5 21 t-10.5 16t-15.5 13t-17.5 10t-22.5 9t-24.5 8t-30 8.5l-33 9q-33 11 -33 35q0 36 72 36h588q49 0 140 5.5t103 5.5q48 0 54 -29q5 -23 11.5 -85.5t6.5 -82.5q0 -53 -33 -53q-18 0 -38.5 23t-34.5 55q-13 29 -55 48t-111 19h-244q-39 0 -51.5 -10.5t-12.5 -32.5v-344z" />
<glyph unicode="&#xc9;" horiz-adv-x="1165" d="M20 0zM553 1331q-13 0 -13 12q0 13 11 31q17 28 44.5 77.5t52 90.5t48.5 76q18 26 55 26q31 0 81 -14t50 -33q0 -16 -26 -39q-95 -81 -267 -209q-23 -18 -36 -18zM444 729q0 -63 48 -63h176q31 0 54.5 8t35 17.5t35.5 31.5q7 6 20 21t23 22.5t20 7.5q23 0 23 -41 q0 -6 -4.5 -54t-4.5 -65q0 -16 1 -61t1 -55q0 -19 -6.5 -36.5t-19.5 -17.5q-8 0 -16 5.5t-16 16.5t-13 19.5t-12 21t-9 15.5q-9 14 -15.5 22t-21 14.5t-34.5 6.5h-215q-29 0 -39.5 -10t-10.5 -39v-229q0 -85 36 -140t106 -55h223q45 0 78.5 8t55.5 21t41.5 38.5t32 49 t32.5 65.5q3 6 4 9q7 17 24 28t31 11q29 0 29 -52q0 -38 -30.5 -122.5t-47.5 -112.5q-13 -25 -21.5 -32t-33.5 -7q-20 0 -279 5t-385 5q-42 0 -96.5 -2.5t-92.5 -5t-42 -2.5q-22 2 -45 12t-23 23q0 14 16.5 24t50.5 21t46 16q96 43 96 172v723q0 18 -2 32t-4 25.5t-8.5 21 t-10.5 16t-15.5 13t-17.5 10t-22.5 9t-24.5 8t-30 8.5l-33 9q-33 11 -33 35q0 36 72 36h588q49 0 140 5.5t103 5.5q48 0 54 -29q5 -23 11.5 -85.5t6.5 -82.5q0 -53 -33 -53q-18 0 -38.5 23t-34.5 55q-13 29 -55 48t-111 19h-244q-39 0 -51.5 -10.5t-12.5 -32.5v-344z" />
<glyph unicode="&#xca;" horiz-adv-x="1165" d="M20 0zM358 1323q-31 0 -31 20q0 13 15 25l200 170q31 28 46.5 36.5t37.5 8.5t37.5 -8.5t46.5 -36.5l201 -170q12 -10 12 -25q0 -22 -28 -22q-20 0 -113.5 39t-134.5 63q-13 7 -20.5 7t-20.5 -7q-41 -24 -134.5 -62t-113.5 -38zM444 729q0 -63 48 -63h176q31 0 54.5 8 t35 17.5t35.5 31.5q7 6 20 21t23 22.5t20 7.5q23 0 23 -41q0 -6 -4.5 -54t-4.5 -65q0 -16 1 -61t1 -55q0 -19 -6.5 -36.5t-19.5 -17.5q-8 0 -16 5.5t-16 16.5t-13 19.5t-12 21t-9 15.5q-9 14 -15.5 22t-21 14.5t-34.5 6.5h-215q-29 0 -39.5 -10t-10.5 -39v-229 q0 -85 36 -140t106 -55h223q45 0 78.5 8t55.5 21t41.5 38.5t32 49t32.5 65.5q3 6 4 9q7 17 24 28t31 11q29 0 29 -52q0 -38 -30.5 -122.5t-47.5 -112.5q-13 -25 -21.5 -32t-33.5 -7q-20 0 -279 5t-385 5q-42 0 -96.5 -2.5t-92.5 -5t-42 -2.5q-22 2 -45 12t-23 23 q0 14 16.5 24t50.5 21t46 16q96 43 96 172v723q0 18 -2 32t-4 25.5t-8.5 21t-10.5 16t-15.5 13t-17.5 10t-22.5 9t-24.5 8t-30 8.5l-33 9q-33 11 -33 35q0 36 72 36h588q49 0 140 5.5t103 5.5q48 0 54 -29q5 -23 11.5 -85.5t6.5 -82.5q0 -53 -33 -53q-18 0 -38.5 23 t-34.5 55q-13 29 -55 48t-111 19h-244q-39 0 -51.5 -10.5t-12.5 -32.5v-344z" />
<glyph unicode="&#xcb;" horiz-adv-x="1165" d="M20 0zM823 1556q43 0 76.5 -33.5t33.5 -76.5t-33.5 -77t-76.5 -34t-77 34t-34 77t34 76.5t77 33.5zM440 1556q43 0 76.5 -33.5t33.5 -76.5t-33.5 -77t-76.5 -34t-77 34t-34 77t34 76.5t77 33.5zM444 729q0 -63 48 -63h176q31 0 54.5 8t35 17.5t35.5 31.5q7 6 20 21 t23 22.5t20 7.5q23 0 23 -41q0 -6 -4.5 -54t-4.5 -65q0 -16 1 -61t1 -55q0 -19 -6.5 -36.5t-19.5 -17.5q-8 0 -16 5.5t-16 16.5t-13 19.5t-12 21t-9 15.5q-9 14 -15.5 22t-21 14.5t-34.5 6.5h-215q-29 0 -39.5 -10t-10.5 -39v-229q0 -85 36 -140t106 -55h223q45 0 78.5 8 t55.5 21t41.5 38.5t32 49t32.5 65.5q3 6 4 9q7 17 24 28t31 11q29 0 29 -52q0 -38 -30.5 -122.5t-47.5 -112.5q-13 -25 -21.5 -32t-33.5 -7q-20 0 -279 5t-385 5q-42 0 -96.5 -2.5t-92.5 -5t-42 -2.5q-22 2 -45 12t-23 23q0 14 16.5 24t50.5 21t46 16q96 43 96 172v723 q0 18 -2 32t-4 25.5t-8.5 21t-10.5 16t-15.5 13t-17.5 10t-22.5 9t-24.5 8t-30 8.5l-33 9q-33 11 -33 35q0 36 72 36h588q49 0 140 5.5t103 5.5q48 0 54 -29q5 -23 11.5 -85.5t6.5 -82.5q0 -53 -33 -53q-18 0 -38.5 23t-34.5 55q-13 29 -55 48t-111 19h-244 q-39 0 -51.5 -10.5t-12.5 -32.5v-344z" />
<glyph unicode="&#xcc;" horiz-adv-x="694" d="M20 0zM422 1331q-14 0 -37 18q-165 122 -266 209q-27 24 -27 39q0 19 50 33t81 14q38 0 56 -26q24 -35 48.5 -76t52 -90.5t44.5 -77.5q10 -17 10 -31q0 -12 -12 -12zM573 1210q27 0 49.5 -9.5t22.5 -26.5q0 -25 -31 -35q-10 -3 -36 -10t-33.5 -9t-26 -8.5t-24 -11 t-17.5 -12.5t-15.5 -17t-9 -21.5t-7 -28t-1.5 -34.5v-723q0 -129 97 -172q12 -5 46 -16t50 -21t16 -24t-22 -23.5t-43 -11.5q-3 0 -45.5 3t-101 6t-101.5 3q-42 0 -96.5 -3t-92.5 -6t-42 -3q-22 2 -45 12t-23 23q0 14 16.5 24t50.5 21t46 16q96 43 96 172v723q0 18 -2 32 t-4 25.5t-8.5 21t-10.5 16t-15.5 13t-17.5 10t-22.5 9t-24.5 8t-30 8.5l-33 9q-33 11 -33 35q0 17 22.5 26.5t49.5 9.5q41 0 116 -5t111 -5t113 5t112 5z" />
<glyph unicode="&#xcd;" horiz-adv-x="694" d="M20 0zM275 1331q-13 0 -13 12q0 13 11 31q17 28 44.5 77.5t52 90.5t48.5 76q18 26 55 26q31 0 81 -14t50 -33q0 -16 -26 -39q-95 -81 -267 -209q-23 -18 -36 -18zM573 1210q27 0 49.5 -9.5t22.5 -26.5q0 -25 -31 -35q-10 -3 -36 -10t-33.5 -9t-26 -8.5t-24 -11 t-17.5 -12.5t-15.5 -17t-9 -21.5t-7 -28t-1.5 -34.5v-723q0 -129 97 -172q12 -5 46 -16t50 -21t16 -24t-22 -23.5t-43 -11.5q-3 0 -45.5 3t-101 6t-101.5 3q-42 0 -96.5 -3t-92.5 -6t-42 -3q-22 2 -45 12t-23 23q0 14 16.5 24t50.5 21t46 16q96 43 96 172v723q0 18 -2 32 t-4 25.5t-8.5 21t-10.5 16t-15.5 13t-17.5 10t-22.5 9t-24.5 8t-30 8.5l-33 9q-33 11 -33 35q0 17 22.5 26.5t49.5 9.5q41 0 116 -5t111 -5t113 5t112 5z" />
<glyph unicode="&#xce;" horiz-adv-x="694" d="M20 0zM80 1323q-31 0 -31 20q0 13 15 25l200 170q31 28 46.5 36.5t37.5 8.5t37.5 -8.5t46.5 -36.5l201 -170q12 -10 12 -25q0 -22 -28 -22q-20 0 -113.5 39t-134.5 63q-13 7 -20.5 7t-20.5 -7q-41 -24 -134.5 -62t-113.5 -38zM573 1210q27 0 49.5 -9.5t22.5 -26.5 q0 -25 -31 -35q-10 -3 -36 -10t-33.5 -9t-26 -8.5t-24 -11t-17.5 -12.5t-15.5 -17t-9 -21.5t-7 -28t-1.5 -34.5v-723q0 -129 97 -172q12 -5 46 -16t50 -21t16 -24t-22 -23.5t-43 -11.5q-3 0 -45.5 3t-101 6t-101.5 3q-42 0 -96.5 -3t-92.5 -6t-42 -3q-22 2 -45 12t-23 23 q0 14 16.5 24t50.5 21t46 16q96 43 96 172v723q0 18 -2 32t-4 25.5t-8.5 21t-10.5 16t-15.5 13t-17.5 10t-22.5 9t-24.5 8t-30 8.5l-33 9q-33 11 -33 35q0 17 22.5 26.5t49.5 9.5q41 0 116 -5t111 -5t113 5t112 5z" />
<glyph unicode="&#xcf;" horiz-adv-x="694" d="M20 0zM545 1556q43 0 76.5 -33.5t33.5 -76.5t-33.5 -77t-76.5 -34t-77 34t-34 77t34 76.5t77 33.5zM162 1556q43 0 76.5 -33.5t33.5 -76.5t-33.5 -77t-76.5 -34t-77 34t-34 77t34 76.5t77 33.5zM573 1210q27 0 49.5 -9.5t22.5 -26.5q0 -25 -31 -35q-10 -3 -36 -10 t-33.5 -9t-26 -8.5t-24 -11t-17.5 -12.5t-15.5 -17t-9 -21.5t-7 -28t-1.5 -34.5v-723q0 -129 97 -172q12 -5 46 -16t50 -21t16 -24t-22 -23.5t-43 -11.5q-3 0 -45.5 3t-101 6t-101.5 3q-42 0 -96.5 -3t-92.5 -6t-42 -3q-22 2 -45 12t-23 23q0 14 16.5 24t50.5 21t46 16 q96 43 96 172v723q0 18 -2 32t-4 25.5t-8.5 21t-10.5 16t-15.5 13t-17.5 10t-22.5 9t-24.5 8t-30 8.5l-33 9q-33 11 -33 35q0 17 22.5 26.5t49.5 9.5q41 0 116 -5t111 -5t113 5t112 5z" />
<glyph unicode="&#xd0;" horiz-adv-x="1386" d="M522 1212h158q76 -4 240 -49q60 -3 184 -80q0 -3 10.5 -13t43.5 -40t61 -57q14 -27 65 -99q62 -141 62 -217v-14q-12 -221 -35 -221q-24 -91 -76 -170q-12 -42 -152 -131q-23 -31 -133 -68q-28 -32 -162 -49q-58 -4 -69 -4h-21q-355 14 -366 14l-221 -51h-13 q-28 3 -28 31v4q0 50 82 80q88 76 88 184v47q0 42 14 217q-10 92 -10 109q2 32 4 61t3 43t1 17q0 315 -41 315q-9 22 -113 49q-20 8 -28 25v8q0 37 118 37q0 6 23 6q19 -2 35.5 -4t25 -3t9.5 -1q151 24 241 24zM446 1061v-39q-12 -225 -12 -260q2 -147 2 -322 q0 -240 105 -311q85 -63 217 -63q88 0 196 81q94 109 107 197q47 74 47 180q4 4 4 78q0 3 -51 178q-16 86 -72 133q-92 109 -160 138q-116 73 -204 73q-40 0 -52 2q-127 0 -127 -65z" />
<glyph unicode="&#xd1;" horiz-adv-x="1402" d="M13 0zM832 1380q-25 0 -126.5 5t-127.5 5q-23 0 -66.5 -25.5t-50.5 -25.5q-13 0 -23 10.5t-10 24.5q0 34 66.5 86.5t105.5 52.5q26 0 122 -4t122 -4q24 0 46.5 12.5t35 27.5t25 27.5t20.5 12.5q15 0 25 -10t10 -25q0 -33 -67.5 -101.5t-106.5 -68.5zM342 264 q0 -129 96 -172q12 -5 46 -16t50.5 -21t16.5 -24t-22.5 -23.5t-43.5 -11.5q-4 0 -34.5 3t-77.5 6t-90 3q-42 0 -86 -3t-71.5 -6t-31.5 -3q-22 2 -44.5 12t-22.5 23q0 14 16 24t50 21t46 16q97 43 97 172v535q0 144 -29 178l-76 84q-12 13 -29.5 32t-27 29.5t-19.5 22.5 t-14 19.5t-4 13.5q0 22 31 22h198q45 0 109 -74l543 -608q67 -75 104 -113.5t51 -49.5t23 -11q12 0 15 25t3 118v500q0 20 -1.5 35.5t-7 28t-9 21.5t-14.5 17t-17 12t-24 10.5t-26.5 9t-32.5 9t-36 9.5q-33 11 -33 35q0 17 22.5 26.5t49.5 9.5q41 0 95.5 -5t90.5 -5t93 5 t92 5q27 0 49 -9.5t22 -26.5q0 -25 -30 -35q-12 -4 -36 -10t-33 -9t-26.5 -8.5t-24 -10t-17.5 -12.5t-15 -17t-9.5 -21.5t-7 -28t-1.5 -35.5v-817q0 -53 3 -99.5t3 -68.5q0 -25 -41 -25q-21 0 -71 32.5t-103 90.5l-602 670q-44 49 -60 49q-9 0 -11.5 -27t-2.5 -112v-416z " />
<glyph unicode="&#xd2;" horiz-adv-x="1372" d="M34 0zM782 1331q-14 0 -37 18q-165 122 -266 209q-27 24 -27 39q0 19 50 33t81 14q38 0 56 -26q24 -35 48.5 -76t52 -90.5t44.5 -77.5q10 -17 10 -31q0 -12 -12 -12zM766 1225q137 0 267 -84.5t211 -222t81 -283.5q0 -174 -78 -325t-219 -243t-311 -92 q-182 0 -329.5 78.5t-232.5 223t-85 327.5q0 190 89.5 332t246.5 215.5t360 73.5zM299 676q0 -109 30.5 -215.5t85 -194t141 -142t189.5 -54.5q88 0 157 44t110.5 117t62.5 160t21 182q0 102 -27 199.5t-76.5 178t-129 130t-175.5 49.5q-109 0 -199.5 -66.5t-140 -170.5 t-49.5 -217z" />
<glyph unicode="&#xd3;" horiz-adv-x="1372" d="M34 0zM635 1331q-13 0 -13 12q0 13 11 31q17 28 44.5 77.5t52 90.5t48.5 76q18 26 55 26q31 0 81 -14t50 -33q0 -16 -26 -39q-95 -81 -267 -209q-23 -18 -36 -18zM766 1225q137 0 267 -84.5t211 -222t81 -283.5q0 -174 -78 -325t-219 -243t-311 -92q-182 0 -329.5 78.5 t-232.5 223t-85 327.5q0 190 89.5 332t246.5 215.5t360 73.5zM299 676q0 -109 30.5 -215.5t85 -194t141 -142t189.5 -54.5q88 0 157 44t110.5 117t62.5 160t21 182q0 102 -27 199.5t-76.5 178t-129 130t-175.5 49.5q-109 0 -199.5 -66.5t-140 -170.5t-49.5 -217z" />
<glyph unicode="&#xd4;" horiz-adv-x="1372" d="M34 0zM440 1323q-31 0 -31 20q0 13 15 25l200 170q31 28 46.5 36.5t37.5 8.5t37.5 -8.5t46.5 -36.5l201 -170q12 -10 12 -25q0 -22 -28 -22q-20 0 -113.5 39t-134.5 63q-13 7 -20.5 7t-20.5 -7q-41 -24 -134.5 -62t-113.5 -38zM766 1225q137 0 267 -84.5t211 -222 t81 -283.5q0 -174 -78 -325t-219 -243t-311 -92q-182 0 -329.5 78.5t-232.5 223t-85 327.5q0 190 89.5 332t246.5 215.5t360 73.5zM299 676q0 -109 30.5 -215.5t85 -194t141 -142t189.5 -54.5q88 0 157 44t110.5 117t62.5 160t21 182q0 102 -27 199.5t-76.5 178t-129 130 t-175.5 49.5q-109 0 -199.5 -66.5t-140 -170.5t-49.5 -217z" />
<glyph unicode="&#xd5;" horiz-adv-x="1372" d="M34 0zM832 1380q-25 0 -126.5 5t-127.5 5q-23 0 -66.5 -25.5t-50.5 -25.5q-13 0 -23 10.5t-10 24.5q0 34 66.5 86.5t105.5 52.5q26 0 122 -4t122 -4q24 0 46.5 12.5t35 27.5t25 27.5t20.5 12.5q15 0 25 -10t10 -25q0 -33 -67.5 -101.5t-106.5 -68.5zM766 1225 q137 0 267 -84.5t211 -222t81 -283.5q0 -174 -78 -325t-219 -243t-311 -92q-182 0 -329.5 78.5t-232.5 223t-85 327.5q0 190 89.5 332t246.5 215.5t360 73.5zM299 676q0 -109 30.5 -215.5t85 -194t141 -142t189.5 -54.5q88 0 157 44t110.5 117t62.5 160t21 182 q0 102 -27 199.5t-76.5 178t-129 130t-175.5 49.5q-109 0 -199.5 -66.5t-140 -170.5t-49.5 -217z" />
<glyph unicode="&#xd6;" horiz-adv-x="1372" d="M34 0zM905 1556q43 0 76.5 -33.5t33.5 -76.5t-33.5 -77t-76.5 -34t-77 34t-34 77t34 76.5t77 33.5zM522 1556q43 0 76.5 -33.5t33.5 -76.5t-33.5 -77t-76.5 -34t-77 34t-34 77t34 76.5t77 33.5zM766 1225q137 0 267 -84.5t211 -222t81 -283.5q0 -174 -78 -325t-219 -243 t-311 -92q-182 0 -329.5 78.5t-232.5 223t-85 327.5q0 190 89.5 332t246.5 215.5t360 73.5zM299 676q0 -109 30.5 -215.5t85 -194t141 -142t189.5 -54.5q88 0 157 44t110.5 117t62.5 160t21 182q0 102 -27 199.5t-76.5 178t-129 130t-175.5 49.5q-109 0 -199.5 -66.5 t-140 -170.5t-49.5 -217z" />
<glyph unicode="&#xd7;" horiz-adv-x="770" d="M678 190q0 -23 -22.5 -44t-43.5 -21q-26 0 -57 31l-170 170l-154 -152q-49 -49 -84 -49q-23 0 -37 16t-14 41q0 45 41 86l152 154l-152 151q-45 45 -45 86q0 24 18 41t42 17q30 0 63 -33l168 -168l166 166q33 33 67 33q26 0 40 -18t14 -46q0 -36 -29 -65l-164 -164 l170 -170q31 -31 31 -62z" />
<glyph unicode="&#xd8;" horiz-adv-x="1372" d="M1118 1073l74 74q46 46 68 62t43 16q16 0 19 -6.5t3 -24.5q0 -28 -27 -55l-124 -123q70 -81 110.5 -180.5t40.5 -200.5q0 -174 -78 -325t-219 -243t-311 -92q-261 0 -443 158l-96 -96q-4 -4 -14 -14.5t-15 -15t-13.5 -12t-14 -11t-12.5 -6.5t-13 -3q-26 0 -26 27 q0 44 39 80l108 108q-147 166 -147 414q0 190 89.5 332t246.5 215.5t360 73.5q92 0 183.5 -40.5t168.5 -111.5zM373 342l620 608q-119 180 -305 180q-109 0 -199.5 -66.5t-140 -170.5t-49.5 -217q0 -180 74 -334zM414 268q129 -198 331 -198q88 0 157 44t110.5 117t62.5 160 t21 182q0 160 -64 304z" />
<glyph unicode="&#xd9;" horiz-adv-x="1263" d="M0 0zM774 1331q-14 0 -37 18q-165 122 -266 209q-27 24 -27 39q0 19 50 33t81 14q38 0 56 -26q24 -35 48.5 -76t52 -90.5t44.5 -77.5q10 -17 10 -31q0 -12 -12 -12zM1147 1008v-496q0 -236 -141.5 -380t-368.5 -144q-108 0 -189 26t-132 71.5t-83 115t-44.5 147 t-12.5 176.5v463q0 73 -22.5 96t-120.5 56q-33 11 -33 35q0 17 22.5 26.5t49.5 9.5q41 0 83 -5t78 -5t117.5 5t116.5 5q27 0 49.5 -9.5t22.5 -26.5q0 -25 -31 -35q-70 -23 -103.5 -56t-33.5 -92v-409q0 -130 13.5 -216.5t47.5 -151.5t94.5 -94.5t153.5 -29.5 q83 0 144.5 25.5t100.5 70t62.5 113t33 146t9.5 178.5v381q0 37 -3.5 57.5t-15 33.5t-26 19.5t-44.5 16.5q-12 4 -19 6q-35 12 -35 37q0 17 22 26.5t49 9.5q15 0 66.5 -5t67.5 -5t66 5t65 5q27 0 49 -9.5t22 -26.5q0 -24 -34 -35q-71 -23 -92 -47t-21 -84z" />
<glyph unicode="&#xda;" horiz-adv-x="1263" d="M0 0zM627 1331q-13 0 -13 12q0 13 11 31q17 28 44.5 77.5t52 90.5t48.5 76q18 26 55 26q31 0 81 -14t50 -33q0 -16 -26 -39q-95 -81 -267 -209q-23 -18 -36 -18zM1147 1008v-496q0 -236 -141.5 -380t-368.5 -144q-108 0 -189 26t-132 71.5t-83 115t-44.5 147t-12.5 176.5 v463q0 73 -22.5 96t-120.5 56q-33 11 -33 35q0 17 22.5 26.5t49.5 9.5q41 0 83 -5t78 -5t117.5 5t116.5 5q27 0 49.5 -9.5t22.5 -26.5q0 -25 -31 -35q-70 -23 -103.5 -56t-33.5 -92v-409q0 -130 13.5 -216.5t47.5 -151.5t94.5 -94.5t153.5 -29.5q83 0 144.5 25.5t100.5 70 t62.5 113t33 146t9.5 178.5v381q0 37 -3.5 57.5t-15 33.5t-26 19.5t-44.5 16.5q-12 4 -19 6q-35 12 -35 37q0 17 22 26.5t49 9.5q15 0 66.5 -5t67.5 -5t66 5t65 5q27 0 49 -9.5t22 -26.5q0 -24 -34 -35q-71 -23 -92 -47t-21 -84z" />
<glyph unicode="&#xdb;" horiz-adv-x="1263" d="M0 0zM432 1323q-31 0 -31 20q0 13 15 25l200 170q31 28 46.5 36.5t37.5 8.5t37.5 -8.5t46.5 -36.5l201 -170q12 -10 12 -25q0 -22 -28 -22q-20 0 -113.5 39t-134.5 63q-13 7 -20.5 7t-20.5 -7q-41 -24 -134.5 -62t-113.5 -38zM1147 1008v-496q0 -236 -141.5 -380 t-368.5 -144q-108 0 -189 26t-132 71.5t-83 115t-44.5 147t-12.5 176.5v463q0 73 -22.5 96t-120.5 56q-33 11 -33 35q0 17 22.5 26.5t49.5 9.5q41 0 83 -5t78 -5t117.5 5t116.5 5q27 0 49.5 -9.5t22.5 -26.5q0 -25 -31 -35q-70 -23 -103.5 -56t-33.5 -92v-409 q0 -130 13.5 -216.5t47.5 -151.5t94.5 -94.5t153.5 -29.5q83 0 144.5 25.5t100.5 70t62.5 113t33 146t9.5 178.5v381q0 37 -3.5 57.5t-15 33.5t-26 19.5t-44.5 16.5q-12 4 -19 6q-35 12 -35 37q0 17 22 26.5t49 9.5q15 0 66.5 -5t67.5 -5t66 5t65 5q27 0 49 -9.5t22 -26.5 q0 -24 -34 -35q-71 -23 -92 -47t-21 -84z" />
<glyph unicode="&#xdc;" horiz-adv-x="1263" d="M0 0zM897 1556q43 0 76.5 -33.5t33.5 -76.5t-33.5 -77t-76.5 -34t-77 34t-34 77t34 76.5t77 33.5zM514 1556q43 0 76.5 -33.5t33.5 -76.5t-33.5 -77t-76.5 -34t-77 34t-34 77t34 76.5t77 33.5zM1147 1008v-496q0 -236 -141.5 -380t-368.5 -144q-108 0 -189 26t-132 71.5 t-83 115t-44.5 147t-12.5 176.5v463q0 73 -22.5 96t-120.5 56q-33 11 -33 35q0 17 22.5 26.5t49.5 9.5q41 0 83 -5t78 -5t117.5 5t116.5 5q27 0 49.5 -9.5t22.5 -26.5q0 -25 -31 -35q-70 -23 -103.5 -56t-33.5 -92v-409q0 -130 13.5 -216.5t47.5 -151.5t94.5 -94.5 t153.5 -29.5q83 0 144.5 25.5t100.5 70t62.5 113t33 146t9.5 178.5v381q0 37 -3.5 57.5t-15 33.5t-26 19.5t-44.5 16.5q-12 4 -19 6q-35 12 -35 37q0 17 22 26.5t49 9.5q15 0 66.5 -5t67.5 -5t66 5t65 5q27 0 49 -9.5t22 -26.5q0 -24 -34 -35q-71 -23 -92 -47t-21 -84z" />
<glyph unicode="&#xdd;" horiz-adv-x="882" d="M0 0zM463 1331q-13 0 -13 12q0 13 11 31q17 28 44.5 77.5t52 90.5t48.5 76q18 26 55 26q31 0 81 -14t50 -33q0 -16 -26 -39q-95 -81 -267 -209q-23 -18 -36 -18zM633 266q0 -131 96 -174q12 -5 46 -16t50.5 -21t16.5 -24t-22.5 -23.5t-43.5 -11.5q-4 0 -46 3t-100.5 6 t-101.5 3q-42 0 -96.5 -3t-92.5 -6t-42 -3q-22 2 -45 12t-23 23q0 14 16.5 24t50.5 21t46 16q96 43 96 174v150q0 36 -2.5 67.5t-4.5 50t-9.5 44t-10 33t-13.5 34.5t-13 31l-92 237q-62 161 -260 226q-33 11 -33 35q0 17 22.5 26.5t49.5 9.5q41 0 83 -5t78 -5t99 5t98 5 q27 0 49.5 -9.5t22.5 -26.5q0 -25 -31 -35q-28 -9 -42 -18.5t-16.5 -15.5t-2.5 -15t25 -61.5t50 -100.5l25 -49q41 -84 63 -84q4 0 8 2t9 7.5t9 11.5t11 18.5t13 23t16.5 29.5t19.5 35l76 133q10 18 -10 45.5t-49 36.5q-35 12 -35 37q0 17 22.5 26.5t49.5 9.5q15 0 73 -5 t74 -5t66 5t65 5q27 0 49.5 -9.5t22.5 -26.5q0 -23 -35 -35q-10 -3 -36.5 -12t-31 -10.5t-24 -9.5t-23.5 -12.5t-19.5 -16t-23 -22.5t-23 -30t-29.5 -40t-34 -52l-116 -180q-13 -19 -21 -37t-11 -35.5t-3.5 -27t0 -26t0.5 -18.5v-344z" />
<glyph unicode="&#xde;" horiz-adv-x="1095" d="M467 956q80 11 100 11q81 0 156.5 -18t139.5 -52.5t102.5 -93.5t38.5 -133q0 -118 -65.5 -199.5t-184.5 -146.5q-76 -41 -131 -41q-37 0 -37 34q0 9 8.5 16t33 23t46.5 35q125 106 125 248q0 101 -76.5 169.5t-181.5 68.5q-43 0 -73 -20.5t-30 -49.5v-543q0 -129 97 -172 q12 -5 46 -16t50 -21t16 -24t-22 -23.5t-43 -11.5q-4 0 -46 3t-100.5 6t-101.5 3q-39 0 -91.5 -3t-91 -6t-42.5 -3q-22 2 -45 12t-23 23q0 14 16.5 24t50.5 21t46 16q96 43 96 172v723q0 18 -2 32t-4 25.5t-8.5 21t-10.5 16t-15.5 13t-17.5 10t-22.5 9t-24.5 8t-30 8.5 l-33 9q-33 11 -33 35q0 17 22.5 26.5t49.5 9.5q41 0 116 -5t111 -5t113 5t112 5q27 0 49.5 -9.5t22.5 -26.5q0 -25 -31 -35q-94 -26 -132 -57.5t-38 -94.5q0 -17 3.5 -25t8.5 -7.5t11 1.5z" />
<glyph unicode="&#xdf;" horiz-adv-x="1130" d="M612 1303q-58 0 -102.5 -28.5t-70.5 -72t-42.5 -103t-22 -114.5t-5.5 -115v-649q0 -118 47 -131q67 -20 67 -53q0 -41 -69 -41q-24 0 -69 6t-60 6q-20 0 -90 -6t-93 -6q-37 0 -54 12t-17 29q0 27 90 53q38 11 58 49.5t20 81.5l2 520h-99q-55 5 -55 27t41 58t84 51 q16 6 21.5 15.5t5.5 27.5q0 38 21 97.5t63.5 128.5t99.5 128.5t138 99t169 39.5q109 0 205 -58t96 -147q0 -51 -16.5 -86t-52.5 -78l-152 -182q-16 -19 -24 -29t-16.5 -28.5t-8.5 -34.5q0 -41 53 -90l215 -188q55 -47 76.5 -86t21.5 -97q0 -144 -86.5 -234.5t-222.5 -90.5 q-95 0 -135 16q-34 13 -42 23q-5 6 -9 18q-35 94 -35 129q0 66 23 66q19 0 44.5 -20t45.5 -62q38 -78 157 -78q42 0 83.5 44t41.5 85q0 12 -3.5 24.5t-8.5 23t-13.5 22.5t-15.5 20t-17 18l-15 15t-14 12l-9 8l-131 115q-36 32 -56.5 52t-46 49.5t-37.5 57t-12 54.5 q0 61 28 108t89 113l88 111q30 37 40.5 71.5t10.5 83.5q0 63 -69 101.5t-148 38.5z" />
<glyph unicode="&#xe0;" horiz-adv-x="1089" d="M0 0zM600 1119q-67 73 -154.5 178.5t-87.5 124.5q0 23 34.5 35t78.5 12q15 0 30.5 -11t24.5 -26q35 -61 94.5 -186t59.5 -146q0 -15 -3 -20.5t-16 -5.5q-21 0 -61 45zM1001 98q34 -14 48 -29t14 -38q0 -14 -22.5 -23.5t-43.5 -11.5q-3 0 -24 3t-58.5 6t-80.5 3 q-42 0 -79 -3t-58 -6t-25 -3q-22 2 -45 12t-23 23q0 22 16.5 35.5t57.5 27.5q14 5 30.5 28.5t12.5 41.5l-33 108q-10 52 -59 52h-199q-24 0 -36.5 -11t-20.5 -34l-31 -95q-24 -73 25 -88q43 -13 65.5 -28t22.5 -37q0 -14 -22.5 -23.5t-43.5 -11.5q-3 0 -25.5 3t-61 6 t-81.5 3q-42 0 -81 -3t-62 -6t-27 -3q-22 2 -44.5 12t-22.5 23q0 21 35 41.5t77 33.5q73 24 97 82l268 623q2 5 6.5 17.5t8.5 20t10 12.5q15 13 35 31.5t33 31t27.5 25t24.5 18.5t17 6q11 0 28.5 -21.5t28.5 -58.5l209 -688q7 -23 38.5 -55.5t73.5 -51.5zM424 438 q-6 -17 -1 -20.5t30 -3.5h157q6 0 9.5 0.5t6.5 0.5t3.5 2t1.5 3t0 4.5t-1.5 5t-3 7.5t-3.5 9l-68 224q-4 11 -10 15t-12 -0.5t-11 -16.5z" />
<glyph unicode="&#xe1;" horiz-adv-x="1089" d="M0 0zM594 1119q-40 -45 -62 -45q-12 0 -15 5t-3 21q0 21 59.5 145.5t95.5 186.5q9 15 25 26t31 11q43 0 76.5 -12t33.5 -35q0 -19 -87.5 -125.5t-153.5 -177.5zM1001 98q34 -14 48 -29t14 -38q0 -14 -22.5 -23.5t-43.5 -11.5q-3 0 -24 3t-58.5 6t-80.5 3q-42 0 -79 -3 t-58 -6t-25 -3q-22 2 -45 12t-23 23q0 22 16.5 35.5t57.5 27.5q14 5 30.5 28.5t12.5 41.5l-33 108q-10 52 -59 52h-199q-24 0 -36.5 -11t-20.5 -34l-31 -95q-24 -73 25 -88q43 -13 65.5 -28t22.5 -37q0 -14 -22.5 -23.5t-43.5 -11.5q-3 0 -25.5 3t-61 6t-81.5 3 q-42 0 -81 -3t-62 -6t-27 -3q-22 2 -44.5 12t-22.5 23q0 21 35 41.5t77 33.5q73 24 97 82l268 623q2 5 6.5 17.5t8.5 20t10 12.5q15 13 35 31.5t33 31t27.5 25t24.5 18.5t17 6q11 0 28.5 -21.5t28.5 -58.5l209 -688q7 -23 38.5 -55.5t73.5 -51.5zM424 438q-6 -17 -1 -20.5 t30 -3.5h157q6 0 9.5 0.5t6.5 0.5t3.5 2t1.5 3t0 4.5t-1.5 5t-3 7.5t-3.5 9l-68 224q-4 11 -10 15t-12 -0.5t-11 -16.5z" />
<glyph unicode="&#xe2;" horiz-adv-x="1089" d="M0 0zM577 1270q-38 -54 -123 -151q-40 -45 -61 -45q-13 0 -16 5.5t-3 20.5q0 20 68 147t113 201q21 37 41 37t41 -37q46 -76 114 -202t68 -146q0 -15 -3 -20.5t-16 -5.5q-21 0 -61 45q-89 102 -125 151q-19 25 -37 0zM1001 98q34 -14 48 -29t14 -38q0 -14 -22.5 -23.5 t-43.5 -11.5q-3 0 -24 3t-58.5 6t-80.5 3q-42 0 -79 -3t-58 -6t-25 -3q-22 2 -45 12t-23 23q0 22 16.5 35.5t57.5 27.5q14 5 30.5 28.5t12.5 41.5l-33 108q-10 52 -59 52h-199q-24 0 -36.5 -11t-20.5 -34l-31 -95q-24 -73 25 -88q43 -13 65.5 -28t22.5 -37 q0 -14 -22.5 -23.5t-43.5 -11.5q-3 0 -25.5 3t-61 6t-81.5 3q-42 0 -81 -3t-62 -6t-27 -3q-22 2 -44.5 12t-22.5 23q0 21 35 41.5t77 33.5q73 24 97 82l268 623q2 5 6.5 17.5t8.5 20t10 12.5q15 13 35 31.5t33 31t27.5 25t24.5 18.5t17 6q11 0 28.5 -21.5t28.5 -58.5 l209 -688q7 -23 38.5 -55.5t73.5 -51.5zM424 438q-6 -17 -1 -20.5t30 -3.5h157q6 0 9.5 0.5t6.5 0.5t3.5 2t1.5 3t0 4.5t-1.5 5t-3 7.5t-3.5 9l-68 224q-4 11 -10 15t-12 -0.5t-11 -16.5z" />
<glyph unicode="&#xe3;" horiz-adv-x="1089" d="M0 0zM338 1071q-14 0 -21.5 12t-7.5 29q0 19 73 95.5t107 76.5q25 0 110 -2t110 -2t49 14t39.5 31t28.5 31t18 14q15 0 24 -9.5t9 -24.5q0 -11 -37 -61t-85 -98t-71 -48q-26 0 -115 1t-114 1q-30 0 -71.5 -30t-45.5 -30zM1001 98q34 -14 48 -29t14 -38q0 -14 -22.5 -23.5 t-43.5 -11.5q-3 0 -24 3t-58.5 6t-80.5 3q-42 0 -79 -3t-58 -6t-25 -3q-22 2 -45 12t-23 23q0 22 16.5 35.5t57.5 27.5q14 5 30.5 28.5t12.5 41.5l-33 108q-10 52 -59 52h-199q-24 0 -36.5 -11t-20.5 -34l-31 -95q-24 -73 25 -88q43 -13 65.5 -28t22.5 -37 q0 -14 -22.5 -23.5t-43.5 -11.5q-3 0 -25.5 3t-61 6t-81.5 3q-42 0 -81 -3t-62 -6t-27 -3q-22 2 -44.5 12t-22.5 23q0 21 35 41.5t77 33.5q73 24 97 82l268 623q2 5 6.5 17.5t8.5 20t10 12.5q15 13 35 31.5t33 31t27.5 25t24.5 18.5t17 6q11 0 28.5 -21.5t28.5 -58.5 l209 -688q7 -23 38.5 -55.5t73.5 -51.5zM424 438q-6 -17 -1 -20.5t30 -3.5h157q6 0 9.5 0.5t6.5 0.5t3.5 2t1.5 3t0 4.5t-1.5 5t-3 7.5t-3.5 9l-68 224q-4 11 -10 15t-12 -0.5t-11 -16.5z" />
<glyph unicode="&#xe4;" horiz-adv-x="1089" d="M0 0zM772 1350q44 0 76.5 -32.5t32.5 -76.5t-32.5 -76t-76.5 -32t-76 32t-32 76t32 76.5t76 32.5zM422 1350q44 0 76.5 -32.5t32.5 -76.5t-32.5 -76t-76.5 -32t-76 32t-32 76t32 76.5t76 32.5zM1001 98q34 -14 48 -29t14 -38q0 -14 -22.5 -23.5t-43.5 -11.5q-3 0 -24 3 t-58.5 6t-80.5 3q-42 0 -79 -3t-58 -6t-25 -3q-22 2 -45 12t-23 23q0 22 16.5 35.5t57.5 27.5q14 5 30.5 28.5t12.5 41.5l-33 108q-10 52 -59 52h-199q-24 0 -36.5 -11t-20.5 -34l-31 -95q-24 -73 25 -88q43 -13 65.5 -28t22.5 -37q0 -14 -22.5 -23.5t-43.5 -11.5 q-3 0 -25.5 3t-61 6t-81.5 3q-42 0 -81 -3t-62 -6t-27 -3q-22 2 -44.5 12t-22.5 23q0 21 35 41.5t77 33.5q73 24 97 82l268 623q2 5 6.5 17.5t8.5 20t10 12.5q15 13 35 31.5t33 31t27.5 25t24.5 18.5t17 6q11 0 28.5 -21.5t28.5 -58.5l209 -688q7 -23 38.5 -55.5t73.5 -51.5 zM424 438q-6 -17 -1 -20.5t30 -3.5h157q6 0 9.5 0.5t6.5 0.5t3.5 2t1.5 3t0 4.5t-1.5 5t-3 7.5t-3.5 9l-68 224q-4 11 -10 15t-12 -0.5t-11 -16.5z" />
<glyph unicode="&#xe5;" horiz-adv-x="1089" d="M0 0zM598 1487q68 0 116.5 -46.5t48.5 -113.5q0 -77 -54 -129.5t-124 -52.5q-67 0 -116.5 51t-49.5 119q0 67 55.5 119.5t123.5 52.5zM514 1325q0 -47 23 -82.5t63 -35.5q34 0 51.5 32t17.5 74q0 43 -25 76t-65 33q-31 0 -48 -29.5t-17 -67.5zM1001 98q34 -14 48 -29 t14 -38q0 -14 -22.5 -23.5t-43.5 -11.5q-3 0 -24 3t-58.5 6t-80.5 3q-42 0 -79 -3t-58 -6t-25 -3q-22 2 -45 12t-23 23q0 22 16.5 35.5t57.5 27.5q14 5 30.5 28.5t12.5 41.5l-33 108q-10 52 -59 52h-199q-24 0 -36.5 -11t-20.5 -34l-31 -95q-24 -73 25 -88q43 -13 65.5 -28 t22.5 -37q0 -14 -22.5 -23.5t-43.5 -11.5q-3 0 -25.5 3t-61 6t-81.5 3q-42 0 -81 -3t-62 -6t-27 -3q-22 2 -44.5 12t-22.5 23q0 21 35 41.5t77 33.5q73 24 97 82l268 623q2 5 6.5 17.5t8.5 20t10 12.5q15 13 35 31.5t33 31t27.5 25t24.5 18.5t17 6q11 0 28.5 -21.5 t28.5 -58.5l209 -688q7 -23 38.5 -55.5t73.5 -51.5zM424 438q-6 -17 -1 -20.5t30 -3.5h157q6 0 9.5 0.5t6.5 0.5t3.5 2t1.5 3t0 4.5t-1.5 5t-3 7.5t-3.5 9l-68 224q-4 11 -10 15t-12 -0.5t-11 -16.5z" />
<glyph unicode="&#xe6;" horiz-adv-x="1996" d="M0 0zM1409 8q-27 0 -99 -6t-91 -6q-21 0 -44.5 10.5t-23.5 24.5q0 9 7 17t20.5 15t26 12.5t31 13t28.5 11.5q10 5 18.5 10.5t15 10.5t11.5 14t8 13.5t5 17t3.5 16.5t2 19.5t0.5 19v21.5v22v441q0 76 -17 96t-89 39q-19 5 -30 8q-13 4 -22.5 16.5t-9.5 26.5q0 17 22.5 27 t48.5 10q41 0 96 -4t91 -4q34 0 189 4t200 4q25 0 29.5 -4t13.5 -35q12 -36 12 -101q0 -22 -8.5 -42.5t-26.5 -20.5q-41 0 -67 70q-5 13 -23.5 24.5t-40.5 11.5h-143q-33 0 -41 -9t-8 -40v-176q0 -19 0.5 -30.5t3.5 -25t10 -20t18 -6.5h103q31 0 52.5 13t31.5 28t22 28 t25 13q14 0 19.5 -31.5t5.5 -105.5q0 -81 -4.5 -110t-24.5 -29q-12 0 -23.5 14t-21 31t-32 31t-54.5 14h-94q-23 0 -28 -6q-9 -10 -9 -62v-139q0 -38 17.5 -63t53.5 -25h172q18 0 34 18t24.5 35.5t21.5 49.5q3 7 4 10q6 18 21.5 31.5t30.5 13.5q20 0 32.5 -19.5t12.5 -56.5 q0 -53 -32.5 -132t-57.5 -79q-68 0 -211.5 6t-217.5 6zM1001 98q34 -14 48 -29t14 -38q0 -14 -22.5 -23.5t-43.5 -11.5q-3 0 -24 3t-58.5 6t-80.5 3q-42 0 -79 -3t-58 -6t-25 -3q-22 2 -45 12t-23 23q0 22 16.5 35.5t57.5 27.5q14 5 30.5 28.5t12.5 41.5l-33 108 q-10 52 -59 52h-199q-24 0 -36.5 -11t-20.5 -34l-31 -95q-24 -73 25 -88q43 -13 65.5 -28t22.5 -37q0 -14 -22.5 -23.5t-43.5 -11.5q-3 0 -25.5 3t-61 6t-81.5 3q-42 0 -81 -3t-62 -6t-27 -3q-22 2 -44.5 12t-22.5 23q0 21 35 41.5t77 33.5q73 24 97 82l268 623 q2 5 6.5 17.5t8.5 20t10 12.5q15 13 35 31.5t33 31t27.5 25t24.5 18.5t17 6q11 0 28.5 -21.5t28.5 -58.5l209 -688q7 -23 38.5 -55.5t73.5 -51.5zM424 438q-6 -17 -1 -20.5t30 -3.5h157q6 0 9.5 0.5t6.5 0.5t3.5 2t1.5 3t0 4.5t-1.5 5t-3 7.5t-3.5 9l-68 224q-4 11 -10 15 t-12 -0.5t-11 -16.5z" />
<glyph unicode="&#xe7;" horiz-adv-x="1046" d="M48 0zM702 33q-56 -39 -87.5 -78t-31.5 -59q0 -13 26 -39.5t57 -53.5t57 -65.5t26 -72.5q0 -54 -44 -99.5t-105 -69.5t-119 -24q-70 0 -70 86q0 23 15.5 44.5t32.5 21.5q2 0 47.5 -30t70.5 -30q24 0 30.5 11t6.5 38q0 26 -26 57t-58 55t-58 51t-26 44q0 43 33 80.5 t141 132.5h82zM637 963q66 0 133 -14.5t88 -30.5q60 -46 83.5 -69.5t23.5 -45.5q0 -50 -23 -101t-39 -51t-24.5 9t-25 42t-32.5 58q-64 100 -207 100q-93 0 -164.5 -58t-107 -147t-35.5 -190q0 -98 33 -185t101 -145.5t157 -58.5q94 0 213 108q14 13 34 42t35 49t25 20 q33 0 33 -49q0 -154 -70 -185q-176 -81 -313 -81q-125 0 -231 64.5t-166 172t-60 232.5q0 139 74.5 258t198.5 187.5t266 68.5z" />
<glyph unicode="&#xe8;" horiz-adv-x="907" d="M30 0zM459 1119q-67 73 -154.5 178.5t-87.5 124.5q0 23 34.5 35t78.5 12q15 0 30.5 -11t24.5 -26q35 -61 94.5 -186t59.5 -146q0 -15 -3 -20.5t-16 -5.5q-21 0 -61 45zM319 8q-27 0 -99 -6t-91 -6q-21 0 -44.5 10.5t-23.5 24.5q0 9 7 17t20.5 15t26 12.5t31 13t28.5 11.5 q10 5 18.5 10.5t15 10.5t11.5 14t8 13.5t5 17t3.5 16.5t2 19.5t0.5 19v21.5v22v441q0 76 -17 96t-89 39q-19 5 -30 8q-13 4 -22.5 16.5t-9.5 26.5q0 17 22.5 27t48.5 10q41 0 96 -4t91 -4q34 0 189 4t200 4q25 0 29.5 -4t13.5 -35q12 -36 12 -101q0 -22 -8.5 -42.5 t-26.5 -20.5q-41 0 -67 70q-5 13 -23.5 24.5t-40.5 11.5h-143q-33 0 -41 -9t-8 -40v-176q0 -19 0.5 -30.5t3.5 -25t10 -20t18 -6.5h103q31 0 52.5 13t31.5 28t22 28t25 13q14 0 19.5 -31.5t5.5 -105.5q0 -81 -4.5 -110t-24.5 -29q-12 0 -23.5 14t-21 31t-32 31t-54.5 14h-94 q-23 0 -28 -6q-9 -10 -9 -62v-139q0 -38 17.5 -63t53.5 -25h172q18 0 34 18t24.5 35.5t21.5 49.5q3 7 4 10q6 18 21.5 31.5t30.5 13.5q20 0 32.5 -19.5t12.5 -56.5q0 -53 -32.5 -132t-57.5 -79q-68 0 -211.5 6t-217.5 6z" />
<glyph unicode="&#xe9;" horiz-adv-x="907" d="M30 0zM453 1119q-40 -45 -62 -45q-12 0 -15 5t-3 21q0 21 59.5 145.5t95.5 186.5q9 15 25 26t31 11q43 0 76.5 -12t33.5 -35q0 -19 -87.5 -125.5t-153.5 -177.5zM319 8q-27 0 -99 -6t-91 -6q-21 0 -44.5 10.5t-23.5 24.5q0 9 7 17t20.5 15t26 12.5t31 13t28.5 11.5 q10 5 18.5 10.5t15 10.5t11.5 14t8 13.5t5 17t3.5 16.5t2 19.5t0.5 19v21.5v22v441q0 76 -17 96t-89 39q-19 5 -30 8q-13 4 -22.5 16.5t-9.5 26.5q0 17 22.5 27t48.5 10q41 0 96 -4t91 -4q34 0 189 4t200 4q25 0 29.5 -4t13.5 -35q12 -36 12 -101q0 -22 -8.5 -42.5 t-26.5 -20.5q-41 0 -67 70q-5 13 -23.5 24.5t-40.5 11.5h-143q-33 0 -41 -9t-8 -40v-176q0 -19 0.5 -30.5t3.5 -25t10 -20t18 -6.5h103q31 0 52.5 13t31.5 28t22 28t25 13q14 0 19.5 -31.5t5.5 -105.5q0 -81 -4.5 -110t-24.5 -29q-12 0 -23.5 14t-21 31t-32 31t-54.5 14h-94 q-23 0 -28 -6q-9 -10 -9 -62v-139q0 -38 17.5 -63t53.5 -25h172q18 0 34 18t24.5 35.5t21.5 49.5q3 7 4 10q6 18 21.5 31.5t30.5 13.5q20 0 32.5 -19.5t12.5 -56.5q0 -53 -32.5 -132t-57.5 -79q-68 0 -211.5 6t-217.5 6z" />
<glyph unicode="&#xea;" horiz-adv-x="907" d="M30 0zM436 1270q-38 -54 -123 -151q-40 -45 -61 -45q-13 0 -16 5.5t-3 20.5q0 20 68 147t113 201q21 37 41 37t41 -37q46 -76 114 -202t68 -146q0 -15 -3 -20.5t-16 -5.5q-21 0 -61 45q-89 102 -125 151q-19 25 -37 0zM319 8q-27 0 -99 -6t-91 -6q-21 0 -44.5 10.5 t-23.5 24.5q0 9 7 17t20.5 15t26 12.5t31 13t28.5 11.5q10 5 18.5 10.5t15 10.5t11.5 14t8 13.5t5 17t3.5 16.5t2 19.5t0.5 19v21.5v22v441q0 76 -17 96t-89 39q-19 5 -30 8q-13 4 -22.5 16.5t-9.5 26.5q0 17 22.5 27t48.5 10q41 0 96 -4t91 -4q34 0 189 4t200 4 q25 0 29.5 -4t13.5 -35q12 -36 12 -101q0 -22 -8.5 -42.5t-26.5 -20.5q-41 0 -67 70q-5 13 -23.5 24.5t-40.5 11.5h-143q-33 0 -41 -9t-8 -40v-176q0 -19 0.5 -30.5t3.5 -25t10 -20t18 -6.5h103q31 0 52.5 13t31.5 28t22 28t25 13q14 0 19.5 -31.5t5.5 -105.5 q0 -81 -4.5 -110t-24.5 -29q-12 0 -23.5 14t-21 31t-32 31t-54.5 14h-94q-23 0 -28 -6q-9 -10 -9 -62v-139q0 -38 17.5 -63t53.5 -25h172q18 0 34 18t24.5 35.5t21.5 49.5q3 7 4 10q6 18 21.5 31.5t30.5 13.5q20 0 32.5 -19.5t12.5 -56.5q0 -53 -32.5 -132t-57.5 -79 q-68 0 -211.5 6t-217.5 6z" />
<glyph unicode="&#xeb;" horiz-adv-x="907" d="M30 0zM630 1350q44 0 76.5 -32.5t32.5 -76.5t-32.5 -76t-76.5 -32t-76 32t-32 76t32 76.5t76 32.5zM280 1350q44 0 76.5 -32.5t32.5 -76.5t-32.5 -76t-76.5 -32t-76 32t-32 76t32 76.5t76 32.5zM319 8q-27 0 -99 -6t-91 -6q-21 0 -44.5 10.5t-23.5 24.5q0 9 7 17t20.5 15 t26 12.5t31 13t28.5 11.5q10 5 18.5 10.5t15 10.5t11.5 14t8 13.5t5 17t3.5 16.5t2 19.5t0.5 19v21.5v22v441q0 76 -17 96t-89 39q-19 5 -30 8q-13 4 -22.5 16.5t-9.5 26.5q0 17 22.5 27t48.5 10q41 0 96 -4t91 -4q34 0 189 4t200 4q25 0 29.5 -4t13.5 -35q12 -36 12 -101 q0 -22 -8.5 -42.5t-26.5 -20.5q-41 0 -67 70q-5 13 -23.5 24.5t-40.5 11.5h-143q-33 0 -41 -9t-8 -40v-176q0 -19 0.5 -30.5t3.5 -25t10 -20t18 -6.5h103q31 0 52.5 13t31.5 28t22 28t25 13q14 0 19.5 -31.5t5.5 -105.5q0 -81 -4.5 -110t-24.5 -29q-12 0 -23.5 14t-21 31 t-32 31t-54.5 14h-94q-23 0 -28 -6q-9 -10 -9 -62v-139q0 -38 17.5 -63t53.5 -25h172q18 0 34 18t24.5 35.5t21.5 49.5q3 7 4 10q6 18 21.5 31.5t30.5 13.5q20 0 32.5 -19.5t12.5 -56.5q0 -53 -32.5 -132t-57.5 -79q-68 0 -211.5 6t-217.5 6z" />
<glyph unicode="&#xec;" horiz-adv-x="565" d="M30 0zM332 1119q-67 73 -154.5 178.5t-87.5 124.5q0 23 34.5 35t78.5 12q15 0 30.5 -11t24.5 -26q35 -61 94.5 -186t59.5 -146q0 -15 -3 -20.5t-16 -5.5q-21 0 -61 45zM512 928q27 0 49.5 -10t22.5 -27q0 -14 -9 -26.5t-22 -16.5q-11 -3 -35 -9.5t-30.5 -8.5t-22 -7.5 t-19 -9t-12.5 -11.5t-10.5 -15.5t-5 -20t-4 -27t-0.5 -34.5v-441v-14q0 -27 0.5 -40t3.5 -33.5t9.5 -32t19.5 -24t32 -20.5q10 -4 28.5 -11.5t31 -13t26 -12.5t20.5 -15t7 -17q0 -14 -22.5 -23.5t-43.5 -11.5q-4 0 -35.5 3t-80 6t-91.5 3q-42 0 -86 -3t-72 -6t-32 -3 q-22 2 -45 12t-23 23q0 9 7 17t20.5 15t26 12.5t31 13t28.5 11.5q10 5 18.5 10.5t15 10.5t11.5 14t8 13.5t5 17t3.5 16.5t2 19.5t0.5 19v21.5v22v441q0 76 -17 96t-89 39q-19 5 -30 8q-13 4 -22.5 16.5t-9.5 26.5q0 17 22.5 27t48.5 10q41 0 96 -5t91 -5t92.5 5t91.5 5z" />
<glyph unicode="&#xed;" horiz-adv-x="565" d="M30 0zM326 1119q-40 -45 -62 -45q-12 0 -15 5t-3 21q0 21 59.5 145.5t95.5 186.5q9 15 25 26t31 11q43 0 76.5 -12t33.5 -35q0 -19 -87.5 -125.5t-153.5 -177.5zM512 928q27 0 49.5 -10t22.5 -27q0 -14 -9 -26.5t-22 -16.5q-11 -3 -35 -9.5t-30.5 -8.5t-22 -7.5t-19 -9 t-12.5 -11.5t-10.5 -15.5t-5 -20t-4 -27t-0.5 -34.5v-441v-14q0 -27 0.5 -40t3.5 -33.5t9.5 -32t19.5 -24t32 -20.5q10 -4 28.5 -11.5t31 -13t26 -12.5t20.5 -15t7 -17q0 -14 -22.5 -23.5t-43.5 -11.5q-4 0 -35.5 3t-80 6t-91.5 3q-42 0 -86 -3t-72 -6t-32 -3q-22 2 -45 12 t-23 23q0 9 7 17t20.5 15t26 12.5t31 13t28.5 11.5q10 5 18.5 10.5t15 10.5t11.5 14t8 13.5t5 17t3.5 16.5t2 19.5t0.5 19v21.5v22v441q0 76 -17 96t-89 39q-19 5 -30 8q-13 4 -22.5 16.5t-9.5 26.5q0 17 22.5 27t48.5 10q41 0 96 -5t91 -5t92.5 5t91.5 5z" />
<glyph unicode="&#xee;" horiz-adv-x="565" d="M30 0zM309 1270q-38 -54 -123 -151q-40 -45 -61 -45q-13 0 -16 5.5t-3 20.5q0 20 68 147t113 201q21 37 41 37t41 -37q46 -76 114 -202t68 -146q0 -15 -3 -20.5t-16 -5.5q-21 0 -61 45q-89 102 -125 151q-19 25 -37 0zM512 928q27 0 49.5 -10t22.5 -27q0 -14 -9 -26.5 t-22 -16.5q-11 -3 -35 -9.5t-30.5 -8.5t-22 -7.5t-19 -9t-12.5 -11.5t-10.5 -15.5t-5 -20t-4 -27t-0.5 -34.5v-441v-14q0 -27 0.5 -40t3.5 -33.5t9.5 -32t19.5 -24t32 -20.5q10 -4 28.5 -11.5t31 -13t26 -12.5t20.5 -15t7 -17q0 -14 -22.5 -23.5t-43.5 -11.5q-4 0 -35.5 3 t-80 6t-91.5 3q-42 0 -86 -3t-72 -6t-32 -3q-22 2 -45 12t-23 23q0 9 7 17t20.5 15t26 12.5t31 13t28.5 11.5q10 5 18.5 10.5t15 10.5t11.5 14t8 13.5t5 17t3.5 16.5t2 19.5t0.5 19v21.5v22v441q0 76 -17 96t-89 39q-19 5 -30 8q-13 4 -22.5 16.5t-9.5 26.5q0 17 22.5 27 t48.5 10q41 0 96 -5t91 -5t92.5 5t91.5 5z" />
<glyph unicode="&#xef;" horiz-adv-x="565" d="M30 0zM503 1350q44 0 76.5 -32.5t32.5 -76.5t-32.5 -76t-76.5 -32t-76 32t-32 76t32 76.5t76 32.5zM153 1350q44 0 76.5 -32.5t32.5 -76.5t-32.5 -76t-76.5 -32t-76 32t-32 76t32 76.5t76 32.5zM512 928q27 0 49.5 -10t22.5 -27q0 -14 -9 -26.5t-22 -16.5 q-11 -3 -35 -9.5t-30.5 -8.5t-22 -7.5t-19 -9t-12.5 -11.5t-10.5 -15.5t-5 -20t-4 -27t-0.5 -34.5v-441v-14q0 -27 0.5 -40t3.5 -33.5t9.5 -32t19.5 -24t32 -20.5q10 -4 28.5 -11.5t31 -13t26 -12.5t20.5 -15t7 -17q0 -14 -22.5 -23.5t-43.5 -11.5q-4 0 -35.5 3t-80 6 t-91.5 3q-42 0 -86 -3t-72 -6t-32 -3q-22 2 -45 12t-23 23q0 9 7 17t20.5 15t26 12.5t31 13t28.5 11.5q10 5 18.5 10.5t15 10.5t11.5 14t8 13.5t5 17t3.5 16.5t2 19.5t0.5 19v21.5v22v441q0 76 -17 96t-89 39q-19 5 -30 8q-13 4 -22.5 16.5t-9.5 26.5q0 17 22.5 27t48.5 10 q41 0 96 -5t91 -5t92.5 5t91.5 5z" />
<glyph unicode="&#xf0;" horiz-adv-x="911" d="M23 0zM236 477q0 -95 28.5 -175.5t90 -133.5t145.5 -53q64 0 111.5 34.5t47.5 92.5v313q0 97 -67 167.5t-162 70.5q-51 0 -90 -28.5t-61 -76t-32.5 -101t-10.5 -110.5zM805 1395q9 0 14 -2.5t7 -12t2.5 -15.5t0.5 -26v-192h258q36 0 52 37q23 61 45 61q35 0 56.5 -38.5 t21.5 -108.5q0 -21 -12 -35t-29 -14h-392v-877q0 -33 8 -45t25 -12q15 0 59.5 6t51.5 6q8 0 17 -11.5t9 -21.5q0 -38 -26 -51q-27 -13 -137 -40.5t-134 -27.5q-11 0 -18.5 9.5t-9.5 19.5q-11 37 -19 78q-3 15 -8 16t-16 -14q-34 -49 -89.5 -74.5t-119.5 -25.5 q-155 0 -265 115.5t-110 273.5q0 129 51.5 244.5t151 189.5t223.5 74q48 0 92.5 -15.5t67.5 -38.5q7 -6 11 -7t7 3.5t4.5 12.5t3.5 24v189h-395q-49 0 -49 28q0 27 17 48.5t51 21.5h376v14q0 27 -24 54t-60 40q-47 16 -47 48q0 16 18 28t42 15q35 6 86 18.5t87 21.5t44 9z " />
<glyph unicode="&#xf1;" horiz-adv-x="1103" d="M34 0zM307 1071q-14 0 -21.5 12t-7.5 29q0 19 73 95.5t107 76.5q25 0 110 -2t110 -2t49 14t39.5 31t28.5 31t18 14q15 0 24 -9.5t9 -24.5q0 -11 -37 -61t-85 -98t-71 -48q-26 0 -115 1t-114 1q-30 0 -71.5 -30t-45.5 -30zM850 705q0 108 -107 143q-13 5 -22.5 17.5 t-9.5 25.5q0 37 55 37q14 0 65 -5t80 -5q27 0 69 5t60 5q25 0 42.5 -9.5t17.5 -27.5q0 -14 -9.5 -27t-21.5 -16q-42 -12 -71 -49.5t-29 -89.5v-367q0 -37 7 -116t7 -99q0 -147 -29 -147q-31 0 -70.5 33t-117.5 130l-358 449q-6 7 -11 -11q-6 -24 -6 -79v-238q0 -82 10 -108 q14 -37 56 -56q31 -14 44.5 -20.5t28.5 -20.5t15 -28t-22.5 -23.5t-43.5 -11.5q-3 0 -23.5 3t-57 6t-79.5 3q-42 0 -81 -3t-61.5 -6t-26.5 -3q-22 2 -45 12t-23 23q0 9 7 17t20.5 15t26 12.5t31 13t28.5 11.5q11 5 20.5 10.5t16 14t11 14t7.5 18t5 17.5t2.5 21t0.5 20.5v24 v24.5v381q0 102 -31 131q-53 49 -125 72q-14 4 -23 16.5t-9 26.5q0 17 22.5 27t48.5 10q41 0 97 -5t90 -5q27 0 55.5 -25t71.5 -78l360 -446q4 -4 11 -14q19 -26 22 -16q2 4 2 17v349z" />
<glyph unicode="&#xf2;" horiz-adv-x="1146" d="M39 0zM590 1119q-67 73 -154.5 178.5t-87.5 124.5q0 23 34.5 35t78.5 12q15 0 30.5 -11t24.5 -26q35 -61 94.5 -186t59.5 -146q0 -15 -3 -20.5t-16 -5.5q-21 0 -61 45zM592 963q128 0 238 -55.5t177.5 -157t67.5 -226.5q0 -112 -44 -212.5t-118 -173.5t-175.5 -115.5 t-213.5 -42.5q-186 0 -315 133.5t-129 322.5q0 142 67.5 263t185.5 192.5t259 71.5zM289 520q0 -81 18.5 -159t54 -144t95.5 -106.5t135 -40.5q67 0 120.5 36.5t85.5 95.5t49 129t17 142q0 99 -38 188.5t-112.5 148t-168.5 58.5q-79 0 -139 -53t-88.5 -131t-28.5 -164z" />
<glyph unicode="&#xf3;" horiz-adv-x="1146" d="M39 0zM584 1119q-40 -45 -62 -45q-12 0 -15 5t-3 21q0 21 59.5 145.5t95.5 186.5q9 15 25 26t31 11q43 0 76.5 -12t33.5 -35q0 -19 -87.5 -125.5t-153.5 -177.5zM592 963q128 0 238 -55.5t177.5 -157t67.5 -226.5q0 -112 -44 -212.5t-118 -173.5t-175.5 -115.5 t-213.5 -42.5q-186 0 -315 133.5t-129 322.5q0 142 67.5 263t185.5 192.5t259 71.5zM289 520q0 -81 18.5 -159t54 -144t95.5 -106.5t135 -40.5q67 0 120.5 36.5t85.5 95.5t49 129t17 142q0 99 -38 188.5t-112.5 148t-168.5 58.5q-79 0 -139 -53t-88.5 -131t-28.5 -164z" />
<glyph unicode="&#xf4;" horiz-adv-x="1146" d="M39 0zM567 1270q-38 -54 -123 -151q-40 -45 -61 -45q-13 0 -16 5.5t-3 20.5q0 20 68 147t113 201q21 37 41 37t41 -37q46 -76 114 -202t68 -146q0 -15 -3 -20.5t-16 -5.5q-21 0 -61 45q-89 102 -125 151q-19 25 -37 0zM592 963q128 0 238 -55.5t177.5 -157t67.5 -226.5 q0 -112 -44 -212.5t-118 -173.5t-175.5 -115.5t-213.5 -42.5q-186 0 -315 133.5t-129 322.5q0 142 67.5 263t185.5 192.5t259 71.5zM289 520q0 -81 18.5 -159t54 -144t95.5 -106.5t135 -40.5q67 0 120.5 36.5t85.5 95.5t49 129t17 142q0 99 -38 188.5t-112.5 148 t-168.5 58.5q-79 0 -139 -53t-88.5 -131t-28.5 -164z" />
<glyph unicode="&#xf5;" horiz-adv-x="1146" d="M39 0zM328 1071q-14 0 -21.5 12t-7.5 29q0 19 73 95.5t107 76.5q25 0 110 -2t110 -2t49 14t39.5 31t28.5 31t18 14q15 0 24 -9.5t9 -24.5q0 -11 -37 -61t-85 -98t-71 -48q-26 0 -115 1t-114 1q-30 0 -71.5 -30t-45.5 -30zM592 963q128 0 238 -55.5t177.5 -157 t67.5 -226.5q0 -112 -44 -212.5t-118 -173.5t-175.5 -115.5t-213.5 -42.5q-186 0 -315 133.5t-129 322.5q0 142 67.5 263t185.5 192.5t259 71.5zM289 520q0 -81 18.5 -159t54 -144t95.5 -106.5t135 -40.5q67 0 120.5 36.5t85.5 95.5t49 129t17 142q0 99 -38 188.5 t-112.5 148t-168.5 58.5q-79 0 -139 -53t-88.5 -131t-28.5 -164z" />
<glyph unicode="&#xf6;" horiz-adv-x="1146" d="M39 0zM761 1350q44 0 76.5 -32.5t32.5 -76.5t-32.5 -76t-76.5 -32t-76 32t-32 76t32 76.5t76 32.5zM411 1350q44 0 76.5 -32.5t32.5 -76.5t-32.5 -76t-76.5 -32t-76 32t-32 76t32 76.5t76 32.5zM592 963q128 0 238 -55.5t177.5 -157t67.5 -226.5q0 -112 -44 -212.5 t-118 -173.5t-175.5 -115.5t-213.5 -42.5q-186 0 -315 133.5t-129 322.5q0 142 67.5 263t185.5 192.5t259 71.5zM289 520q0 -81 18.5 -159t54 -144t95.5 -106.5t135 -40.5q67 0 120.5 36.5t85.5 95.5t49 129t17 142q0 99 -38 188.5t-112.5 148t-168.5 58.5q-79 0 -139 -53 t-88.5 -131t-28.5 -164z" />
<glyph unicode="&#xf7;" horiz-adv-x="960" d="M195 342q-43 0 -76 13.5t-33 47.5q0 29 30.5 51.5t78.5 22.5h583q38 0 62 -16.5t24 -40.5q0 -27 -23 -51.5t-65 -24.5zM496 238q48 0 79 -38t31 -89q0 -53 -40.5 -87t-96.5 -34q-47 0 -81 33.5t-34 80.5q0 56 42 95t100 39zM496 829q48 0 79 -38t31 -89q0 -52 -40.5 -86 t-96.5 -34q-47 0 -81 33.5t-34 80.5q0 56 42 94.5t100 38.5z" />
<glyph unicode="&#xf8;" horiz-adv-x="997" d="M784 780l58 58q43 43 84 43q14 0 19 -9.5t5 -31.5q0 -21 -51 -72l-51 -49q102 -123 102 -283q0 -195 -136.5 -323.5t-334.5 -128.5q-155 0 -274 106l-66 -63q-29 -27 -41 -35t-26 -8t-20.5 16.5t-6.5 36.5q0 25 31 53l67 68q-98 134 -98 309q0 115 66.5 211.5t168 149.5 t209.5 53q167 0 295 -101zM287 295l381 373q-79 127 -193 127q-70 0 -123 -47.5t-77.5 -117t-24.5 -145.5q0 -103 37 -190zM330 213q87 -133 202 -133q68 0 118.5 46t74 113t23.5 142q0 110 -37 203z" />
<glyph unicode="&#xf9;" horiz-adv-x="1269" d="M34 0zM661 1119q-67 73 -154.5 178.5t-87.5 124.5q0 23 34.5 35t78.5 12q15 0 30.5 -11t24.5 -26q35 -61 94.5 -186t59.5 -146q0 -15 -3 -20.5t-16 -5.5q-21 0 -61 45zM238 705q0 76 -17 96t-89 39q-19 5 -30 8q-13 4 -22.5 16.5t-9.5 26.5q0 17 22.5 27t48.5 10 q41 0 96 -5t91 -5t92.5 5t91.5 5q27 0 49.5 -10t22.5 -27q0 -14 -9 -26.5t-22 -16.5q-11 -3 -35 -9.5t-30.5 -8.5t-22 -7.5t-19 -9t-12.5 -11.5t-10.5 -15.5t-5 -20t-4 -27t-0.5 -34.5v-338q0 -113 76.5 -196t185.5 -83q126 0 194 73t68 197v334q0 51 -33.5 95.5t-70.5 54.5 q-20 6 -31.5 20t-11.5 29q0 17 22.5 27t48.5 10q18 0 57.5 -5t61.5 -5q21 0 70 5t69 5q27 0 49.5 -10t22.5 -27q0 -35 -35 -43q-69 -19 -93 -53.5t-24 -94.5v-282q0 -186 -115 -314.5t-294 -128.5q-75 0 -139.5 24.5t-110.5 66.5t-78.5 99t-48.5 122.5t-16 136.5v281z" />
<glyph unicode="&#xfa;" horiz-adv-x="1269" d="M34 0zM656 1119q-40 -45 -62 -45q-12 0 -15 5t-3 21q0 21 59.5 145.5t95.5 186.5q9 15 25 26t31 11q43 0 76.5 -12t33.5 -35q0 -19 -87.5 -125.5t-153.5 -177.5zM238 705q0 76 -17 96t-89 39q-19 5 -30 8q-13 4 -22.5 16.5t-9.5 26.5q0 17 22.5 27t48.5 10q41 0 96 -5 t91 -5t92.5 5t91.5 5q27 0 49.5 -10t22.5 -27q0 -14 -9 -26.5t-22 -16.5q-11 -3 -35 -9.5t-30.5 -8.5t-22 -7.5t-19 -9t-12.5 -11.5t-10.5 -15.5t-5 -20t-4 -27t-0.5 -34.5v-338q0 -113 76.5 -196t185.5 -83q126 0 194 73t68 197v334q0 51 -33.5 95.5t-70.5 54.5 q-20 6 -31.5 20t-11.5 29q0 17 22.5 27t48.5 10q18 0 57.5 -5t61.5 -5q21 0 70 5t69 5q27 0 49.5 -10t22.5 -27q0 -35 -35 -43q-69 -19 -93 -53.5t-24 -94.5v-282q0 -186 -115 -314.5t-294 -128.5q-75 0 -139.5 24.5t-110.5 66.5t-78.5 99t-48.5 122.5t-16 136.5v281z" />
<glyph unicode="&#xfb;" horiz-adv-x="1269" d="M34 0zM639 1270q-38 -54 -123 -151q-40 -45 -61 -45q-13 0 -16 5.5t-3 20.5q0 20 68 147t113 201q21 37 41 37t41 -37q46 -76 114 -202t68 -146q0 -15 -3 -20.5t-16 -5.5q-21 0 -61 45q-89 102 -125 151q-19 25 -37 0zM238 705q0 76 -17 96t-89 39q-19 5 -30 8 q-13 4 -22.5 16.5t-9.5 26.5q0 17 22.5 27t48.5 10q41 0 96 -5t91 -5t92.5 5t91.5 5q27 0 49.5 -10t22.5 -27q0 -14 -9 -26.5t-22 -16.5q-11 -3 -35 -9.5t-30.5 -8.5t-22 -7.5t-19 -9t-12.5 -11.5t-10.5 -15.5t-5 -20t-4 -27t-0.5 -34.5v-338q0 -113 76.5 -196t185.5 -83 q126 0 194 73t68 197v334q0 51 -33.5 95.5t-70.5 54.5q-20 6 -31.5 20t-11.5 29q0 17 22.5 27t48.5 10q18 0 57.5 -5t61.5 -5q21 0 70 5t69 5q27 0 49.5 -10t22.5 -27q0 -35 -35 -43q-69 -19 -93 -53.5t-24 -94.5v-282q0 -186 -115 -314.5t-294 -128.5q-75 0 -139.5 24.5 t-110.5 66.5t-78.5 99t-48.5 122.5t-16 136.5v281z" />
<glyph unicode="&#xfc;" horiz-adv-x="1269" d="M34 0zM833 1350q44 0 76.5 -32.5t32.5 -76.5t-32.5 -76t-76.5 -32t-76 32t-32 76t32 76.5t76 32.5zM483 1350q44 0 76.5 -32.5t32.5 -76.5t-32.5 -76t-76.5 -32t-76 32t-32 76t32 76.5t76 32.5zM238 705q0 76 -17 96t-89 39q-19 5 -30 8q-13 4 -22.5 16.5t-9.5 26.5 q0 17 22.5 27t48.5 10q41 0 96 -5t91 -5t92.5 5t91.5 5q27 0 49.5 -10t22.5 -27q0 -14 -9 -26.5t-22 -16.5q-11 -3 -35 -9.5t-30.5 -8.5t-22 -7.5t-19 -9t-12.5 -11.5t-10.5 -15.5t-5 -20t-4 -27t-0.5 -34.5v-338q0 -113 76.5 -196t185.5 -83q126 0 194 73t68 197v334 q0 51 -33.5 95.5t-70.5 54.5q-20 6 -31.5 20t-11.5 29q0 17 22.5 27t48.5 10q18 0 57.5 -5t61.5 -5q21 0 70 5t69 5q27 0 49.5 -10t22.5 -27q0 -35 -35 -43q-69 -19 -93 -53.5t-24 -94.5v-282q0 -186 -115 -314.5t-294 -128.5q-75 0 -139.5 24.5t-110.5 66.5t-78.5 99 t-48.5 122.5t-16 136.5v281z" />
<glyph unicode="&#xfd;" horiz-adv-x="1124" d="M1 0zM525 1119q-40 -45 -62 -45q-12 0 -15 5t-3 21q0 21 59.5 145.5t95.5 186.5q9 15 25 26t31 11q43 0 76.5 -12t33.5 -35q0 -19 -87.5 -125.5t-153.5 -177.5zM768 678l-125 -170q-35 -47 -42 -71.5t-7 -71.5v-134q0 -68 6 -84q11 -26 59 -47q10 -4 28.5 -11.5t31 -13 t26 -12.5t20.5 -15t7 -17q0 -14 -22 -23.5t-43 -11.5q-3 0 -35 3t-80.5 6t-91.5 3q-42 0 -86.5 -3t-72.5 -6t-32 -3q-22 2 -44.5 12t-22.5 23q0 9 7 17t20 15t25.5 12.5t31 13t28.5 11.5q46 20 55 39t9 71v17v103q0 32 -14.5 74t-30.5 65l-123 188q-4 6 -18.5 29.5t-22.5 35 t-26.5 33.5t-37 35.5t-47.5 30t-63 27.5q-14 4 -23.5 16.5t-9.5 26.5q0 17 22.5 27t49.5 10q26 0 92 -5t94 -5q29 0 97 5t87 5q27 0 49.5 -10t22.5 -27q0 -14 -13 -28.5t-34 -20.5q-62 -15 -74 -35t15 -70l90 -147q15 -24 24 -33t22.5 -3.5t26 20.5t39.5 51l82 112 q24 34 16.5 65t-42.5 40q-20 6 -31.5 20t-11.5 29q0 17 22.5 27t48.5 10q18 0 57.5 -5t61.5 -5q21 0 75 5t75 5q26 0 48.5 -10t22.5 -27q0 -35 -35 -43q-49 -14 -63.5 -18.5t-44.5 -22.5t-55.5 -46.5t-69.5 -82.5z" />
<glyph unicode="&#xfe;" horiz-adv-x="911" d="M133 1155q0 31 -22 59t-58 41q-47 16 -47 48q0 16 18 28t42 15q35 6 85 18.5t85 21.5t43 9q17 0 20.5 -11t3.5 -46v-5v-530q0 -9 8.5 -12t20.5 8q28 28 97.5 55t133.5 27q82 0 154 -53t112.5 -134.5t40.5 -167.5q0 -139 -59 -262t-167.5 -199.5t-240.5 -76.5q-18 0 -36 6 t-29.5 12t-13.5 6q-13 0 -17 -6.5t-4 -21.5v-330q0 -52 26.5 -73.5t112.5 -45.5q88 -26 88 -53q0 -41 -69 -41q-20 0 -146.5 13.5t-236.5 13.5q-37 0 -54.5 11.5t-17.5 28.5q0 28 90 54q37 11 37 108v1485zM303 602v-383q0 -55 44.5 -91t103.5 -36q76 0 130 51t77.5 126 t23.5 163q0 54 -6 101t-22 92.5t-40.5 77.5t-64.5 51.5t-92 19.5q-67 0 -110.5 -51t-43.5 -121z" />
<glyph unicode="&#xff;" horiz-adv-x="1124" d="M1 0zM702 1350q44 0 76.5 -32.5t32.5 -76.5t-32.5 -76t-76.5 -32t-76 32t-32 76t32 76.5t76 32.5zM352 1350q44 0 76.5 -32.5t32.5 -76.5t-32.5 -76t-76.5 -32t-76 32t-32 76t32 76.5t76 32.5zM768 678l-125 -170q-35 -47 -42 -71.5t-7 -71.5v-134q0 -68 6 -84 q11 -26 59 -47q10 -4 28.5 -11.5t31 -13t26 -12.5t20.5 -15t7 -17q0 -14 -22 -23.5t-43 -11.5q-3 0 -35 3t-80.5 6t-91.5 3q-42 0 -86.5 -3t-72.5 -6t-32 -3q-22 2 -44.5 12t-22.5 23q0 9 7 17t20 15t25.5 12.5t31 13t28.5 11.5q46 20 55 39t9 71v17v103q0 32 -14.5 74 t-30.5 65l-123 188q-4 6 -18.5 29.5t-22.5 35t-26.5 33.5t-37 35.5t-47.5 30t-63 27.5q-14 4 -23.5 16.5t-9.5 26.5q0 17 22.5 27t49.5 10q26 0 92 -5t94 -5q29 0 97 5t87 5q27 0 49.5 -10t22.5 -27q0 -14 -13 -28.5t-34 -20.5q-62 -15 -74 -35t15 -70l90 -147 q15 -24 24 -33t22.5 -3.5t26 20.5t39.5 51l82 112q24 34 16.5 65t-42.5 40q-20 6 -31.5 20t-11.5 29q0 17 22.5 27t48.5 10q18 0 57.5 -5t61.5 -5q21 0 75 5t75 5q26 0 48.5 -10t22.5 -27q0 -35 -35 -43q-49 -14 -63.5 -18.5t-44.5 -22.5t-55.5 -46.5t-69.5 -82.5z" />
<glyph unicode="&#x100;" horiz-adv-x="1329" d="M20 0zM432 1519h539q9 0 18 -7.5t9 -16.5q0 -32 -20 -65.5t-44 -33.5h-522q-10 0 -19.5 8t-9.5 17q0 26 12 62t37 36zM1071 8q-77 0 -165 -6t-109 -6q-23 0 -44.5 9.5t-21.5 25.5q0 14 15.5 23.5t49.5 21t46 16.5q35 16 50.5 36t14 37t-5.5 36l-59 194q-8 25 -33 25h-342 q-24 0 -33 -23l-78 -223q-13 -27 -4 -51t49 -35q38 -10 57 -25.5t19 -31.5q0 -35 -71 -35q-20 0 -84 6t-84 6q-28 0 -72 -6t-57 -6q-30 0 -49 9t-19 26q0 14 16.5 24t50.5 21t46 16t20 9t16 9.5t12.5 8.5t9.5 10.5t7.5 10.5t7 14.5t6.5 16.5t8 21t9 25l313 866q9 22 17 45.5 t12 34t8.5 20.5t9 13t11.5 4q23 2 54 32t34 30q10 0 18 -7t15.5 -23t12.5 -30.5t13.5 -42t15.5 -45.5l271 -764q48 -135 79.5 -183.5t102.5 -74.5q82 -30 82 -63t-59 -33q-21 0 -86.5 6t-102.5 6zM487 557q-11 -25 -9 -34t28 -9h250q30 0 33.5 12t-11.5 62l-125 383 q-8 28 -22 -6z" />
<glyph unicode="&#x101;" horiz-adv-x="1089" d="M0 0zM403 1291h416q9 0 17.5 -8t8.5 -17q0 -38 -16.5 -69t-46.5 -31h-399q-11 0 -20 7.5t-9 16.5q0 26 12 63.5t37 37.5zM1001 98q34 -14 48 -29t14 -38q0 -14 -22.5 -23.5t-43.5 -11.5q-3 0 -24 3t-58.5 6t-80.5 3q-42 0 -79 -3t-58 -6t-25 -3q-22 2 -45 12t-23 23 q0 22 16.5 35.5t57.5 27.5q14 5 30.5 28.5t12.5 41.5l-33 108q-10 52 -59 52h-199q-24 0 -36.5 -11t-20.5 -34l-31 -95q-24 -73 25 -88q43 -13 65.5 -28t22.5 -37q0 -14 -22.5 -23.5t-43.5 -11.5q-3 0 -25.5 3t-61 6t-81.5 3q-42 0 -81 -3t-62 -6t-27 -3q-22 2 -44.5 12 t-22.5 23q0 21 35 41.5t77 33.5q73 24 97 82l268 623q2 5 6.5 17.5t8.5 20t10 12.5q15 13 35 31.5t33 31t27.5 25t24.5 18.5t17 6q11 0 28.5 -21.5t28.5 -58.5l209 -688q7 -23 38.5 -55.5t73.5 -51.5zM424 438q-6 -17 -1 -20.5t30 -3.5h157q6 0 9.5 0.5t6.5 0.5t3.5 2t1.5 3 t0 4.5t-1.5 5t-3 7.5t-3.5 9l-68 224q-4 11 -10 15t-12 -0.5t-11 -16.5z" />
<glyph unicode="&#x102;" horiz-adv-x="1329" d="M20 0zM471 1564q39 -47 89.5 -65.5t121.5 -18.5t121.5 18.5t89.5 65.5q1 2 5 7.5t6.5 8t6.5 8t7 8t7.5 5.5t8.5 4.5t8 1.5q9 0 14 -7.5t5.5 -16t0.5 -25.5q0 -71 -80 -142t-200 -71t-200.5 71t-80.5 142q0 20 6 34.5t15 14.5q4 0 8 -1.5t8.5 -4.5t7.5 -5.5t7 -8t6.5 -8 t6.5 -8t5 -7.5zM1071 8q-77 0 -165 -6t-109 -6q-23 0 -44.5 9.5t-21.5 25.5q0 14 15.5 23.5t49.5 21t46 16.5q35 16 50.5 36t14 37t-5.5 36l-59 194q-8 25 -33 25h-342q-24 0 -33 -23l-78 -223q-13 -27 -4 -51t49 -35q38 -10 57 -25.5t19 -31.5q0 -35 -71 -35q-20 0 -84 6 t-84 6q-28 0 -72 -6t-57 -6q-30 0 -49 9t-19 26q0 14 16.5 24t50.5 21t46 16t20 9t16 9.5t12.5 8.5t9.5 10.5t7.5 10.5t7 14.5t6.5 16.5t8 21t9 25l313 866q9 22 17 45.5t12 34t8.5 20.5t9 13t11.5 4q23 2 54 32t34 30q10 0 18 -7t15.5 -23t12.5 -30.5t13.5 -42t15.5 -45.5 l271 -764q48 -135 79.5 -183.5t102.5 -74.5q82 -30 82 -63t-59 -33q-21 0 -86.5 6t-102.5 6zM487 557q-11 -25 -9 -34t28 -9h250q30 0 33.5 12t-11.5 62l-125 383q-8 28 -22 -6z" />
<glyph unicode="&#x103;" horiz-adv-x="1089" d="M0 0zM436 1330q8 -41 48.5 -65t113.5 -24q137 0 154 89q9 43 31 43q14 0 22 -14.5t8 -35.5q0 -81 -68.5 -149t-170.5 -68q-99 0 -149 65t-50 152q0 21 8.5 35.5t22.5 14.5q21 0 30 -43zM1001 98q34 -14 48 -29t14 -38q0 -14 -22.5 -23.5t-43.5 -11.5q-3 0 -24 3t-58.5 6 t-80.5 3q-42 0 -79 -3t-58 -6t-25 -3q-22 2 -45 12t-23 23q0 22 16.5 35.5t57.5 27.5q14 5 30.5 28.5t12.5 41.5l-33 108q-10 52 -59 52h-199q-24 0 -36.5 -11t-20.5 -34l-31 -95q-24 -73 25 -88q43 -13 65.5 -28t22.5 -37q0 -14 -22.5 -23.5t-43.5 -11.5q-3 0 -25.5 3 t-61 6t-81.5 3q-42 0 -81 -3t-62 -6t-27 -3q-22 2 -44.5 12t-22.5 23q0 21 35 41.5t77 33.5q73 24 97 82l268 623q2 5 6.5 17.5t8.5 20t10 12.5q15 13 35 31.5t33 31t27.5 25t24.5 18.5t17 6q11 0 28.5 -21.5t28.5 -58.5l209 -688q7 -23 38.5 -55.5t73.5 -51.5zM424 438 q-6 -17 -1 -20.5t30 -3.5h157q6 0 9.5 0.5t6.5 0.5t3.5 2t1.5 3t0 4.5t-1.5 5t-3 7.5t-3.5 9l-68 224q-4 11 -10 15t-12 -0.5t-11 -16.5z" />
<glyph unicode="&#x104;" horiz-adv-x="1329" d="M20 0zM866 -561q-96 0 -157.5 66.5t-61.5 164.5q0 58 30.5 117t74 102t87.5 78t74 53l31 17h53q-7 -5 -19 -14.5t-42.5 -42t-53.5 -68t-42 -91t-19 -112.5q0 -54 33.5 -89.5t87.5 -35.5q25 0 54 11.5t49 25t40 28.5t23 17q7 5 16 2t9 -14q0 -66 -92 -140.5t-175 -74.5z M1071 8q-77 0 -165 -6t-109 -6q-23 0 -44.5 9.5t-21.5 25.5q0 14 15.5 23.5t49.5 21t46 16.5q35 16 50.5 36t14 37t-5.5 36l-59 194q-8 25 -33 25h-342q-24 0 -33 -23l-78 -223q-13 -27 -4 -51t49 -35q38 -10 57 -25.5t19 -31.5q0 -35 -71 -35q-20 0 -84 6t-84 6 q-28 0 -72 -6t-57 -6q-30 0 -49 9t-19 26q0 14 16.5 24t50.5 21t46 16t20 9t16 9.5t12.5 8.5t9.5 10.5t7.5 10.5t7 14.5t6.5 16.5t8 21t9 25l313 866q9 22 17 45.5t12 34t8.5 20.5t9 13t11.5 4q23 2 54 32t34 30q10 0 18 -7t15.5 -23t12.5 -30.5t13.5 -42t15.5 -45.5 l271 -764q48 -135 79.5 -183.5t102.5 -74.5q82 -30 82 -63t-59 -33q-21 0 -86.5 6t-102.5 6zM487 557q-11 -25 -9 -34t28 -9h250q30 0 33.5 12t-11.5 62l-125 383q-8 28 -22 -6z" />
<glyph unicode="&#x105;" horiz-adv-x="1089" d="M0 0zM614 -240q0 -54 22 -93.5t66 -39.5q86 0 135 67q18 27 29 27q25 0 25 -37q0 -89 -79.5 -153t-176.5 -64q-64 0 -106 62t-42 143q0 224 228 364h81q-70 -54 -105.5 -89.5t-56 -81.5t-20.5 -105zM1001 98q34 -14 48 -29t14 -38q0 -14 -22.5 -23.5t-43.5 -11.5 q-3 0 -24 3t-58.5 6t-80.5 3q-42 0 -79 -3t-58 -6t-25 -3q-22 2 -45 12t-23 23q0 22 16.5 35.5t57.5 27.5q14 5 30.5 28.5t12.5 41.5l-33 108q-10 52 -59 52h-199q-24 0 -36.5 -11t-20.5 -34l-31 -95q-24 -73 25 -88q43 -13 65.5 -28t22.5 -37q0 -14 -22.5 -23.5 t-43.5 -11.5q-3 0 -25.5 3t-61 6t-81.5 3q-42 0 -81 -3t-62 -6t-27 -3q-22 2 -44.5 12t-22.5 23q0 21 35 41.5t77 33.5q73 24 97 82l268 623q2 5 6.5 17.5t8.5 20t10 12.5q15 13 35 31.5t33 31t27.5 25t24.5 18.5t17 6q11 0 28.5 -21.5t28.5 -58.5l209 -688 q7 -23 38.5 -55.5t73.5 -51.5zM424 438q-6 -17 -1 -20.5t30 -3.5h157q6 0 9.5 0.5t6.5 0.5t3.5 2t1.5 3t0 4.5t-1.5 5t-3 7.5t-3.5 9l-68 224q-4 11 -10 15t-12 -0.5t-11 -16.5z" />
<glyph unicode="&#x106;" horiz-adv-x="1386" d="M46 0zM754 1331q-13 0 -13 12q0 13 11 31q17 28 44.5 77.5t52 90.5t48.5 76q18 26 55 26q31 0 81 -14t50 -33q0 -16 -26 -39q-95 -81 -267 -209q-23 -18 -36 -18zM836 1245q69 0 154 -19.5t151.5 -40.5t81.5 -22q61 -5 61 -225q0 -26 -10 -41.5t-27 -15.5q-23 0 -42 31 t-40 98q-20 63 -135.5 103t-234.5 40q-198 0 -334.5 -146t-136.5 -358q0 -117 41.5 -224.5t114 -189t177.5 -130t224 -48.5q50 0 91.5 12.5t69.5 29.5t57.5 50t46.5 58.5t47 72t50 74.5q11 17 37 17q13 0 23 -16t10 -42q0 -16 -82 -194q-26 -53 -41.5 -70.5t-52.5 -30.5 q-62 -22 -158 -36.5t-182 -14.5q-130 0 -255.5 42.5t-225.5 118t-161 189.5t-61 246q0 196 101.5 353.5t270.5 243t370 85.5z" />
<glyph unicode="&#x107;" horiz-adv-x="1046" d="M48 0zM596 1119q-40 -45 -62 -45q-12 0 -15 5t-3 21q0 21 59.5 145.5t95.5 186.5q9 15 25 26t31 11q43 0 76.5 -12t33.5 -35q0 -19 -87.5 -125.5t-153.5 -177.5zM637 963q66 0 133 -14.5t88 -30.5q60 -46 83.5 -69.5t23.5 -45.5q0 -50 -23 -101t-39 -51t-24.5 9t-25 42 t-32.5 58q-64 100 -207 100q-93 0 -164.5 -58t-107 -147t-35.5 -190q0 -98 33 -185t101 -145.5t157 -58.5q94 0 213 108q14 13 34 42t35 49t25 20q33 0 33 -49q0 -154 -70 -185q-176 -81 -313 -81q-125 0 -231 64.5t-166 172t-60 232.5q0 139 74.5 258t198.5 187.5t266 68.5 z" />
<glyph unicode="&#x108;" horiz-adv-x="1386" d="M46 0zM559 1323q-31 0 -31 20q0 13 15 25l200 170q31 28 46.5 36.5t37.5 8.5t37.5 -8.5t46.5 -36.5l201 -170q12 -10 12 -25q0 -22 -28 -22q-20 0 -113.5 39t-134.5 63q-13 7 -20.5 7t-20.5 -7q-41 -24 -134.5 -62t-113.5 -38zM836 1245q69 0 154 -19.5t151.5 -40.5 t81.5 -22q61 -5 61 -225q0 -26 -10 -41.5t-27 -15.5q-23 0 -42 31t-40 98q-20 63 -135.5 103t-234.5 40q-198 0 -334.5 -146t-136.5 -358q0 -117 41.5 -224.5t114 -189t177.5 -130t224 -48.5q50 0 91.5 12.5t69.5 29.5t57.5 50t46.5 58.5t47 72t50 74.5q11 17 37 17 q13 0 23 -16t10 -42q0 -16 -82 -194q-26 -53 -41.5 -70.5t-52.5 -30.5q-62 -22 -158 -36.5t-182 -14.5q-130 0 -255.5 42.5t-225.5 118t-161 189.5t-61 246q0 196 101.5 353.5t270.5 243t370 85.5z" />
<glyph unicode="&#x109;" horiz-adv-x="1046" d="M48 0zM579 1270q-38 -54 -123 -151q-40 -45 -61 -45q-13 0 -16 5.5t-3 20.5q0 20 68 147t113 201q21 37 41 37t41 -37q46 -76 114 -202t68 -146q0 -15 -3 -20.5t-16 -5.5q-21 0 -61 45q-89 102 -125 151q-19 25 -37 0zM637 963q66 0 133 -14.5t88 -30.5 q60 -46 83.5 -69.5t23.5 -45.5q0 -50 -23 -101t-39 -51t-24.5 9t-25 42t-32.5 58q-64 100 -207 100q-93 0 -164.5 -58t-107 -147t-35.5 -190q0 -98 33 -185t101 -145.5t157 -58.5q94 0 213 108q14 13 34 42t35 49t25 20q33 0 33 -49q0 -154 -70 -185q-176 -81 -313 -81 q-125 0 -231 64.5t-166 172t-60 232.5q0 139 74.5 258t198.5 187.5t266 68.5z" />
<glyph unicode="&#x10a;" horiz-adv-x="1386" d="M46 0zM819 1577q49 0 85 -35.5t36 -85.5t-36 -85.5t-85 -35.5t-85 35.5t-36 85.5t36 85.5t85 35.5zM836 1245q69 0 154 -19.5t151.5 -40.5t81.5 -22q61 -5 61 -225q0 -26 -10 -41.5t-27 -15.5q-23 0 -42 31t-40 98q-20 63 -135.5 103t-234.5 40q-198 0 -334.5 -146 t-136.5 -358q0 -117 41.5 -224.5t114 -189t177.5 -130t224 -48.5q50 0 91.5 12.5t69.5 29.5t57.5 50t46.5 58.5t47 72t50 74.5q11 17 37 17q13 0 23 -16t10 -42q0 -16 -82 -194q-26 -53 -41.5 -70.5t-52.5 -30.5q-62 -22 -158 -36.5t-182 -14.5q-130 0 -255.5 42.5 t-225.5 118t-161 189.5t-61 246q0 196 101.5 353.5t270.5 243t370 85.5z" />
<glyph unicode="&#x10b;" horiz-adv-x="1046" d="M48 0zM598 1391q46 0 79.5 -32.5t33.5 -78.5q0 -47 -33 -80.5t-80 -33.5t-80 33.5t-33 80.5q0 46 33.5 78.5t79.5 32.5zM637 963q66 0 133 -14.5t88 -30.5q60 -46 83.5 -69.5t23.5 -45.5q0 -50 -23 -101t-39 -51t-24.5 9t-25 42t-32.5 58q-64 100 -207 100 q-93 0 -164.5 -58t-107 -147t-35.5 -190q0 -98 33 -185t101 -145.5t157 -58.5q94 0 213 108q14 13 34 42t35 49t25 20q33 0 33 -49q0 -154 -70 -185q-176 -81 -313 -81q-125 0 -231 64.5t-166 172t-60 232.5q0 139 74.5 258t198.5 187.5t266 68.5z" />
<glyph unicode="&#x10c;" horiz-adv-x="1386" d="M46 0zM559 1611q20 0 113.5 -38t134.5 -62q13 -7 20.5 -7t20.5 7q42 24 135.5 63.5t112.5 39.5q13 0 20.5 -6.5t7.5 -16.5q0 -15 -12 -25l-201 -159q-46 -37 -60 -42q-10 -3 -24 -3q-20 0 -33 7t-41 30q-7 5 -10 8l-200 159q-15 12 -15 25q0 20 31 20zM836 1245 q69 0 154 -19.5t151.5 -40.5t81.5 -22q61 -5 61 -225q0 -26 -10 -41.5t-27 -15.5q-23 0 -42 31t-40 98q-20 63 -135.5 103t-234.5 40q-198 0 -334.5 -146t-136.5 -358q0 -117 41.5 -224.5t114 -189t177.5 -130t224 -48.5q50 0 91.5 12.5t69.5 29.5t57.5 50t46.5 58.5t47 72 t50 74.5q11 17 37 17q13 0 23 -16t10 -42q0 -16 -82 -194q-26 -53 -41.5 -70.5t-52.5 -30.5q-62 -22 -158 -36.5t-182 -14.5q-130 0 -255.5 42.5t-225.5 118t-161 189.5t-61 246q0 196 101.5 353.5t270.5 243t370 85.5z" />
<glyph unicode="&#x10d;" horiz-adv-x="1046" d="M48 0zM614 1278q42 59 123 152q40 45 61 45q13 0 16 -6t3 -21q0 -20 -68 -147.5t-112 -200.5q-21 -37 -41 -37t-41 37q-47 79 -115 203.5t-68 144.5q0 10 1 15t5 8.5t13 3.5q21 0 61 -45q84 -97 125 -152q19 -25 37 0zM637 963q66 0 133 -14.5t88 -30.5 q60 -46 83.5 -69.5t23.5 -45.5q0 -50 -23 -101t-39 -51t-24.5 9t-25 42t-32.5 58q-64 100 -207 100q-93 0 -164.5 -58t-107 -147t-35.5 -190q0 -98 33 -185t101 -145.5t157 -58.5q94 0 213 108q14 13 34 42t35 49t25 20q33 0 33 -49q0 -154 -70 -185q-176 -81 -313 -81 q-125 0 -231 64.5t-166 172t-60 232.5q0 139 74.5 258t198.5 187.5t266 68.5z" />
<glyph unicode="&#x10e;" horiz-adv-x="1466" d="M20 0zM440 1611q20 0 113.5 -38t134.5 -62q13 -7 20.5 -7t20.5 7q42 24 135.5 63.5t112.5 39.5q13 0 20.5 -6.5t7.5 -16.5q0 -15 -12 -25l-201 -159q-46 -37 -60 -42q-10 -3 -24 -3q-20 0 -33 7t-41 30q-7 5 -10 8l-200 159q-15 12 -15 25q0 20 31 20zM690 1225 q103 0 203 -25.5t186.5 -76t152.5 -118.5t104 -159t38 -193q0 -136 -39 -254t-115 -211.5t-200.5 -147.5t-284.5 -54q-110 0 -236.5 11t-160.5 11q-41 0 -95 -3t-92 -6t-42 -3q-24 2 -46 11t-22 24q0 14 16.5 24t50.5 21t46 16q96 44 96 172v723q0 22 -3 39t-6 29t-14 22.5 t-16.5 16t-24.5 13t-27.5 10.5t-36.5 10.5t-40 11.5q-33 11 -33 35q0 36 72 36q32 0 83 -1t81 -1q63 0 202 8.5t203 8.5zM444 1067v-725q0 -79 25 -132.5t72.5 -81.5t102.5 -39t128 -11q88 0 160.5 46.5t118 123t70 171t24.5 193.5q0 147 -69.5 266.5t-189 187t-263.5 67.5 q-72 0 -125.5 -17t-53.5 -49z" />
<glyph unicode="&#x10f;" horiz-adv-x="1185" d="M30 0zM594 1278q42 59 123 152q40 45 61 45q13 0 16 -6t3 -21q0 -20 -68 -147.5t-112 -200.5q-21 -37 -41 -37t-41 37q-47 79 -115 203.5t-68 144.5q0 10 1 15t5 8.5t13 3.5q21 0 61 -45q84 -97 125 -152q19 -25 37 0zM319 8q-42 0 -86 -3t-72 -6t-32 -3q-22 2 -45 12 t-23 23q0 9 7 17t20.5 15t26 12.5t31 13t28.5 11.5q10 5 18.5 10.5t15 10.5t11.5 14t8 13.5t5 17t3.5 16.5t2 19.5t0.5 19v21.5v22v441q0 76 -17 96t-89 39q-19 5 -30 8q-13 4 -22.5 16.5t-9.5 26.5q0 17 22.5 27t48.5 10q58 0 193 10t219 10q81 0 161 -15t153.5 -47 t129.5 -77.5t89.5 -111t33.5 -142.5q0 -237 -153 -396t-379 -159q-32 0 -139 4t-130 4zM414 713v-462q0 -67 51 -110t147 -43q99 0 169.5 59.5t102 147.5t31.5 191q0 146 -102.5 245t-245.5 99q-92 0 -122.5 -26t-30.5 -101z" />
<glyph unicode="&#x110;" horiz-adv-x="1386" d="M34 0zM522 1212h158q76 -4 240 -49q60 -3 184 -80q0 -3 10.5 -13t43.5 -40t61 -57q14 -27 65 -99q62 -141 62 -217v-14q-12 -221 -35 -221q-24 -91 -76 -170q-12 -42 -152 -131q-23 -31 -133 -68q-28 -32 -162 -49q-58 -4 -69 -4h-21q-355 14 -366 14l-221 -51h-13 q-28 3 -28 31v4q0 50 82 80q88 76 88 184v47q0 42 14 217q-10 92 -10 109q2 32 4 61t3 43t1 17q0 315 -41 315q-9 22 -113 49q-20 8 -28 25v8q0 37 118 37q0 6 23 6q19 -2 35.5 -4t25 -3t9.5 -1q151 24 241 24zM446 1061v-39q-12 -225 -12 -260q2 -147 2 -322 q0 -240 105 -311q85 -63 217 -63q88 0 196 81q94 109 107 197q47 74 47 180q4 4 4 78q0 3 -51 178q-16 86 -72 133q-92 109 -160 138q-116 73 -204 73q-40 0 -52 2q-127 0 -127 -65z" />
<glyph unicode="&#x111;" horiz-adv-x="911" d="M236 477q0 -95 28.5 -175.5t90 -133.5t145.5 -53q64 0 111.5 34.5t47.5 92.5v313q0 97 -67 167.5t-162 70.5q-51 0 -90 -28.5t-61 -76t-32.5 -101t-10.5 -110.5zM805 1395q9 0 14 -2.5t7 -12t2.5 -15.5t0.5 -26v-192h258q36 0 52 37q23 61 45 61q35 0 56.5 -38.5 t21.5 -108.5q0 -21 -12 -35t-29 -14h-392v-877q0 -33 8 -45t25 -12q15 0 59.5 6t51.5 6q8 0 17 -11.5t9 -21.5q0 -38 -26 -51q-27 -13 -137 -40.5t-134 -27.5q-11 0 -18.5 9.5t-9.5 19.5q-11 37 -19 78q-3 15 -8 16t-16 -14q-34 -49 -89.5 -74.5t-119.5 -25.5 q-155 0 -265 115.5t-110 273.5q0 129 51.5 244.5t151 189.5t223.5 74q48 0 92.5 -15.5t67.5 -38.5q7 -6 11 -7t7 3.5t4.5 12.5t3.5 24v189h-395q-49 0 -49 28q0 27 17 48.5t51 21.5h376v14q0 27 -24 54t-60 40q-47 16 -47 48q0 16 18 28t42 15q35 6 86 18.5t87 21.5t44 9z " />
<glyph unicode="&#x112;" horiz-adv-x="1165" d="M20 0zM370 1519h539q9 0 18 -7.5t9 -16.5q0 -32 -20 -65.5t-44 -33.5h-522q-10 0 -19.5 8t-9.5 17q0 26 12 62t37 36zM444 729q0 -63 48 -63h176q31 0 54.5 8t35 17.5t35.5 31.5q7 6 20 21t23 22.5t20 7.5q23 0 23 -41q0 -6 -4.5 -54t-4.5 -65q0 -16 1 -61t1 -55 q0 -19 -6.5 -36.5t-19.5 -17.5q-8 0 -16 5.5t-16 16.5t-13 19.5t-12 21t-9 15.5q-9 14 -15.5 22t-21 14.5t-34.5 6.5h-215q-29 0 -39.5 -10t-10.5 -39v-229q0 -85 36 -140t106 -55h223q45 0 78.5 8t55.5 21t41.5 38.5t32 49t32.5 65.5q3 6 4 9q7 17 24 28t31 11q29 0 29 -52 q0 -38 -30.5 -122.5t-47.5 -112.5q-13 -25 -21.5 -32t-33.5 -7q-20 0 -279 5t-385 5q-42 0 -96.5 -2.5t-92.5 -5t-42 -2.5q-22 2 -45 12t-23 23q0 14 16.5 24t50.5 21t46 16q96 43 96 172v723q0 18 -2 32t-4 25.5t-8.5 21t-10.5 16t-15.5 13t-17.5 10t-22.5 9t-24.5 8 t-30 8.5l-33 9q-33 11 -33 35q0 36 72 36h588q49 0 140 5.5t103 5.5q48 0 54 -29q5 -23 11.5 -85.5t6.5 -82.5q0 -53 -33 -53q-18 0 -38.5 23t-34.5 55q-13 29 -55 48t-111 19h-244q-39 0 -51.5 -10.5t-12.5 -32.5v-344z" />
<glyph unicode="&#x113;" horiz-adv-x="907" d="M30 0zM262 1291h416q9 0 17.5 -8t8.5 -17q0 -38 -16.5 -69t-46.5 -31h-399q-11 0 -20 7.5t-9 16.5q0 26 12 63.5t37 37.5zM319 8q-27 0 -99 -6t-91 -6q-21 0 -44.5 10.5t-23.5 24.5q0 9 7 17t20.5 15t26 12.5t31 13t28.5 11.5q10 5 18.5 10.5t15 10.5t11.5 14t8 13.5 t5 17t3.5 16.5t2 19.5t0.5 19v21.5v22v441q0 76 -17 96t-89 39q-19 5 -30 8q-13 4 -22.5 16.5t-9.5 26.5q0 17 22.5 27t48.5 10q41 0 96 -4t91 -4q34 0 189 4t200 4q25 0 29.5 -4t13.5 -35q12 -36 12 -101q0 -22 -8.5 -42.5t-26.5 -20.5q-41 0 -67 70q-5 13 -23.5 24.5 t-40.5 11.5h-143q-33 0 -41 -9t-8 -40v-176q0 -19 0.5 -30.5t3.5 -25t10 -20t18 -6.5h103q31 0 52.5 13t31.5 28t22 28t25 13q14 0 19.5 -31.5t5.5 -105.5q0 -81 -4.5 -110t-24.5 -29q-12 0 -23.5 14t-21 31t-32 31t-54.5 14h-94q-23 0 -28 -6q-9 -10 -9 -62v-139 q0 -38 17.5 -63t53.5 -25h172q18 0 34 18t24.5 35.5t21.5 49.5q3 7 4 10q6 18 21.5 31.5t30.5 13.5q20 0 32.5 -19.5t12.5 -56.5q0 -53 -32.5 -132t-57.5 -79q-68 0 -211.5 6t-217.5 6z" />
<glyph unicode="&#x114;" horiz-adv-x="1165" d="M20 0zM410 1564q39 -47 89.5 -65.5t121.5 -18.5t121.5 18.5t89.5 65.5q1 2 5 7.5t6.5 8t6.5 8t7 8t7.5 5.5t8.5 4.5t8 1.5q9 0 14 -7.5t5.5 -16t0.5 -25.5q0 -71 -80 -142t-200 -71t-200.5 71t-80.5 142q0 20 6 34.5t15 14.5q4 0 8 -1.5t8.5 -4.5t7.5 -5.5t7 -8t6.5 -8 t6.5 -8t5 -7.5zM444 729q0 -63 48 -63h176q31 0 54.5 8t35 17.5t35.5 31.5q7 6 20 21t23 22.5t20 7.5q23 0 23 -41q0 -6 -4.5 -54t-4.5 -65q0 -16 1 -61t1 -55q0 -19 -6.5 -36.5t-19.5 -17.5q-8 0 -16 5.5t-16 16.5t-13 19.5t-12 21t-9 15.5q-9 14 -15.5 22t-21 14.5 t-34.5 6.5h-215q-29 0 -39.5 -10t-10.5 -39v-229q0 -85 36 -140t106 -55h223q45 0 78.5 8t55.5 21t41.5 38.5t32 49t32.5 65.5q3 6 4 9q7 17 24 28t31 11q29 0 29 -52q0 -38 -30.5 -122.5t-47.5 -112.5q-13 -25 -21.5 -32t-33.5 -7q-20 0 -279 5t-385 5q-42 0 -96.5 -2.5 t-92.5 -5t-42 -2.5q-22 2 -45 12t-23 23q0 14 16.5 24t50.5 21t46 16q96 43 96 172v723q0 18 -2 32t-4 25.5t-8.5 21t-10.5 16t-15.5 13t-17.5 10t-22.5 9t-24.5 8t-30 8.5l-33 9q-33 11 -33 35q0 36 72 36h588q49 0 140 5.5t103 5.5q48 0 54 -29q5 -23 11.5 -85.5 t6.5 -82.5q0 -53 -33 -53q-18 0 -38.5 23t-34.5 55q-13 29 -55 48t-111 19h-244q-39 0 -51.5 -10.5t-12.5 -32.5v-344z" />
<glyph unicode="&#x115;" horiz-adv-x="907" d="M30 0zM294 1330q8 -41 48.5 -65t113.5 -24q137 0 154 89q9 43 31 43q14 0 22 -14.5t8 -35.5q0 -81 -68.5 -149t-170.5 -68q-99 0 -149 65t-50 152q0 21 8.5 35.5t22.5 14.5q21 0 30 -43zM319 8q-27 0 -99 -6t-91 -6q-21 0 -44.5 10.5t-23.5 24.5q0 9 7 17t20.5 15 t26 12.5t31 13t28.5 11.5q10 5 18.5 10.5t15 10.5t11.5 14t8 13.5t5 17t3.5 16.5t2 19.5t0.5 19v21.5v22v441q0 76 -17 96t-89 39q-19 5 -30 8q-13 4 -22.5 16.5t-9.5 26.5q0 17 22.5 27t48.5 10q41 0 96 -4t91 -4q34 0 189 4t200 4q25 0 29.5 -4t13.5 -35q12 -36 12 -101 q0 -22 -8.5 -42.5t-26.5 -20.5q-41 0 -67 70q-5 13 -23.5 24.5t-40.5 11.5h-143q-33 0 -41 -9t-8 -40v-176q0 -19 0.5 -30.5t3.5 -25t10 -20t18 -6.5h103q31 0 52.5 13t31.5 28t22 28t25 13q14 0 19.5 -31.5t5.5 -105.5q0 -81 -4.5 -110t-24.5 -29q-12 0 -23.5 14t-21 31 t-32 31t-54.5 14h-94q-23 0 -28 -6q-9 -10 -9 -62v-139q0 -38 17.5 -63t53.5 -25h172q18 0 34 18t24.5 35.5t21.5 49.5q3 7 4 10q6 18 21.5 31.5t30.5 13.5q20 0 32.5 -19.5t12.5 -56.5q0 -53 -32.5 -132t-57.5 -79q-68 0 -211.5 6t-217.5 6z" />
<glyph unicode="&#x116;" horiz-adv-x="1165" d="M20 0zM618 1577q49 0 85 -35.5t36 -85.5t-36 -85.5t-85 -35.5t-85 35.5t-36 85.5t36 85.5t85 35.5zM444 729q0 -63 48 -63h176q31 0 54.5 8t35 17.5t35.5 31.5q7 6 20 21t23 22.5t20 7.5q23 0 23 -41q0 -6 -4.5 -54t-4.5 -65q0 -16 1 -61t1 -55q0 -19 -6.5 -36.5 t-19.5 -17.5q-8 0 -16 5.5t-16 16.5t-13 19.5t-12 21t-9 15.5q-9 14 -15.5 22t-21 14.5t-34.5 6.5h-215q-29 0 -39.5 -10t-10.5 -39v-229q0 -85 36 -140t106 -55h223q45 0 78.5 8t55.5 21t41.5 38.5t32 49t32.5 65.5q3 6 4 9q7 17 24 28t31 11q29 0 29 -52 q0 -38 -30.5 -122.5t-47.5 -112.5q-13 -25 -21.5 -32t-33.5 -7q-20 0 -279 5t-385 5q-42 0 -96.5 -2.5t-92.5 -5t-42 -2.5q-22 2 -45 12t-23 23q0 14 16.5 24t50.5 21t46 16q96 43 96 172v723q0 18 -2 32t-4 25.5t-8.5 21t-10.5 16t-15.5 13t-17.5 10t-22.5 9t-24.5 8 t-30 8.5l-33 9q-33 11 -33 35q0 36 72 36h588q49 0 140 5.5t103 5.5q48 0 54 -29q5 -23 11.5 -85.5t6.5 -82.5q0 -53 -33 -53q-18 0 -38.5 23t-34.5 55q-13 29 -55 48t-111 19h-244q-39 0 -51.5 -10.5t-12.5 -32.5v-344z" />
<glyph unicode="&#x117;" horiz-adv-x="907" d="M30 0zM455 1391q46 0 79.5 -32.5t33.5 -78.5q0 -47 -33 -80.5t-80 -33.5t-80 33.5t-33 80.5q0 46 33.5 78.5t79.5 32.5zM319 8q-27 0 -99 -6t-91 -6q-21 0 -44.5 10.5t-23.5 24.5q0 9 7 17t20.5 15t26 12.5t31 13t28.5 11.5q10 5 18.5 10.5t15 10.5t11.5 14t8 13.5t5 17 t3.5 16.5t2 19.5t0.5 19v21.5v22v441q0 76 -17 96t-89 39q-19 5 -30 8q-13 4 -22.5 16.5t-9.5 26.5q0 17 22.5 27t48.5 10q41 0 96 -4t91 -4q34 0 189 4t200 4q25 0 29.5 -4t13.5 -35q12 -36 12 -101q0 -22 -8.5 -42.5t-26.5 -20.5q-41 0 -67 70q-5 13 -23.5 24.5 t-40.5 11.5h-143q-33 0 -41 -9t-8 -40v-176q0 -19 0.5 -30.5t3.5 -25t10 -20t18 -6.5h103q31 0 52.5 13t31.5 28t22 28t25 13q14 0 19.5 -31.5t5.5 -105.5q0 -81 -4.5 -110t-24.5 -29q-12 0 -23.5 14t-21 31t-32 31t-54.5 14h-94q-23 0 -28 -6q-9 -10 -9 -62v-139 q0 -38 17.5 -63t53.5 -25h172q18 0 34 18t24.5 35.5t21.5 49.5q3 7 4 10q6 18 21.5 31.5t30.5 13.5q20 0 32.5 -19.5t12.5 -56.5q0 -53 -32.5 -132t-57.5 -79q-68 0 -211.5 6t-217.5 6z" />
<glyph unicode="&#x118;" horiz-adv-x="1165" d="M20 0zM866 -561q-96 0 -157.5 66.5t-61.5 164.5q0 58 30.5 117t74 102t87.5 78t74 53l31 17h53q-7 -5 -19 -14.5t-42.5 -42t-53.5 -68t-42 -91t-19 -112.5q0 -54 33.5 -89.5t87.5 -35.5q25 0 54 11.5t49 25t40 28.5t23 17q7 5 16 2t9 -14q0 -66 -92 -140.5t-175 -74.5z M444 729q0 -63 48 -63h176q31 0 54.5 8t35 17.5t35.5 31.5q7 6 20 21t23 22.5t20 7.5q23 0 23 -41q0 -6 -4.5 -54t-4.5 -65q0 -16 1 -61t1 -55q0 -19 -6.5 -36.5t-19.5 -17.5q-8 0 -16 5.5t-16 16.5t-13 19.5t-12 21t-9 15.5q-9 14 -15.5 22t-21 14.5t-34.5 6.5h-215 q-29 0 -39.5 -10t-10.5 -39v-229q0 -85 36 -140t106 -55h223q45 0 78.5 8t55.5 21t41.5 38.5t32 49t32.5 65.5q3 6 4 9q7 17 24 28t31 11q29 0 29 -52q0 -38 -30.5 -122.5t-47.5 -112.5q-13 -25 -21.5 -32t-33.5 -7q-20 0 -279 5t-385 5q-42 0 -96.5 -2.5t-92.5 -5t-42 -2.5 q-22 2 -45 12t-23 23q0 14 16.5 24t50.5 21t46 16q96 43 96 172v723q0 18 -2 32t-4 25.5t-8.5 21t-10.5 16t-15.5 13t-17.5 10t-22.5 9t-24.5 8t-30 8.5l-33 9q-33 11 -33 35q0 36 72 36h588q49 0 140 5.5t103 5.5q48 0 54 -29q5 -23 11.5 -85.5t6.5 -82.5q0 -53 -33 -53 q-18 0 -38.5 23t-34.5 55q-13 29 -55 48t-111 19h-244q-39 0 -51.5 -10.5t-12.5 -32.5v-344z" />
<glyph unicode="&#x119;" horiz-adv-x="907" d="M30 0zM532 -240q0 -54 22 -93.5t66 -39.5q86 0 135 67q18 27 29 27q25 0 25 -37q0 -89 -79.5 -153t-176.5 -64q-64 0 -106 62t-42 143q0 224 228 364h81q-70 -54 -105.5 -89.5t-56 -81.5t-20.5 -105zM319 8q-27 0 -99 -6t-91 -6q-21 0 -44.5 10.5t-23.5 24.5q0 9 7 17 t20.5 15t26 12.5t31 13t28.5 11.5q10 5 18.5 10.5t15 10.5t11.5 14t8 13.5t5 17t3.5 16.5t2 19.5t0.5 19v21.5v22v441q0 76 -17 96t-89 39q-19 5 -30 8q-13 4 -22.5 16.5t-9.5 26.5q0 17 22.5 27t48.5 10q41 0 96 -4t91 -4q34 0 189 4t200 4q25 0 29.5 -4t13.5 -35 q12 -36 12 -101q0 -22 -8.5 -42.5t-26.5 -20.5q-41 0 -67 70q-5 13 -23.5 24.5t-40.5 11.5h-143q-33 0 -41 -9t-8 -40v-176q0 -19 0.5 -30.5t3.5 -25t10 -20t18 -6.5h103q31 0 52.5 13t31.5 28t22 28t25 13q14 0 19.5 -31.5t5.5 -105.5q0 -81 -4.5 -110t-24.5 -29 q-12 0 -23.5 14t-21 31t-32 31t-54.5 14h-94q-23 0 -28 -6q-9 -10 -9 -62v-139q0 -38 17.5 -63t53.5 -25h172q18 0 34 18t24.5 35.5t21.5 49.5q3 7 4 10q6 18 21.5 31.5t30.5 13.5q20 0 32.5 -19.5t12.5 -56.5q0 -53 -32.5 -132t-57.5 -79q-68 0 -211.5 6t-217.5 6z" />
<glyph unicode="&#x11a;" horiz-adv-x="1165" d="M20 0zM358 1611q20 0 113.5 -38t134.5 -62q13 -7 20.5 -7t20.5 7q42 24 135.5 63.5t112.5 39.5q13 0 20.5 -6.5t7.5 -16.5q0 -15 -12 -25l-201 -159q-46 -37 -60 -42q-10 -3 -24 -3q-20 0 -33 7t-41 30q-7 5 -10 8l-200 159q-15 12 -15 25q0 20 31 20zM444 729 q0 -63 48 -63h176q31 0 54.5 8t35 17.5t35.5 31.5q7 6 20 21t23 22.5t20 7.5q23 0 23 -41q0 -6 -4.5 -54t-4.5 -65q0 -16 1 -61t1 -55q0 -19 -6.5 -36.5t-19.5 -17.5q-8 0 -16 5.5t-16 16.5t-13 19.5t-12 21t-9 15.5q-9 14 -15.5 22t-21 14.5t-34.5 6.5h-215 q-29 0 -39.5 -10t-10.5 -39v-229q0 -85 36 -140t106 -55h223q45 0 78.5 8t55.5 21t41.5 38.5t32 49t32.5 65.5q3 6 4 9q7 17 24 28t31 11q29 0 29 -52q0 -38 -30.5 -122.5t-47.5 -112.5q-13 -25 -21.5 -32t-33.5 -7q-20 0 -279 5t-385 5q-42 0 -96.5 -2.5t-92.5 -5t-42 -2.5 q-22 2 -45 12t-23 23q0 14 16.5 24t50.5 21t46 16q96 43 96 172v723q0 18 -2 32t-4 25.5t-8.5 21t-10.5 16t-15.5 13t-17.5 10t-22.5 9t-24.5 8t-30 8.5l-33 9q-33 11 -33 35q0 36 72 36h588q49 0 140 5.5t103 5.5q48 0 54 -29q5 -23 11.5 -85.5t6.5 -82.5q0 -53 -33 -53 q-18 0 -38.5 23t-34.5 55q-13 29 -55 48t-111 19h-244q-39 0 -51.5 -10.5t-12.5 -32.5v-344z" />
<glyph unicode="&#x11b;" horiz-adv-x="907" d="M30 0zM471 1278q42 59 123 152q40 45 61 45q13 0 16 -6t3 -21q0 -20 -68 -147.5t-112 -200.5q-21 -37 -41 -37t-41 37q-47 79 -115 203.5t-68 144.5q0 10 1 15t5 8.5t13 3.5q21 0 61 -45q84 -97 125 -152q19 -25 37 0zM319 8q-27 0 -99 -6t-91 -6q-21 0 -44.5 10.5 t-23.5 24.5q0 9 7 17t20.5 15t26 12.5t31 13t28.5 11.5q10 5 18.5 10.5t15 10.5t11.5 14t8 13.5t5 17t3.5 16.5t2 19.5t0.5 19v21.5v22v441q0 76 -17 96t-89 39q-19 5 -30 8q-13 4 -22.5 16.5t-9.5 26.5q0 17 22.5 27t48.5 10q41 0 96 -4t91 -4q34 0 189 4t200 4 q25 0 29.5 -4t13.5 -35q12 -36 12 -101q0 -22 -8.5 -42.5t-26.5 -20.5q-41 0 -67 70q-5 13 -23.5 24.5t-40.5 11.5h-143q-33 0 -41 -9t-8 -40v-176q0 -19 0.5 -30.5t3.5 -25t10 -20t18 -6.5h103q31 0 52.5 13t31.5 28t22 28t25 13q14 0 19.5 -31.5t5.5 -105.5 q0 -81 -4.5 -110t-24.5 -29q-12 0 -23.5 14t-21 31t-32 31t-54.5 14h-94q-23 0 -28 -6q-9 -10 -9 -62v-139q0 -38 17.5 -63t53.5 -25h172q18 0 34 18t24.5 35.5t21.5 49.5q3 7 4 10q6 18 21.5 31.5t30.5 13.5q20 0 32.5 -19.5t12.5 -56.5q0 -53 -32.5 -132t-57.5 -79 q-68 0 -211.5 6t-217.5 6z" />
<glyph unicode="&#x11c;" horiz-adv-x="1454" d="M46 0zM582 1323q-31 0 -31 20q0 13 15 25l200 170q31 28 46.5 36.5t37.5 8.5t37.5 -8.5t46.5 -36.5l201 -170q12 -10 12 -25q0 -22 -28 -22q-20 0 -113.5 39t-134.5 63q-13 7 -20.5 7t-20.5 -7q-41 -24 -134.5 -62t-113.5 -38zM858 1245q67 0 119 -6.5t79 -13.5 t77.5 -23.5t85.5 -25.5q7 -2 12 -7t8.5 -13.5t5.5 -14.5t4.5 -18t3.5 -15q7 -27 16 -94.5t9 -106.5q0 -13 -9.5 -21.5t-23.5 -8.5q-24 0 -67 81q-54 101 -157 148t-233 47q-132 0 -239.5 -75t-166 -196.5t-58.5 -260.5q0 -149 60.5 -281t175.5 -215.5t257 -83.5 q83 0 173.5 26t90.5 52v248q0 18 -36.5 44.5t-73.5 39.5q-12 4 -33 11.5t-28.5 10.5t-18 9t-14 12.5t-3.5 15.5q0 16 13.5 24.5t30.5 8.5q24 0 131.5 -4t144.5 -4q36 0 95.5 4t82.5 4q41 0 41 -41q0 -10 -15 -25t-34 -22q-25 -10 -58.5 -38.5t-33.5 -45.5v-215 q0 -20 14 -39.5t27.5 -33t13.5 -20.5q0 -34 -216.5 -73t-381.5 -39q-161 0 -307.5 80.5t-237 219.5t-90.5 298q0 200 104.5 360.5t279 248t380.5 87.5z" />
<glyph unicode="&#x11d;" horiz-adv-x="1028" d="M39 0zM592 1270q-38 -54 -123 -151q-40 -45 -61 -45q-13 0 -16 5.5t-3 20.5q0 20 68 147t113 201q21 37 41 37t41 -37q46 -76 114 -202t68 -146q0 -15 -3 -20.5t-16 -5.5q-21 0 -61 45q-89 102 -125 151q-19 25 -37 0zM895 158q0 -14 1 -30.5t0.5 -22t-1.5 -13t-7 -11.5 t-13.5 -8t-24.5 -12q-175 -81 -313 -81q-125 0 -231 64.5t-166 172t-60 232.5q0 139 74.5 258t198 187.5t265.5 68.5q150 0 265 -50q19 -9 30 -29.5t11 -43.5q0 -56 -12.5 -116t-26.5 -60q-25 0 -40.5 21t-35.5 75q-17 46 -80 73t-133 27q-93 0 -164.5 -58t-107 -147 t-35.5 -190q0 -98 33 -185t101 -145.5t157 -58.5q54 0 96.5 27.5t42.5 64.5v108q0 34 -21.5 47t-113.5 39q-14 4 -23.5 17t-9.5 27q0 17 22.5 26.5t49.5 9.5q41 0 95.5 -5t90.5 -5t70 5t69 5q53 0 53 -36q0 -14 -9 -27t-21 -17q-76 -25 -76 -86v-118z" />
<glyph unicode="&#x11e;" horiz-adv-x="1454" d="M46 0zM633 1564q39 -47 89.5 -65.5t121.5 -18.5t121.5 18.5t89.5 65.5q1 2 5 7.5t6.5 8t6.5 8t7 8t7.5 5.5t8.5 4.5t8 1.5q9 0 14 -7.5t5.5 -16t0.5 -25.5q0 -71 -80 -142t-200 -71t-200.5 71t-80.5 142q0 20 6 34.5t15 14.5q4 0 8 -1.5t8.5 -4.5t7.5 -5.5t7 -8t6.5 -8 t6.5 -8t5 -7.5zM858 1245q67 0 119 -6.5t79 -13.5t77.5 -23.5t85.5 -25.5q7 -2 12 -7t8.5 -13.5t5.5 -14.5t4.5 -18t3.5 -15q7 -27 16 -94.5t9 -106.5q0 -13 -9.5 -21.5t-23.5 -8.5q-24 0 -67 81q-54 101 -157 148t-233 47q-132 0 -239.5 -75t-166 -196.5t-58.5 -260.5 q0 -149 60.5 -281t175.5 -215.5t257 -83.5q83 0 173.5 26t90.5 52v248q0 18 -36.5 44.5t-73.5 39.5q-12 4 -33 11.5t-28.5 10.5t-18 9t-14 12.5t-3.5 15.5q0 16 13.5 24.5t30.5 8.5q24 0 131.5 -4t144.5 -4q36 0 95.5 4t82.5 4q41 0 41 -41q0 -10 -15 -25t-34 -22 q-25 -10 -58.5 -38.5t-33.5 -45.5v-215q0 -20 14 -39.5t27.5 -33t13.5 -20.5q0 -34 -216.5 -73t-381.5 -39q-161 0 -307.5 80.5t-237 219.5t-90.5 298q0 200 104.5 360.5t279 248t380.5 87.5z" />
<glyph unicode="&#x11f;" horiz-adv-x="1028" d="M39 0zM450 1330q8 -41 48.5 -65t113.5 -24q137 0 154 89q9 43 31 43q14 0 22 -14.5t8 -35.5q0 -81 -68.5 -149t-170.5 -68q-99 0 -149 65t-50 152q0 21 8.5 35.5t22.5 14.5q21 0 30 -43zM895 158q0 -14 1 -30.5t0.5 -22t-1.5 -13t-7 -11.5t-13.5 -8t-24.5 -12 q-175 -81 -313 -81q-125 0 -231 64.5t-166 172t-60 232.5q0 139 74.5 258t198 187.5t265.5 68.5q150 0 265 -50q19 -9 30 -29.5t11 -43.5q0 -56 -12.5 -116t-26.5 -60q-25 0 -40.5 21t-35.5 75q-17 46 -80 73t-133 27q-93 0 -164.5 -58t-107 -147t-35.5 -190q0 -98 33 -185 t101 -145.5t157 -58.5q54 0 96.5 27.5t42.5 64.5v108q0 34 -21.5 47t-113.5 39q-14 4 -23.5 17t-9.5 27q0 17 22.5 26.5t49.5 9.5q41 0 95.5 -5t90.5 -5t70 5t69 5q53 0 53 -36q0 -14 -9 -27t-21 -17q-76 -25 -76 -86v-118z" />
<glyph unicode="&#x120;" horiz-adv-x="1454" d="M46 0zM842 1577q49 0 85 -35.5t36 -85.5t-36 -85.5t-85 -35.5t-85 35.5t-36 85.5t36 85.5t85 35.5zM858 1245q67 0 119 -6.5t79 -13.5t77.5 -23.5t85.5 -25.5q7 -2 12 -7t8.5 -13.5t5.5 -14.5t4.5 -18t3.5 -15q7 -27 16 -94.5t9 -106.5q0 -13 -9.5 -21.5t-23.5 -8.5 q-24 0 -67 81q-54 101 -157 148t-233 47q-132 0 -239.5 -75t-166 -196.5t-58.5 -260.5q0 -149 60.5 -281t175.5 -215.5t257 -83.5q83 0 173.5 26t90.5 52v248q0 18 -36.5 44.5t-73.5 39.5q-12 4 -33 11.5t-28.5 10.5t-18 9t-14 12.5t-3.5 15.5q0 16 13.5 24.5t30.5 8.5 q24 0 131.5 -4t144.5 -4q36 0 95.5 4t82.5 4q41 0 41 -41q0 -10 -15 -25t-34 -22q-25 -10 -58.5 -38.5t-33.5 -45.5v-215q0 -20 14 -39.5t27.5 -33t13.5 -20.5q0 -34 -216.5 -73t-381.5 -39q-161 0 -307.5 80.5t-237 219.5t-90.5 298q0 200 104.5 360.5t279 248t380.5 87.5z " />
<glyph unicode="&#x121;" horiz-adv-x="1028" d="M39 0zM610 1391q46 0 79.5 -32.5t33.5 -78.5q0 -47 -33 -80.5t-80 -33.5t-80 33.5t-33 80.5q0 46 33.5 78.5t79.5 32.5zM895 158q0 -14 1 -30.5t0.5 -22t-1.5 -13t-7 -11.5t-13.5 -8t-24.5 -12q-175 -81 -313 -81q-125 0 -231 64.5t-166 172t-60 232.5q0 139 74.5 258 t198 187.5t265.5 68.5q150 0 265 -50q19 -9 30 -29.5t11 -43.5q0 -56 -12.5 -116t-26.5 -60q-25 0 -40.5 21t-35.5 75q-17 46 -80 73t-133 27q-93 0 -164.5 -58t-107 -147t-35.5 -190q0 -98 33 -185t101 -145.5t157 -58.5q54 0 96.5 27.5t42.5 64.5v108q0 34 -21.5 47 t-113.5 39q-14 4 -23.5 17t-9.5 27q0 17 22.5 26.5t49.5 9.5q41 0 95.5 -5t90.5 -5t70 5t69 5q53 0 53 -36q0 -14 -9 -27t-21 -17q-76 -25 -76 -86v-118z" />
<glyph unicode="&#x122;" horiz-adv-x="1454" d="M46 0zM638 -846zM750 -123q71 0 124.5 -47.5t53.5 -116.5q0 -96 -64.5 -170.5t-150.5 -74.5q-18 0 -25.5 5.5t-7.5 20.5q0 8 17.5 22t39 28.5t39 37.5t17.5 45q0 84 -74 105q-29 9 -47 30.5t-18 51.5q0 31 28.5 47t67.5 16zM858 1245q67 0 119 -6.5t79 -13.5t77.5 -23.5 t85.5 -25.5q7 -2 12 -7t8.5 -13.5t5.5 -14.5t4.5 -18t3.5 -15q7 -27 16 -94.5t9 -106.5q0 -13 -9.5 -21.5t-23.5 -8.5q-24 0 -67 81q-54 101 -157 148t-233 47q-132 0 -239.5 -75t-166 -196.5t-58.5 -260.5q0 -149 60.5 -281t175.5 -215.5t257 -83.5q83 0 173.5 26t90.5 52 v248q0 18 -36.5 44.5t-73.5 39.5q-12 4 -33 11.5t-28.5 10.5t-18 9t-14 12.5t-3.5 15.5q0 16 13.5 24.5t30.5 8.5q24 0 131.5 -4t144.5 -4q36 0 95.5 4t82.5 4q41 0 41 -41q0 -10 -15 -25t-34 -22q-25 -10 -58.5 -38.5t-33.5 -45.5v-215q0 -20 14 -39.5t27.5 -33t13.5 -20.5 q0 -34 -216.5 -73t-381.5 -39q-161 0 -307.5 80.5t-237 219.5t-90.5 298q0 200 104.5 360.5t279 248t380.5 87.5z" />
<glyph unicode="&#x123;" horiz-adv-x="1028" d="M39 0zM629 1074q-71 0 -124.5 47t-53.5 116q0 94 73 170t160 76q33 0 33 -27q0 -9 -32.5 -29t-65.5 -47.5t-33 -56.5q0 -83 74 -104q29 -9 47 -30.5t18 -51.5q0 -31 -28.5 -47t-67.5 -16zM895 158q0 -14 1 -30.5t0.5 -22t-1.5 -13t-7 -11.5t-13.5 -8t-24.5 -12 q-175 -81 -313 -81q-125 0 -231 64.5t-166 172t-60 232.5q0 139 74.5 258t198 187.5t265.5 68.5q150 0 265 -50q19 -9 30 -29.5t11 -43.5q0 -56 -12.5 -116t-26.5 -60q-25 0 -40.5 21t-35.5 75q-17 46 -80 73t-133 27q-93 0 -164.5 -58t-107 -147t-35.5 -190q0 -98 33 -185 t101 -145.5t157 -58.5q54 0 96.5 27.5t42.5 64.5v108q0 34 -21.5 47t-113.5 39q-14 4 -23.5 17t-9.5 27q0 17 22.5 26.5t49.5 9.5q41 0 95.5 -5t90.5 -5t70 5t69 5q53 0 53 -36q0 -14 -9 -27t-21 -17q-76 -25 -76 -86v-118z" />
<glyph unicode="&#x124;" horiz-adv-x="1484" d="M20 0zM473 1323q-31 0 -31 20q0 13 15 25l200 170q31 28 46.5 36.5t37.5 8.5t37.5 -8.5t46.5 -36.5l201 -170q12 -10 12 -25q0 -22 -28 -22q-20 0 -113.5 39t-134.5 63q-13 7 -20.5 7t-20.5 -7q-41 -24 -134.5 -62t-113.5 -38zM444 545v-281q0 -69 14 -110t62 -62 q12 -5 46 -16t50.5 -21t16.5 -24t-22.5 -23.5t-43.5 -11.5q-4 0 -40.5 3t-90 6t-96.5 3q-42 0 -96.5 -3t-92.5 -6t-42 -3q-22 2 -45 12t-23 23q0 14 16.5 24t50.5 21t46 16q96 43 96 172v723q0 18 -2 32t-4 25.5t-8.5 21t-10.5 16t-15.5 13t-17.5 10t-22.5 9t-24.5 8 t-30 8.5l-33 9q-33 11 -33 35q0 17 22.5 26.5t49.5 9.5q41 0 116 -5t111 -5t103 5t102 5q27 0 49.5 -9.5t22.5 -26.5q0 -25 -31 -35q-89 -25 -108 -37q-36 -21 -41 -79q-1 -16 -1 -36v-303q0 -22 27 -22h543q15 0 20.5 5.5t5.5 20.5v299q0 78 -23 100.5t-107 46.5 q-11 3 -17 5q-33 11 -33 35q0 17 22.5 26.5t49.5 9.5q41 0 106 -5t101 -5t113 5t112 5q27 0 49.5 -9.5t22.5 -26.5q0 -25 -31 -35q-10 -3 -36 -10t-33.5 -9t-26 -8.5t-24 -11t-17.5 -12.5t-15.5 -17t-9 -21.5t-7 -28t-1.5 -34.5v-723q0 -129 96 -172q12 -5 46 -16t50.5 -21 t16.5 -24t-22.5 -23.5t-43.5 -11.5q-3 0 -45.5 3t-101 6t-101.5 3q-42 0 -91 -3t-82 -6t-37 -3q-22 2 -45 12t-23 23q0 14 16.5 24t50.5 21t46 16q48 21 61.5 61.5t13.5 110.5v277q0 14 -6 18t-22 4h-537h-5q-10 0 -14.5 -0.5t-8 -4.5t-3.5 -13z" />
<glyph unicode="&#x125;" horiz-adv-x="1318" d="M30 0zM678 1196q-21 10 -41 0l-111 -43q-6 -2 -23.5 -9l-30 -12t-28 -9t-24.5 -4q-31 0 -31 20q0 13 15 25l176 137q4 3 19 14t22 16t18 10t19 5t19 -5t18 -10t21 -16t19 -14l176 -135q13 -10 13 -25q0 -9 -8 -15.5t-21 -6.5q-21 0 -106 34zM414 377v-113q0 -70 8 -111.5 t33 -52.5q10 -4 28.5 -11.5t31 -13t25.5 -12.5t20 -15t7 -17q0 -14 -22 -23.5t-43 -11.5q-3 0 -29 3t-68.5 6t-85.5 3q-42 0 -86 -3t-72 -6t-32 -3q-22 2 -45 12t-23 23q0 9 7 17t20.5 15t26 12.5t31 13t28.5 11.5q10 5 18.5 10.5t15 10.5t11.5 14t8 13.5t5 17t3.5 16.5 t2 19.5t0.5 19v21.5v22v441q0 76 -17 96t-89 39q-19 5 -30 8q-13 4 -22.5 16.5t-9.5 26.5q0 17 22.5 27t48.5 10q41 0 96 -5t91 -5t81 5t80 5q27 0 49.5 -10t22.5 -27q0 -14 -9 -26.5t-22 -16.5q-74 -21 -88 -31q-24 -17 -27 -71q-1 -16 -1 -41v-160q0 -37 26 -37h416 q39 3 39 37v160q0 80 -14.5 99t-81.5 39q-10 3 -15 5q-13 4 -22.5 16.5t-9.5 26.5q0 17 22.5 27t48.5 10q41 0 83.5 -5t78.5 -5t92.5 5t91.5 5q27 0 49.5 -10t22.5 -27q0 -14 -9 -26.5t-22 -16.5q-11 -3 -35 -9.5t-30.5 -8.5t-22 -7.5t-19 -9t-12.5 -11.5t-10.5 -15.5 t-5 -20t-4 -27t-0.5 -34.5v-441q0 -82 10 -108q14 -37 56 -56q10 -4 28.5 -11.5t31 -13t25.5 -12.5t20 -15t7 -17q0 -14 -22 -23.5t-43 -11.5q-4 0 -35.5 3t-80 6t-91.5 3q-42 0 -80 -3t-60 -6t-26 -3q-22 2 -45 12t-23 23q0 9 7 17t20.5 15t26 12.5t31 13t28.5 11.5 q15 7 23.5 18t12 30.5t4.5 31t0 42.5t-1 42v119q0 33 -27 33h-426q-28 0 -28 -39z" />
<glyph unicode="&#x126;" horiz-adv-x="1484" d="M0 0zM74 846q-74 0 -74 24q0 29 30.5 51.5t78.5 22.5h1290q86 0 86 -20q0 -28 -23 -53t-65 -25h-1323zM444 545v-281q0 -69 14 -110t62 -62q12 -5 46 -16t50.5 -21t16.5 -24t-22.5 -23.5t-43.5 -11.5q-4 0 -40.5 3t-90 6t-96.5 3q-42 0 -96.5 -3t-92.5 -6t-42 -3 q-22 2 -45 12t-23 23q0 14 16.5 24t50.5 21t46 16q96 43 96 172v723q0 18 -2 32t-4 25.5t-8.5 21t-10.5 16t-15.5 13t-17.5 10t-22.5 9t-24.5 8t-30 8.5l-33 9q-33 11 -33 35q0 17 22.5 26.5t49.5 9.5q41 0 116 -5t111 -5t103 5t102 5q27 0 49.5 -9.5t22.5 -26.5 q0 -25 -31 -35q-89 -25 -108 -37q-36 -21 -41 -79q-1 -16 -1 -36v-303q0 -22 27 -22h543q15 0 20.5 5.5t5.5 20.5v299q0 78 -23 100.5t-107 46.5q-11 3 -17 5q-33 11 -33 35q0 17 22.5 26.5t49.5 9.5q41 0 106 -5t101 -5t113 5t112 5q27 0 49.5 -9.5t22.5 -26.5 q0 -25 -31 -35q-10 -3 -36 -10t-33.5 -9t-26 -8.5t-24 -11t-17.5 -12.5t-15.5 -17t-9 -21.5t-7 -28t-1.5 -34.5v-723q0 -129 96 -172q12 -5 46 -16t50.5 -21t16.5 -24t-22.5 -23.5t-43.5 -11.5q-3 0 -45.5 3t-101 6t-101.5 3q-42 0 -91 -3t-82 -6t-37 -3q-22 2 -45 12 t-23 23q0 14 16.5 24t50.5 21t46 16q48 21 61.5 61.5t13.5 110.5v277q0 14 -6 18t-22 4h-537h-5q-10 0 -14.5 -0.5t-8 -4.5t-3.5 -13z" />
<glyph unicode="&#x127;" horiz-adv-x="1318" d="M0 0zM74 1014q-74 0 -74 24q0 29 30.5 51.5t78.5 22.5h518q86 0 86 -20q0 -28 -23 -53t-65 -25h-551zM414 377v-113q0 -70 8 -111.5t33 -52.5q10 -4 28.5 -11.5t31 -13t25.5 -12.5t20 -15t7 -17q0 -14 -22 -23.5t-43 -11.5q-3 0 -29 3t-68.5 6t-85.5 3q-42 0 -86 -3 t-72 -6t-32 -3q-22 2 -45 12t-23 23q0 9 7 17t20.5 15t26 12.5t31 13t28.5 11.5q10 5 18.5 10.5t15 10.5t11.5 14t8 13.5t5 17t3.5 16.5t2 19.5t0.5 19v21.5v22v441q0 76 -17 96t-89 39q-19 5 -30 8q-13 4 -22.5 16.5t-9.5 26.5q0 17 22.5 27t48.5 10q41 0 96 -5t91 -5t81 5 t80 5q27 0 49.5 -10t22.5 -27q0 -14 -9 -26.5t-22 -16.5q-74 -21 -88 -31q-24 -17 -27 -71q-1 -16 -1 -41v-160q0 -37 26 -37h416q39 3 39 37v160q0 80 -14.5 99t-81.5 39q-10 3 -15 5q-13 4 -22.5 16.5t-9.5 26.5q0 17 22.5 27t48.5 10q41 0 83.5 -5t78.5 -5t92.5 5t91.5 5 q27 0 49.5 -10t22.5 -27q0 -14 -9 -26.5t-22 -16.5q-11 -3 -35 -9.5t-30.5 -8.5t-22 -7.5t-19 -9t-12.5 -11.5t-10.5 -15.5t-5 -20t-4 -27t-0.5 -34.5v-441q0 -82 10 -108q14 -37 56 -56q10 -4 28.5 -11.5t31 -13t25.5 -12.5t20 -15t7 -17q0 -14 -22 -23.5t-43 -11.5 q-4 0 -35.5 3t-80 6t-91.5 3q-42 0 -80 -3t-60 -6t-26 -3q-22 2 -45 12t-23 23q0 9 7 17t20.5 15t26 12.5t31 13t28.5 11.5q15 7 23.5 18t12 30.5t4.5 31t0 42.5t-1 42v119q0 33 -27 33h-426q-28 0 -28 -39z" />
<glyph unicode="&#x128;" horiz-adv-x="694" d="M20 0zM471 1380q-25 0 -126.5 5t-127.5 5q-23 0 -66.5 -25.5t-50.5 -25.5q-13 0 -23 10.5t-10 24.5q0 34 66.5 86.5t105.5 52.5q26 0 122 -4t122 -4q24 0 46.5 12.5t35 27.5t25 27.5t20.5 12.5q15 0 25 -10t10 -25q0 -33 -67.5 -101.5t-106.5 -68.5zM573 1210 q27 0 49.5 -9.5t22.5 -26.5q0 -25 -31 -35q-10 -3 -36 -10t-33.5 -9t-26 -8.5t-24 -11t-17.5 -12.5t-15.5 -17t-9 -21.5t-7 -28t-1.5 -34.5v-723q0 -129 97 -172q12 -5 46 -16t50 -21t16 -24t-22 -23.5t-43 -11.5q-3 0 -45.5 3t-101 6t-101.5 3q-42 0 -96.5 -3t-92.5 -6 t-42 -3q-22 2 -45 12t-23 23q0 14 16.5 24t50.5 21t46 16q96 43 96 172v723q0 18 -2 32t-4 25.5t-8.5 21t-10.5 16t-15.5 13t-17.5 10t-22.5 9t-24.5 8t-30 8.5l-33 9q-33 11 -33 35q0 17 22.5 26.5t49.5 9.5q41 0 116 -5t111 -5t113 5t112 5z" />
<glyph unicode="&#x129;" horiz-adv-x="565" d="M13 0zM70 1071q-14 0 -21.5 12t-7.5 29q0 19 73 95.5t107 76.5q25 0 110 -2t110 -2t49 14t39.5 31t28.5 31t18 14q15 0 24 -9.5t9 -24.5q0 -11 -37 -61t-85 -98t-71 -48q-26 0 -115 1t-114 1q-30 0 -71.5 -30t-45.5 -30zM512 928q27 0 49.5 -10t22.5 -27q0 -14 -9 -26.5 t-22 -16.5q-11 -3 -35 -9.5t-30.5 -8.5t-22 -7.5t-19 -9t-12.5 -11.5t-10.5 -15.5t-5 -20t-4 -27t-0.5 -34.5v-441v-14q0 -27 0.5 -40t3.5 -33.5t9.5 -32t19.5 -24t32 -20.5q10 -4 28.5 -11.5t31 -13t26 -12.5t20.5 -15t7 -17q0 -14 -22.5 -23.5t-43.5 -11.5q-4 0 -35.5 3 t-80 6t-91.5 3q-42 0 -86 -3t-72 -6t-32 -3q-22 2 -45 12t-23 23q0 9 7 17t20.5 15t26 12.5t31 13t28.5 11.5q10 5 18.5 10.5t15 10.5t11.5 14t8 13.5t5 17t3.5 16.5t2 19.5t0.5 19v21.5v22v441q0 76 -17 96t-89 39q-19 5 -30 8q-13 4 -22.5 16.5t-9.5 26.5q0 17 22.5 27 t48.5 10q41 0 96 -5t91 -5t92.5 5t91.5 5z" />
<glyph unicode="&#x12a;" horiz-adv-x="694" d="M20 0zM92 1519h539q9 0 18 -7.5t9 -16.5q0 -32 -20 -65.5t-44 -33.5h-522q-10 0 -19.5 8t-9.5 17q0 26 12 62t37 36zM573 1210q27 0 49.5 -9.5t22.5 -26.5q0 -25 -31 -35q-10 -3 -36 -10t-33.5 -9t-26 -8.5t-24 -11t-17.5 -12.5t-15.5 -17t-9 -21.5t-7 -28t-1.5 -34.5 v-723q0 -129 97 -172q12 -5 46 -16t50 -21t16 -24t-22 -23.5t-43 -11.5q-3 0 -45.5 3t-101 6t-101.5 3q-42 0 -96.5 -3t-92.5 -6t-42 -3q-22 2 -45 12t-23 23q0 14 16.5 24t50.5 21t46 16q96 43 96 172v723q0 18 -2 32t-4 25.5t-8.5 21t-10.5 16t-15.5 13t-17.5 10t-22.5 9 t-24.5 8t-30 8.5l-33 9q-33 11 -33 35q0 17 22.5 26.5t49.5 9.5q41 0 116 -5t111 -5t113 5t112 5z" />
<glyph unicode="&#x12b;" horiz-adv-x="565" d="M23 0zM135 1291h416q9 0 17.5 -8t8.5 -17q0 -38 -16.5 -69t-46.5 -31h-399q-11 0 -20 7.5t-9 16.5q0 26 12 63.5t37 37.5zM512 928q27 0 49.5 -10t22.5 -27q0 -14 -9 -26.5t-22 -16.5q-11 -3 -35 -9.5t-30.5 -8.5t-22 -7.5t-19 -9t-12.5 -11.5t-10.5 -15.5t-5 -20t-4 -27 t-0.5 -34.5v-441v-14q0 -27 0.5 -40t3.5 -33.5t9.5 -32t19.5 -24t32 -20.5q10 -4 28.5 -11.5t31 -13t26 -12.5t20.5 -15t7 -17q0 -14 -22.5 -23.5t-43.5 -11.5q-4 0 -35.5 3t-80 6t-91.5 3q-42 0 -86 -3t-72 -6t-32 -3q-22 2 -45 12t-23 23q0 9 7 17t20.5 15t26 12.5t31 13 t28.5 11.5q10 5 18.5 10.5t15 10.5t11.5 14t8 13.5t5 17t3.5 16.5t2 19.5t0.5 19v21.5v22v441q0 76 -17 96t-89 39q-19 5 -30 8q-13 4 -22.5 16.5t-9.5 26.5q0 17 22.5 27t48.5 10q41 0 96 -5t91 -5t92.5 5t91.5 5z" />
<glyph unicode="&#x12c;" horiz-adv-x="694" d="M20 0zM131 1564q39 -47 89.5 -65.5t121.5 -18.5t121.5 18.5t89.5 65.5q1 2 5 7.5t6.5 8t6.5 8t7 8t7.5 5.5t8.5 4.5t8 1.5q9 0 14 -7.5t5.5 -16t0.5 -25.5q0 -71 -80 -142t-200 -71t-200.5 71t-80.5 142q0 20 6 34.5t15 14.5q4 0 8 -1.5t8.5 -4.5t7.5 -5.5t7 -8t6.5 -8 t6.5 -8t5 -7.5zM573 1210q27 0 49.5 -9.5t22.5 -26.5q0 -25 -31 -35q-10 -3 -36 -10t-33.5 -9t-26 -8.5t-24 -11t-17.5 -12.5t-15.5 -17t-9 -21.5t-7 -28t-1.5 -34.5v-723q0 -129 97 -172q12 -5 46 -16t50 -21t16 -24t-22 -23.5t-43 -11.5q-3 0 -45.5 3t-101 6t-101.5 3 q-42 0 -96.5 -3t-92.5 -6t-42 -3q-22 2 -45 12t-23 23q0 14 16.5 24t50.5 21t46 16q96 43 96 172v723q0 18 -2 32t-4 25.5t-8.5 21t-10.5 16t-15.5 13t-17.5 10t-22.5 9t-24.5 8t-30 8.5l-33 9q-33 11 -33 35q0 17 22.5 26.5t49.5 9.5q41 0 116 -5t111 -5t113 5t112 5z" />
<glyph unicode="&#x12d;" horiz-adv-x="565" d="M30 0zM168 1330q8 -41 48.5 -65t113.5 -24q137 0 154 89q9 43 31 43q14 0 22 -14.5t8 -35.5q0 -81 -68.5 -149t-170.5 -68q-99 0 -149 65t-50 152q0 21 8.5 35.5t22.5 14.5q21 0 30 -43zM512 928q27 0 49.5 -10t22.5 -27q0 -14 -9 -26.5t-22 -16.5q-11 -3 -35 -9.5 t-30.5 -8.5t-22 -7.5t-19 -9t-12.5 -11.5t-10.5 -15.5t-5 -20t-4 -27t-0.5 -34.5v-441v-14q0 -27 0.5 -40t3.5 -33.5t9.5 -32t19.5 -24t32 -20.5q10 -4 28.5 -11.5t31 -13t26 -12.5t20.5 -15t7 -17q0 -14 -22.5 -23.5t-43.5 -11.5q-4 0 -35.5 3t-80 6t-91.5 3q-42 0 -86 -3 t-72 -6t-32 -3q-22 2 -45 12t-23 23q0 9 7 17t20.5 15t26 12.5t31 13t28.5 11.5q10 5 18.5 10.5t15 10.5t11.5 14t8 13.5t5 17t3.5 16.5t2 19.5t0.5 19v21.5v22v441q0 76 -17 96t-89 39q-19 5 -30 8q-13 4 -22.5 16.5t-9.5 26.5q0 17 22.5 27t48.5 10q41 0 96 -5t91 -5 t92.5 5t91.5 5z" />
<glyph unicode="&#x12e;" horiz-adv-x="694" d="M20 0zM319 -561q-96 0 -157.5 66.5t-61.5 164.5q0 58 30.5 117t74 102t87.5 78t74 53l31 17h53q-7 -5 -19 -14.5t-42.5 -42t-53.5 -68t-42 -91t-19 -112.5q0 -54 33.5 -89.5t87.5 -35.5q25 0 54 11.5t49 25t40 28.5t23 17q7 5 16 2t9 -14q0 -66 -92 -140.5t-175 -74.5z M573 1210q27 0 49.5 -9.5t22.5 -26.5q0 -25 -31 -35q-10 -3 -36 -10t-33.5 -9t-26 -8.5t-24 -11t-17.5 -12.5t-15.5 -17t-9 -21.5t-7 -28t-1.5 -34.5v-723q0 -129 97 -172q12 -5 46 -16t50 -21t16 -24t-22 -23.5t-43 -11.5q-3 0 -45.5 3t-101 6t-101.5 3q-42 0 -96.5 -3 t-92.5 -6t-42 -3q-22 2 -45 12t-23 23q0 14 16.5 24t50.5 21t46 16q96 43 96 172v723q0 18 -2 32t-4 25.5t-8.5 21t-10.5 16t-15.5 13t-17.5 10t-22.5 9t-24.5 8t-30 8.5l-33 9q-33 11 -33 35q0 17 22.5 26.5t49.5 9.5q41 0 116 -5t111 -5t113 5t112 5z" />
<glyph unicode="&#x12f;" horiz-adv-x="565" d="M30 0zM278 -240q0 -54 22 -93.5t66 -39.5q86 0 135 67q18 27 29 27q25 0 25 -37q0 -89 -79.5 -153t-176.5 -64q-64 0 -106 62t-42 143q0 224 228 364h81q-70 -54 -105.5 -89.5t-56 -81.5t-20.5 -105zM512 928q27 0 49.5 -10t22.5 -27q0 -14 -9 -26.5t-22 -16.5 q-11 -3 -35 -9.5t-30.5 -8.5t-22 -7.5t-19 -9t-12.5 -11.5t-10.5 -15.5t-5 -20t-4 -27t-0.5 -34.5v-441v-14q0 -27 0.5 -40t3.5 -33.5t9.5 -32t19.5 -24t32 -20.5q10 -4 28.5 -11.5t31 -13t26 -12.5t20.5 -15t7 -17q0 -14 -22.5 -23.5t-43.5 -11.5q-4 0 -35.5 3t-80 6 t-91.5 3q-42 0 -86 -3t-72 -6t-32 -3q-22 2 -45 12t-23 23q0 9 7 17t20.5 15t26 12.5t31 13t28.5 11.5q10 5 18.5 10.5t15 10.5t11.5 14t8 13.5t5 17t3.5 16.5t2 19.5t0.5 19v21.5v22v441q0 76 -17 96t-89 39q-19 5 -30 8q-13 4 -22.5 16.5t-9.5 26.5q0 17 22.5 27t48.5 10 q41 0 96 -5t91 -5t92.5 5t91.5 5z" />
<glyph unicode="&#x130;" horiz-adv-x="694" d="M20 0zM340 1577q49 0 85 -35.5t36 -85.5t-36 -85.5t-85 -35.5t-85 35.5t-36 85.5t36 85.5t85 35.5zM573 1210q27 0 49.5 -9.5t22.5 -26.5q0 -25 -31 -35q-10 -3 -36 -10t-33.5 -9t-26 -8.5t-24 -11t-17.5 -12.5t-15.5 -17t-9 -21.5t-7 -28t-1.5 -34.5v-723 q0 -129 97 -172q12 -5 46 -16t50 -21t16 -24t-22 -23.5t-43 -11.5q-3 0 -45.5 3t-101 6t-101.5 3q-42 0 -96.5 -3t-92.5 -6t-42 -3q-22 2 -45 12t-23 23q0 14 16.5 24t50.5 21t46 16q96 43 96 172v723q0 18 -2 32t-4 25.5t-8.5 21t-10.5 16t-15.5 13t-17.5 10t-22.5 9 t-24.5 8t-30 8.5l-33 9q-33 11 -33 35q0 17 22.5 26.5t49.5 9.5q41 0 116 -5t111 -5t113 5t112 5z" />
<glyph unicode="&#x131;" horiz-adv-x="565" d="M512 928q27 0 49.5 -10t22.5 -27q0 -14 -9 -26.5t-22 -16.5q-11 -3 -35 -9.5t-30.5 -8.5t-22 -7.5t-19 -9t-12.5 -11.5t-10.5 -15.5t-5 -20t-4 -27t-0.5 -34.5v-441v-14q0 -27 0.5 -40t3.5 -33.5t9.5 -32t19.5 -24t32 -20.5q10 -4 28.5 -11.5t31 -13t26 -12.5t20.5 -15 t7 -17q0 -14 -22.5 -23.5t-43.5 -11.5q-4 0 -35.5 3t-80 6t-91.5 3q-42 0 -86 -3t-72 -6t-32 -3q-22 2 -45 12t-23 23q0 9 7 17t20.5 15t26 12.5t31 13t28.5 11.5q10 5 18.5 10.5t15 10.5t11.5 14t8 13.5t5 17t3.5 16.5t2 19.5t0.5 19v21.5v22v441q0 76 -17 96t-89 39 q-19 5 -30 8q-13 4 -22.5 16.5t-9.5 26.5q0 17 22.5 27t48.5 10q41 0 96 -5t91 -5t92.5 5t91.5 5z" />
<glyph unicode="&#x132;" horiz-adv-x="1337" d="M20 0zM1138 985v-698q0 -154 -9 -257.5t-29.5 -163t-36.5 -85t-47 -60.5q-106 -116 -271 -116q-92 0 -142 32t-50 70q0 42 23 78.5t50 36.5q39 0 61.5 -12t41.5 -41q51 -78 96 -78q68 0 93.5 79.5t25.5 241.5v973q0 20 -1.5 35.5t-7 28.5t-8.5 21.5t-15.5 17t-17 12.5 t-24 11t-25.5 9t-33 9t-36 10q-33 11 -33 35q0 17 22.5 26.5t49.5 9.5q41 0 116 -5t111 -5t113 5t112 5q27 0 49.5 -9.5t22.5 -26.5q0 -25 -31 -35l-33 -9t-30 -8.5t-25 -8t-23 -9t-17.5 -10t-15.5 -13.5t-11 -16.5t-9 -21t-4 -26t-2 -32.5zM573 1210q27 0 49.5 -9.5 t22.5 -26.5q0 -25 -31 -35q-10 -3 -36 -10t-33.5 -9t-26 -8.5t-24 -11t-17.5 -12.5t-15.5 -17t-9 -21.5t-7 -28t-1.5 -34.5v-723q0 -129 97 -172q12 -5 46 -16t50 -21t16 -24t-22 -23.5t-43 -11.5q-3 0 -45.5 3t-101 6t-101.5 3q-42 0 -96.5 -3t-92.5 -6t-42 -3 q-22 2 -45 12t-23 23q0 14 16.5 24t50.5 21t46 16q96 43 96 172v723q0 18 -2 32t-4 25.5t-8.5 21t-10.5 16t-15.5 13t-17.5 10t-22.5 9t-24.5 8t-30 8.5l-33 9q-33 11 -33 35q0 17 22.5 26.5t49.5 9.5q41 0 116 -5t111 -5t113 5t112 5z" />
<glyph unicode="&#x133;" horiz-adv-x="1038" d="M30 0zM803 27v678q0 76 -17 96t-89 39q-19 5 -30 8q-13 4 -22.5 16.5t-9.5 26.5q0 17 22.5 27t48.5 10q41 0 96 -5t91 -5t92.5 5t91.5 5q27 0 49.5 -10t22.5 -27q0 -14 -9 -26.5t-22 -16.5q-11 -3 -35 -9.5t-30.5 -8.5t-22 -7.5t-19 -9t-12.5 -11.5t-10.5 -15.5t-5 -20 t-4 -27t-0.5 -34.5v-605q0 -94 -22.5 -182.5t-65.5 -162.5t-113.5 -118.5t-157.5 -44.5q-76 0 -149.5 32.5t-73.5 76.5q0 46 35 83.5t80 37.5q22 0 40.5 -19t30.5 -42.5t32.5 -42.5t45.5 -19q29 0 52 12t38 28.5t25 46.5t15.5 54t8 63t3 62t0.5 62zM512 928q27 0 49.5 -10 t22.5 -27q0 -14 -9 -26.5t-22 -16.5q-11 -3 -35 -9.5t-30.5 -8.5t-22 -7.5t-19 -9t-12.5 -11.5t-10.5 -15.5t-5 -20t-4 -27t-0.5 -34.5v-441v-14q0 -27 0.5 -40t3.5 -33.5t9.5 -32t19.5 -24t32 -20.5q10 -4 28.5 -11.5t31 -13t26 -12.5t20.5 -15t7 -17q0 -14 -22.5 -23.5 t-43.5 -11.5q-4 0 -35.5 3t-80 6t-91.5 3q-42 0 -86 -3t-72 -6t-32 -3q-22 2 -45 12t-23 23q0 9 7 17t20.5 15t26 12.5t31 13t28.5 11.5q10 5 18.5 10.5t15 10.5t11.5 14t8 13.5t5 17t3.5 16.5t2 19.5t0.5 19v21.5v22v441q0 76 -17 96t-89 39q-19 5 -30 8q-13 4 -22.5 16.5 t-9.5 26.5q0 17 22.5 27t48.5 10q41 0 96 -5t91 -5t92.5 5t91.5 5z" />
<glyph unicode="&#x134;" horiz-adv-x="643" d="M0 0zM82 1323q-31 0 -31 20q0 13 15 25l200 170q31 28 46.5 36.5t37.5 8.5t37.5 -8.5t46.5 -36.5l201 -170q12 -10 12 -25q0 -22 -28 -22q-20 0 -113.5 39t-134.5 63q-13 7 -20.5 7t-20.5 -7q-41 -24 -134.5 -62t-113.5 -38zM444 985v-698q0 -154 -9 -257.5t-29.5 -163 t-36.5 -85t-47 -60.5q-106 -116 -271 -116q-92 0 -142 32t-50 70q0 42 23 78.5t50 36.5q39 0 61.5 -12t41.5 -41q51 -78 96 -78q68 0 93.5 79.5t25.5 241.5v973q0 20 -1.5 35.5t-7 28.5t-8.5 21.5t-15.5 17t-17 12.5t-24 11t-25.5 9t-33 9t-36 10q-33 11 -33 35 q0 17 22.5 26.5t49.5 9.5q41 0 116 -5t111 -5t113 5t112 5q27 0 49.5 -9.5t22.5 -26.5q0 -25 -31 -35l-33 -9t-30 -8.5t-25 -8t-23 -9t-17.5 -10t-15.5 -13.5t-11 -16.5t-9 -21t-4 -26t-2 -32.5z" />
<glyph unicode="&#x135;" horiz-adv-x="473" d="M0 0zM254 1200q-38 -54 -123 -151q-40 -45 -61 -45q-13 0 -16 5.5t-3 20.5q0 20 68 147t113 201q21 37 41 37t41 -37q46 -76 114 -202t68 -146q0 -15 -3 -20.5t-16 -5.5q-21 0 -61 45q-89 102 -125 151q-19 25 -37 0zM190 618q0 29 -24 60.5t-60 44.5q-43 15 -43 43 q0 24 60 51q22 11 110.5 45.5t102.5 34.5q9 0 14 -2.5t7 -12t2.5 -16t0.5 -26.5v-785q0 -297 -254 -551q-51 -51 -81 -51q-35 0 -35 43q0 27 24 43q22 14 49 44.5t39 51.5q88 143 88 347v636z" />
<glyph unicode="&#x136;" horiz-adv-x="1286" d="M20 0zM648 -846zM760 -123q71 0 124.5 -47.5t53.5 -116.5q0 -96 -64.5 -170.5t-150.5 -74.5q-18 0 -25.5 5.5t-7.5 20.5q0 8 17.5 22t39 28.5t39 37.5t17.5 45q0 84 -74 105q-29 9 -47 30.5t-18 51.5q0 31 28.5 47t67.5 16zM807 1137q-35 11 -35 37q0 17 22.5 26.5 t49.5 9.5q15 0 73 -5t74 -5q15 0 65 5t66 5q27 0 49.5 -9.5t22.5 -26.5q0 -23 -35 -35q-189 -63 -285 -183l-92 -94q-55 -57 -85.5 -106t-30.5 -74q0 -23 16 -50t70 -100q83 -116 135.5 -170.5t169.5 -152.5q42 -36 107 -69.5t102 -33.5q19 0 35 -14t16 -22q0 -29 -38 -57.5 t-97 -28.5q-147 0 -295 112q-27 20 -54 45t-52.5 52.5t-46 51.5t-42.5 53.5t-34 46t-29 40.5t-19 27q-29 41 -65.5 78.5t-55.5 37.5q-22 0 -33.5 -36t-11.5 -72v-156q0 -129 97 -172q12 -5 46 -16t50 -21t16 -24t-22 -23.5t-43 -11.5q-3 0 -45.5 3t-101 6t-101.5 3 q-42 0 -96.5 -3t-92.5 -6t-42 -3q-22 2 -45 12t-23 23q0 14 16.5 24t50.5 21t46 16q96 43 96 172v723q0 18 -2 32t-4 25.5t-8.5 21t-10.5 16t-15.5 13t-17.5 10t-22.5 9t-24.5 8t-30 8.5l-33 9q-33 11 -33 35q0 17 22.5 26.5t49.5 9.5q41 0 116 -5t111 -5t113 5t112 5 q27 0 49.5 -9.5t22.5 -26.5q0 -25 -31 -35q-10 -3 -36 -10t-33.5 -9t-26 -8.5t-24 -11t-17.5 -12.5t-15.5 -17t-9 -21.5t-7 -28t-1.5 -34.5v-266q0 -26 8.5 -34.5t28.5 -8.5q26 0 97 88l229 285q55 69 0 86z" />
<glyph unicode="&#x137;" horiz-adv-x="1107" d="M30 0zM435 -846zM547 -123q71 0 124.5 -47.5t53.5 -116.5q0 -96 -64.5 -170.5t-150.5 -74.5q-18 0 -25.5 5.5t-7.5 20.5q0 8 17.5 22t39 28.5t39 37.5t17.5 45q0 84 -74 105q-29 9 -47 30.5t-18 51.5q0 31 28.5 47t67.5 16zM778 721l-137 -168q-20 -25 -18 -37t34 -53 l207 -262q8 -9 15.5 -17.5t16.5 -16t15 -13t17.5 -12t16 -9.5t18.5 -9.5t17.5 -8t20 -9t19.5 -8.5q34 -13 47.5 -28.5t13.5 -38.5q0 -14 -22 -23.5t-43 -11.5q-3 0 -24.5 3t-59 6t-80.5 3q-42 0 -79 -3t-58 -6t-25 -3q-22 2 -44.5 12t-22.5 23q0 22 16.5 35.5t56.5 27.5 q14 5 15 23t-21 49l-131 166q-22 28 -47.5 44t-39 19.5t-23.5 3.5q-22 -2 -28.5 -7.5t-6.5 -24.5v-170q0 -74 49 -97q40 -18 59 -33t19 -36q0 -14 -22.5 -23.5t-43.5 -11.5q-3 0 -22.5 3t-55 6t-78.5 3q-42 0 -86 -3t-72 -6t-32 -3q-22 2 -45 12t-23 23q0 9 7 17t20.5 15 t26 12.5t31 13t28.5 11.5q10 5 18.5 10.5t15 10.5t11.5 14t8 13.5t5 17t3.5 16.5t2 19.5t0.5 19v21.5v22v441q0 76 -17 96t-89 39q-19 5 -30 8q-13 4 -22.5 16.5t-9.5 26.5q0 17 22.5 27t48.5 10q41 0 96 -5t91 -5t80 5t79 5q27 0 49.5 -10t22.5 -27q0 -14 -9 -26.5 t-22 -16.5q-79 -22 -92 -32q-20 -14 -22 -58v-53v-168q0 -26 3.5 -31.5t18.5 -5.5q42 0 125 101q4 5 6 7l138 168q17 20 8.5 41t-37.5 31q-13 5 -23 17.5t-10 25.5q0 17 22.5 27t49.5 10q8 0 48.5 -5t61.5 -5q26 0 83 5t81 5q27 0 49.5 -10t22.5 -27q0 -14 -9 -26.5 t-22 -16.5q-122 -35 -159 -52q-53 -27 -93 -75z" />
<glyph unicode="&#x138;" horiz-adv-x="958" d="M25 0zM496 451q21 -69 44 -121t58 -103.5t85 -79.5t112 -28q33 0 64.5 26t51 52t21.5 26q16 0 16 -18q0 -107 -63 -171.5t-137 -64.5q-50 0 -107.5 50.5t-95.5 123.5q-61 116 -88 258q-3 16 -17 -8q-66 -127 -127 -336q-7 -23 -10 -32t-10 -25t-15 -22.5t-18 -6.5 q-19 0 -46.5 22t-27.5 48q0 53 43 203q37 141 37 280q0 148 -98 148q-38 0 -66.5 -13.5t-29.5 -13.5q-21 0 -21 25q0 52 54 115t106 63q72 0 99.5 -53.5t27.5 -165.5q0 -95 -16 -217q-1 -6 2 -10.5t8 -4.5q6 0 20 23q126 193 245 310.5t196 117.5q29 0 49.5 -9.5t30.5 -21 t15.5 -32t6 -32.5t0.5 -32q0 -13 -7 -23t-18 -10q-3 0 -16 4t-59 4q-85 0 -154.5 -52.5t-136.5 -158.5q-13 -20 -8 -34z" />
<glyph unicode="&#x139;" horiz-adv-x="1210" d="M20 0zM273 1331q-13 0 -13 12q0 13 11 31q17 28 44.5 77.5t52 90.5t48.5 76q18 26 55 26q31 0 81 -14t50 -33q0 -16 -26 -39q-95 -81 -267 -209q-23 -18 -36 -18zM444 285q0 -84 36 -138.5t106 -54.5h223q33 0 60 6.5t48 21.5t35.5 29.5t29.5 41.5t24 44.5t23.5 52 t23.5 52.5q7 17 24 28t31 11q15 0 26 -27t11 -69q0 -38 -27 -131.5t-41 -116.5q-13 -25 -22.5 -32t-34.5 -7q-20 0 -287 5t-393 5q-42 0 -96.5 -2.5t-92.5 -5t-42 -2.5q-22 2 -45 12t-23 23q0 14 16.5 24t50.5 21t46 16q96 43 96 172v723q0 18 -2 32t-4 25.5t-8.5 21 t-10.5 16t-15.5 13t-17.5 10t-22.5 9t-24.5 8t-30 8.5l-33 9q-33 11 -33 35q0 36 74 36q41 0 116 -5t111 -5t113 5t112 5q27 0 49.5 -9.5t22.5 -26.5q0 -25 -31 -35q-11 -3 -36 -10t-33.5 -9.5t-27 -8.5t-24 -10.5t-17.5 -12.5t-16 -17t-9.5 -21.5t-7 -28t-1.5 -34.5v-702z " />
<glyph unicode="&#x13a;" horiz-adv-x="989" d="M30 0zM166 1114q-40 -10 -55 -10q-29 0 -29 16q0 10 8 21q27 29 145.5 102.5t172.5 95.5q30 13 43 13q33 0 57.5 -39t24.5 -64q0 -12 -9 -18q-63 -35 -358 -117zM311 8q-42 0 -84 -3t-68 -6t-30 -3q-22 2 -45 12t-23 23q0 9 7 17t20.5 15t26 12.5t31 13t28.5 11.5 q10 5 18.5 10.5t15 10.5t11.5 14t8 13.5t5 17t3.5 16.5t2 19.5t0.5 19v21.5v22v441q0 76 -17 96t-89 39q-19 5 -30 8q-13 4 -22.5 16.5t-9.5 26.5q0 17 22.5 27t48.5 10q41 0 96 -5t91 -5t92.5 5t91.5 5q27 0 49.5 -10t22.5 -27q0 -14 -9 -26.5t-22 -16.5q-11 -3 -35 -9.5 t-30.5 -8.5t-22 -7.5t-19 -9t-12.5 -11.5t-10.5 -15.5t-5 -20t-4 -27t-0.5 -34.5v-441q0 -82 21.5 -105.5t88.5 -23.5h176q38 0 74 42t55 89q7 17 22.5 31t29.5 14q20 0 32.5 -19t12.5 -56q0 -13 -9.5 -48.5t-26.5 -80t-48 -78t-66 -33.5q-69 0 -233.5 6t-231.5 6z" />
<glyph unicode="&#x13b;" horiz-adv-x="1210" d="M20 0zM482 -846zM594 -123q71 0 124.5 -47.5t53.5 -116.5q0 -96 -64.5 -170.5t-150.5 -74.5q-18 0 -25.5 5.5t-7.5 20.5q0 8 17.5 22t39 28.5t39 37.5t17.5 45q0 84 -74 105q-29 9 -47 30.5t-18 51.5q0 31 28.5 47t67.5 16zM444 285q0 -84 36 -138.5t106 -54.5h223 q33 0 60 6.5t48 21.5t35.5 29.5t29.5 41.5t24 44.5t23.5 52t23.5 52.5q7 17 24 28t31 11q15 0 26 -27t11 -69q0 -38 -27 -131.5t-41 -116.5q-13 -25 -22.5 -32t-34.5 -7q-20 0 -287 5t-393 5q-42 0 -96.5 -2.5t-92.5 -5t-42 -2.5q-22 2 -45 12t-23 23q0 14 16.5 24t50.5 21 t46 16q96 43 96 172v723q0 18 -2 32t-4 25.5t-8.5 21t-10.5 16t-15.5 13t-17.5 10t-22.5 9t-24.5 8t-30 8.5l-33 9q-33 11 -33 35q0 36 74 36q41 0 116 -5t111 -5t113 5t112 5q27 0 49.5 -9.5t22.5 -26.5q0 -25 -31 -35q-11 -3 -36 -10t-33.5 -9.5t-27 -8.5t-24 -10.5 t-17.5 -12.5t-16 -17t-9.5 -21.5t-7 -28t-1.5 -34.5v-702z" />
<glyph unicode="&#x13c;" horiz-adv-x="989" d="M30 0zM357 -846zM469 -123q71 0 124.5 -47.5t53.5 -116.5q0 -96 -64.5 -170.5t-150.5 -74.5q-18 0 -25.5 5.5t-7.5 20.5q0 8 17.5 22t39 28.5t39 37.5t17.5 45q0 84 -74 105q-29 9 -47 30.5t-18 51.5q0 31 28.5 47t67.5 16zM311 8q-42 0 -84 -3t-68 -6t-30 -3 q-22 2 -45 12t-23 23q0 9 7 17t20.5 15t26 12.5t31 13t28.5 11.5q10 5 18.5 10.5t15 10.5t11.5 14t8 13.5t5 17t3.5 16.5t2 19.5t0.5 19v21.5v22v441q0 76 -17 96t-89 39q-19 5 -30 8q-13 4 -22.5 16.5t-9.5 26.5q0 17 22.5 27t48.5 10q41 0 96 -5t91 -5t92.5 5t91.5 5 q27 0 49.5 -10t22.5 -27q0 -14 -9 -26.5t-22 -16.5q-11 -3 -35 -9.5t-30.5 -8.5t-22 -7.5t-19 -9t-12.5 -11.5t-10.5 -15.5t-5 -20t-4 -27t-0.5 -34.5v-441q0 -82 21.5 -105.5t88.5 -23.5h176q38 0 74 42t55 89q7 17 22.5 31t29.5 14q20 0 32.5 -19t12.5 -56 q0 -13 -9.5 -48.5t-26.5 -80t-48 -78t-66 -33.5q-69 0 -233.5 6t-231.5 6z" />
<glyph unicode="&#x13d;" horiz-adv-x="1210" d="M20 0zM362 1360q42 59 123 152q40 45 61 45q13 0 16 -6t3 -21q0 -20 -68 -147.5t-112 -200.5q-21 -37 -41 -37t-41 37q-47 79 -115 203.5t-68 144.5q0 10 1 15t5 8.5t13 3.5q21 0 61 -45q84 -97 125 -152q19 -25 37 0zM444 285q0 -84 36 -138.5t106 -54.5h223 q33 0 60 6.5t48 21.5t35.5 29.5t29.5 41.5t24 44.5t23.5 52t23.5 52.5q7 17 24 28t31 11q15 0 26 -27t11 -69q0 -38 -27 -131.5t-41 -116.5q-13 -25 -22.5 -32t-34.5 -7q-20 0 -287 5t-393 5q-42 0 -96.5 -2.5t-92.5 -5t-42 -2.5q-22 2 -45 12t-23 23q0 14 16.5 24t50.5 21 t46 16q96 43 96 172v723q0 18 -2 32t-4 25.5t-8.5 21t-10.5 16t-15.5 13t-17.5 10t-22.5 9t-24.5 8t-30 8.5l-33 9q-33 11 -33 35q0 36 74 36q41 0 116 -5t111 -5t113 5t112 5q27 0 49.5 -9.5t22.5 -26.5q0 -25 -31 -35q-11 -3 -36 -10t-33.5 -9.5t-27 -8.5t-24 -10.5 t-17.5 -12.5t-16 -17t-9.5 -21.5t-7 -28t-1.5 -34.5v-702z" />
<glyph unicode="&#x13e;" horiz-adv-x="989" d="M30 0zM346 1278q42 59 123 152q40 45 61 45q13 0 16 -6t3 -21q0 -20 -68 -147.5t-112 -200.5q-21 -37 -41 -37t-41 37q-47 79 -115 203.5t-68 144.5q0 10 1 15t5 8.5t13 3.5q21 0 61 -45q84 -97 125 -152q19 -25 37 0zM311 8q-42 0 -84 -3t-68 -6t-30 -3q-22 2 -45 12 t-23 23q0 9 7 17t20.5 15t26 12.5t31 13t28.5 11.5q10 5 18.5 10.5t15 10.5t11.5 14t8 13.5t5 17t3.5 16.5t2 19.5t0.5 19v21.5v22v441q0 76 -17 96t-89 39q-19 5 -30 8q-13 4 -22.5 16.5t-9.5 26.5q0 17 22.5 27t48.5 10q41 0 96 -5t91 -5t92.5 5t91.5 5q27 0 49.5 -10 t22.5 -27q0 -14 -9 -26.5t-22 -16.5q-11 -3 -35 -9.5t-30.5 -8.5t-22 -7.5t-19 -9t-12.5 -11.5t-10.5 -15.5t-5 -20t-4 -27t-0.5 -34.5v-441q0 -82 21.5 -105.5t88.5 -23.5h176q38 0 74 42t55 89q7 17 22.5 31t29.5 14q20 0 32.5 -19t12.5 -56q0 -13 -9.5 -48.5t-26.5 -80 t-48 -78t-66 -33.5q-69 0 -233.5 6t-231.5 6z" />
<glyph unicode="&#x13f;" horiz-adv-x="1210" d="M20 0zM714 737q53 0 90 -37.5t37 -89.5t-37 -89.5t-90 -37.5t-90 37.5t-37 89.5t37 89.5t90 37.5zM444 285q0 -84 36 -138.5t106 -54.5h223q33 0 60 6.5t48 21.5t35.5 29.5t29.5 41.5t24 44.5t23.5 52t23.5 52.5q7 17 24 28t31 11q15 0 26 -27t11 -69q0 -38 -27 -131.5 t-41 -116.5q-13 -25 -22.5 -32t-34.5 -7q-20 0 -287 5t-393 5q-42 0 -96.5 -2.5t-92.5 -5t-42 -2.5q-22 2 -45 12t-23 23q0 14 16.5 24t50.5 21t46 16q96 43 96 172v723q0 18 -2 32t-4 25.5t-8.5 21t-10.5 16t-15.5 13t-17.5 10t-22.5 9t-24.5 8t-30 8.5l-33 9 q-33 11 -33 35q0 36 74 36q41 0 116 -5t111 -5t113 5t112 5q27 0 49.5 -9.5t22.5 -26.5q0 -25 -31 -35q-11 -3 -36 -10t-33.5 -9.5t-27 -8.5t-24 -10.5t-17.5 -12.5t-16 -17t-9.5 -21.5t-7 -28t-1.5 -34.5v-702z" />
<glyph unicode="&#x140;" horiz-adv-x="1005" d="M30 0zM797 733q53 0 90 -37.5t37 -89.5t-37 -89.5t-90 -37.5t-90 37.5t-37 89.5t37 89.5t90 37.5zM311 8q-42 0 -84 -3t-68 -6t-30 -3q-22 2 -45 12t-23 23q0 9 7 17t20.5 15t26 12.5t31 13t28.5 11.5q10 5 18.5 10.5t15 10.5t11.5 14t8 13.5t5 17t3.5 16.5t2 19.5 t0.5 19v21.5v22v441q0 76 -17 96t-89 39q-19 5 -30 8q-13 4 -22.5 16.5t-9.5 26.5q0 17 22.5 27t48.5 10q41 0 96 -5t91 -5t92.5 5t91.5 5q27 0 49.5 -10t22.5 -27q0 -14 -9 -26.5t-22 -16.5q-11 -3 -35 -9.5t-30.5 -8.5t-22 -7.5t-19 -9t-12.5 -11.5t-10.5 -15.5t-5 -20 t-4 -27t-0.5 -34.5v-441q0 -82 21.5 -105.5t88.5 -23.5h176q38 0 74 42t55 89q7 17 22.5 31t29.5 14q20 0 32.5 -19t12.5 -56q0 -13 -9.5 -48.5t-26.5 -80t-48 -78t-66 -33.5q-69 0 -233.5 6t-231.5 6z" />
<glyph unicode="&#x141;" horiz-adv-x="1210" d="M88 442q-20 -10 -47 -4t-27 23q0 50 109 100l127 60v366q0 18 -2 32t-4 25.5t-8.5 21t-10.5 16t-15.5 13t-17.5 10t-22.5 9t-24.5 8t-30 8.5l-33 9q-33 11 -33 35q0 36 74 36q41 0 116 -5t111 -5t113 5t112 5q27 0 49.5 -9.5t22.5 -26.5q0 -25 -31 -35q-11 -3 -36 -10 t-33.5 -9.5t-27 -8.5t-24 -10.5t-17.5 -12.5t-16 -17t-9.5 -21.5t-7 -28t-1.5 -34.5v-276l265 123q24 11 43 8.5t31 -11.5t12 -18q0 -39 -88 -82l-263 -123v-323q0 -84 36 -138.5t106 -54.5h223q33 0 60 6.5t48 21.5t35.5 29.5t29.5 41.5t24 44.5t23.5 52t23.5 52.5 q7 17 24 28t31 11q15 0 26 -27t11 -69q0 -38 -27 -131.5t-41 -116.5q-13 -25 -22.5 -32t-34.5 -7q-20 0 -287 5t-393 5q-42 0 -96.5 -2.5t-92.5 -5t-42 -2.5q-22 2 -45 12t-23 23q0 14 16.5 24t50.5 21t46 16q96 43 96 172v254z" />
<glyph unicode="&#x142;" horiz-adv-x="565" d="M88 606q-24 -14 -41.5 -16t-25 5t-7.5 19q0 29 22.5 52t86.5 59l76 43v393q0 27 -22 54t-58 40q-47 16 -47 48q0 16 17.5 28t41.5 15q35 6 85 18.5t85 21.5t43 9q17 0 21 -11.5t4 -44.5v-477l100 58q19 11 40 11t33.5 -7t12.5 -15q0 -44 -88 -92l-98 -55v-541 q0 -43 19.5 -81.5t57.5 -49.5q89 -26 89 -53q0 -41 -70 -41q-24 0 -94.5 6t-85.5 6q-20 0 -90 -6t-93 -6q-37 0 -54 12t-17 29q0 27 90 53q38 11 58 49.5t20 81.5v447z" />
<glyph unicode="&#x143;" horiz-adv-x="1402" d="M13 0zM635 1331q-13 0 -13 12q0 13 11 31q17 28 44.5 77.5t52 90.5t48.5 76q18 26 55 26q31 0 81 -14t50 -33q0 -16 -26 -39q-95 -81 -267 -209q-23 -18 -36 -18zM342 264q0 -129 96 -172q12 -5 46 -16t50.5 -21t16.5 -24t-22.5 -23.5t-43.5 -11.5q-4 0 -34.5 3t-77.5 6 t-90 3q-42 0 -86 -3t-71.5 -6t-31.5 -3q-22 2 -44.5 12t-22.5 23q0 14 16 24t50 21t46 16q97 43 97 172v535q0 144 -29 178l-76 84q-12 13 -29.5 32t-27 29.5t-19.5 22.5t-14 19.5t-4 13.5q0 22 31 22h198q45 0 109 -74l543 -608q67 -75 104 -113.5t51 -49.5t23 -11 q12 0 15 25t3 118v500q0 20 -1.5 35.5t-7 28t-9 21.5t-14.5 17t-17 12t-24 10.5t-26.5 9t-32.5 9t-36 9.5q-33 11 -33 35q0 17 22.5 26.5t49.5 9.5q41 0 95.5 -5t90.5 -5t93 5t92 5q27 0 49 -9.5t22 -26.5q0 -25 -30 -35q-12 -4 -36 -10t-33 -9t-26.5 -8.5t-24 -10 t-17.5 -12.5t-15 -17t-9.5 -21.5t-7 -28t-1.5 -35.5v-817q0 -53 3 -99.5t3 -68.5q0 -25 -41 -25q-21 0 -71 32.5t-103 90.5l-602 670q-44 49 -60 49q-9 0 -11.5 -27t-2.5 -112v-416z" />
<glyph unicode="&#x144;" horiz-adv-x="1103" d="M34 0zM564 1119q-40 -45 -62 -45q-12 0 -15 5t-3 21q0 21 59.5 145.5t95.5 186.5q9 15 25 26t31 11q43 0 76.5 -12t33.5 -35q0 -19 -87.5 -125.5t-153.5 -177.5zM850 705q0 108 -107 143q-13 5 -22.5 17.5t-9.5 25.5q0 37 55 37q14 0 65 -5t80 -5q27 0 69 5t60 5 q25 0 42.5 -9.5t17.5 -27.5q0 -14 -9.5 -27t-21.5 -16q-42 -12 -71 -49.5t-29 -89.5v-367q0 -37 7 -116t7 -99q0 -147 -29 -147q-31 0 -70.5 33t-117.5 130l-358 449q-6 7 -11 -11q-6 -24 -6 -79v-238q0 -82 10 -108q14 -37 56 -56q31 -14 44.5 -20.5t28.5 -20.5t15 -28 t-22.5 -23.5t-43.5 -11.5q-3 0 -23.5 3t-57 6t-79.5 3q-42 0 -81 -3t-61.5 -6t-26.5 -3q-22 2 -45 12t-23 23q0 9 7 17t20.5 15t26 12.5t31 13t28.5 11.5q11 5 20.5 10.5t16 14t11 14t7.5 18t5 17.5t2.5 21t0.5 20.5v24v24.5v381q0 102 -31 131q-53 49 -125 72 q-14 4 -23 16.5t-9 26.5q0 17 22.5 27t48.5 10q41 0 97 -5t90 -5q27 0 55.5 -25t71.5 -78l360 -446q4 -4 11 -14q19 -26 22 -16q2 4 2 17v349z" />
<glyph unicode="&#x145;" horiz-adv-x="1402" d="M13 0zM625 -846zM737 -123q71 0 124.5 -47.5t53.5 -116.5q0 -96 -64.5 -170.5t-150.5 -74.5q-18 0 -25.5 5.5t-7.5 20.5q0 8 17.5 22t39 28.5t39 37.5t17.5 45q0 84 -74 105q-29 9 -47 30.5t-18 51.5q0 31 28.5 47t67.5 16zM342 264q0 -129 96 -172q12 -5 46 -16 t50.5 -21t16.5 -24t-22.5 -23.5t-43.5 -11.5q-4 0 -34.5 3t-77.5 6t-90 3q-42 0 -86 -3t-71.5 -6t-31.5 -3q-22 2 -44.5 12t-22.5 23q0 14 16 24t50 21t46 16q97 43 97 172v535q0 144 -29 178l-76 84q-12 13 -29.5 32t-27 29.5t-19.5 22.5t-14 19.5t-4 13.5q0 22 31 22h198 q45 0 109 -74l543 -608q67 -75 104 -113.5t51 -49.5t23 -11q12 0 15 25t3 118v500q0 20 -1.5 35.5t-7 28t-9 21.5t-14.5 17t-17 12t-24 10.5t-26.5 9t-32.5 9t-36 9.5q-33 11 -33 35q0 17 22.5 26.5t49.5 9.5q41 0 95.5 -5t90.5 -5t93 5t92 5q27 0 49 -9.5t22 -26.5 q0 -25 -30 -35q-12 -4 -36 -10t-33 -9t-26.5 -8.5t-24 -10t-17.5 -12.5t-15 -17t-9.5 -21.5t-7 -28t-1.5 -35.5v-817q0 -53 3 -99.5t3 -68.5q0 -25 -41 -25q-21 0 -71 32.5t-103 90.5l-602 670q-44 49 -60 49q-9 0 -11.5 -27t-2.5 -112v-416z" />
<glyph unicode="&#x146;" horiz-adv-x="1103" d="M34 0zM453 -846zM565 -123q71 0 124.5 -47.5t53.5 -116.5q0 -96 -64.5 -170.5t-150.5 -74.5q-18 0 -25.5 5.5t-7.5 20.5q0 8 17.5 22t39 28.5t39 37.5t17.5 45q0 84 -74 105q-29 9 -47 30.5t-18 51.5q0 31 28.5 47t67.5 16zM850 705q0 108 -107 143q-13 5 -22.5 17.5 t-9.5 25.5q0 37 55 37q14 0 65 -5t80 -5q27 0 69 5t60 5q25 0 42.5 -9.5t17.5 -27.5q0 -14 -9.5 -27t-21.5 -16q-42 -12 -71 -49.5t-29 -89.5v-367q0 -37 7 -116t7 -99q0 -147 -29 -147q-31 0 -70.5 33t-117.5 130l-358 449q-6 7 -11 -11q-6 -24 -6 -79v-238q0 -82 10 -108 q14 -37 56 -56q31 -14 44.5 -20.5t28.5 -20.5t15 -28t-22.5 -23.5t-43.5 -11.5q-3 0 -23.5 3t-57 6t-79.5 3q-42 0 -81 -3t-61.5 -6t-26.5 -3q-22 2 -45 12t-23 23q0 9 7 17t20.5 15t26 12.5t31 13t28.5 11.5q11 5 20.5 10.5t16 14t11 14t7.5 18t5 17.5t2.5 21t0.5 20.5v24 v24.5v381q0 102 -31 131q-53 49 -125 72q-14 4 -23 16.5t-9 26.5q0 17 22.5 27t48.5 10q41 0 97 -5t90 -5q27 0 55.5 -25t71.5 -78l360 -446q4 -4 11 -14q19 -26 22 -16q2 4 2 17v349z" />
<glyph unicode="&#x147;" horiz-adv-x="1402" d="M13 0zM440 1611q20 0 113.5 -38t134.5 -62q13 -7 20.5 -7t20.5 7q42 24 135.5 63.5t112.5 39.5q13 0 20.5 -6.5t7.5 -16.5q0 -15 -12 -25l-201 -159q-46 -37 -60 -42q-10 -3 -24 -3q-20 0 -33 7t-41 30q-7 5 -10 8l-200 159q-15 12 -15 25q0 20 31 20zM342 264 q0 -129 96 -172q12 -5 46 -16t50.5 -21t16.5 -24t-22.5 -23.5t-43.5 -11.5q-4 0 -34.5 3t-77.5 6t-90 3q-42 0 -86 -3t-71.5 -6t-31.5 -3q-22 2 -44.5 12t-22.5 23q0 14 16 24t50 21t46 16q97 43 97 172v535q0 144 -29 178l-76 84q-12 13 -29.5 32t-27 29.5t-19.5 22.5 t-14 19.5t-4 13.5q0 22 31 22h198q45 0 109 -74l543 -608q67 -75 104 -113.5t51 -49.5t23 -11q12 0 15 25t3 118v500q0 20 -1.5 35.5t-7 28t-9 21.5t-14.5 17t-17 12t-24 10.5t-26.5 9t-32.5 9t-36 9.5q-33 11 -33 35q0 17 22.5 26.5t49.5 9.5q41 0 95.5 -5t90.5 -5t93 5 t92 5q27 0 49 -9.5t22 -26.5q0 -25 -30 -35q-12 -4 -36 -10t-33 -9t-26.5 -8.5t-24 -10t-17.5 -12.5t-15 -17t-9.5 -21.5t-7 -28t-1.5 -35.5v-817q0 -53 3 -99.5t3 -68.5q0 -25 -41 -25q-21 0 -71 32.5t-103 90.5l-602 670q-44 49 -60 49q-9 0 -11.5 -27t-2.5 -112v-416z " />
<glyph unicode="&#x148;" horiz-adv-x="1103" d="M34 0zM582 1278q42 59 123 152q40 45 61 45q13 0 16 -6t3 -21q0 -20 -68 -147.5t-112 -200.5q-21 -37 -41 -37t-41 37q-47 79 -115 203.5t-68 144.5q0 10 1 15t5 8.5t13 3.5q21 0 61 -45q84 -97 125 -152q19 -25 37 0zM850 705q0 108 -107 143q-13 5 -22.5 17.5 t-9.5 25.5q0 37 55 37q14 0 65 -5t80 -5q27 0 69 5t60 5q25 0 42.5 -9.5t17.5 -27.5q0 -14 -9.5 -27t-21.5 -16q-42 -12 -71 -49.5t-29 -89.5v-367q0 -37 7 -116t7 -99q0 -147 -29 -147q-31 0 -70.5 33t-117.5 130l-358 449q-6 7 -11 -11q-6 -24 -6 -79v-238q0 -82 10 -108 q14 -37 56 -56q31 -14 44.5 -20.5t28.5 -20.5t15 -28t-22.5 -23.5t-43.5 -11.5q-3 0 -23.5 3t-57 6t-79.5 3q-42 0 -81 -3t-61.5 -6t-26.5 -3q-22 2 -45 12t-23 23q0 9 7 17t20.5 15t26 12.5t31 13t28.5 11.5q11 5 20.5 10.5t16 14t11 14t7.5 18t5 17.5t2.5 21t0.5 20.5v24 v24.5v381q0 102 -31 131q-53 49 -125 72q-14 4 -23 16.5t-9 26.5q0 17 22.5 27t48.5 10q41 0 97 -5t90 -5q27 0 55.5 -25t71.5 -78l360 -446q4 -4 11 -14q19 -26 22 -16q2 4 2 17v349z" />
<glyph unicode="&#x149;" horiz-adv-x="1103" d="M34 0zM582 1278q42 59 123 152q40 45 61 45q13 0 16 -6t3 -21q0 -20 -68 -147.5t-112 -200.5q-21 -37 -41 -37t-41 37q-47 79 -115 203.5t-68 144.5q0 10 1 15t5 8.5t13 3.5q21 0 61 -45q84 -97 125 -152q19 -25 37 0zM850 705q0 108 -107 143q-13 5 -22.5 17.5 t-9.5 25.5q0 37 55 37q14 0 65 -5t80 -5q27 0 69 5t60 5q25 0 42.5 -9.5t17.5 -27.5q0 -14 -9.5 -27t-21.5 -16q-42 -12 -71 -49.5t-29 -89.5v-367q0 -37 7 -116t7 -99q0 -147 -29 -147q-31 0 -70.5 33t-117.5 130l-358 449q-6 7 -11 -11q-6 -24 -6 -79v-238q0 -82 10 -108 q14 -37 56 -56q31 -14 44.5 -20.5t28.5 -20.5t15 -28t-22.5 -23.5t-43.5 -11.5q-3 0 -23.5 3t-57 6t-79.5 3q-42 0 -81 -3t-61.5 -6t-26.5 -3q-22 2 -45 12t-23 23q0 9 7 17t20.5 15t26 12.5t31 13t28.5 11.5q11 5 20.5 10.5t16 14t11 14t7.5 18t5 17.5t2.5 21t0.5 20.5v24 v24.5v381q0 102 -31 131q-53 49 -125 72q-14 4 -23 16.5t-9 26.5q0 17 22.5 27t48.5 10q41 0 97 -5t90 -5q27 0 55.5 -25t71.5 -78l360 -446q4 -4 11 -14q19 -26 22 -16q2 4 2 17v349z" />
<glyph unicode="&#x14a;" horiz-adv-x="1402" d="M13 0zM342 264q0 -129 96 -172q12 -5 46 -16t50.5 -21t16.5 -24t-22.5 -23.5t-43.5 -11.5q-4 0 -34.5 3t-77.5 6t-90 3q-42 0 -86 -3t-71.5 -6t-31.5 -3q-22 2 -44.5 12t-22.5 23q0 14 16 24t50 21t46 16q97 43 97 172v535q0 144 -29 178l-76 84q-12 13 -29.5 32 t-27 29.5t-19.5 22.5t-14 19.5t-4 13.5q0 22 31 22h198q45 0 109 -74l543 -608q67 -75 104 -113.5t51 -49.5t23 -11q12 0 15 25t3 118v500q0 20 -1.5 35.5t-7 28t-9 21.5t-14.5 17t-17 12t-24 10.5t-26.5 9t-32.5 9t-36 9.5q-33 11 -33 35q0 17 22.5 26.5t49.5 9.5 q41 0 95.5 -5t90.5 -5t93 5t92 5q27 0 49 -9.5t22 -26.5q0 -25 -30 -35q-12 -4 -36 -10t-33 -9t-26.5 -8.5t-24 -10t-17.5 -12.5t-15 -17t-9.5 -21.5t-7 -28t-1.5 -35.5v-817q0 -53 3 -99.5t3 -68.5q0 -25 -41 -25q-21 0 -71 32.5t-103 90.5l-602 670q-44 49 -60 49 q-9 0 -11.5 -27t-2.5 -112v-416z" />
<glyph unicode="&#x14b;" horiz-adv-x="1103" d="M34 0zM850 705q0 108 -107 143q-13 5 -22.5 17.5t-9.5 25.5q0 37 55 37q14 0 65 -5t80 -5q27 0 69 5t60 5q25 0 42.5 -9.5t17.5 -27.5q0 -14 -9.5 -27t-21.5 -16q-42 -12 -71 -49.5t-29 -89.5v-367q0 -37 7 -116t7 -99q0 -147 -29 -147q-31 0 -70.5 33t-117.5 130 l-358 449q-6 7 -11 -11q-6 -24 -6 -79v-238q0 -82 10 -108q14 -37 56 -56q31 -14 44.5 -20.5t28.5 -20.5t15 -28t-22.5 -23.5t-43.5 -11.5q-3 0 -23.5 3t-57 6t-79.5 3q-42 0 -81 -3t-61.5 -6t-26.5 -3q-22 2 -45 12t-23 23q0 9 7 17t20.5 15t26 12.5t31 13t28.5 11.5 q11 5 20.5 10.5t16 14t11 14t7.5 18t5 17.5t2.5 21t0.5 20.5v24v24.5v381q0 102 -31 131q-53 49 -125 72q-14 4 -23 16.5t-9 26.5q0 17 22.5 27t48.5 10q41 0 97 -5t90 -5q27 0 55.5 -25t71.5 -78l360 -446q4 -4 11 -14q19 -26 22 -16q2 4 2 17v349z" />
<glyph unicode="&#x14c;" horiz-adv-x="1372" d="M34 0zM452 1519h539q9 0 18 -7.5t9 -16.5q0 -32 -20 -65.5t-44 -33.5h-522q-10 0 -19.5 8t-9.5 17q0 26 12 62t37 36zM766 1225q137 0 267 -84.5t211 -222t81 -283.5q0 -174 -78 -325t-219 -243t-311 -92q-182 0 -329.5 78.5t-232.5 223t-85 327.5q0 190 89.5 332 t246.5 215.5t360 73.5zM299 676q0 -109 30.5 -215.5t85 -194t141 -142t189.5 -54.5q88 0 157 44t110.5 117t62.5 160t21 182q0 102 -27 199.5t-76.5 178t-129 130t-175.5 49.5q-109 0 -199.5 -66.5t-140 -170.5t-49.5 -217z" />
<glyph unicode="&#x14d;" horiz-adv-x="1146" d="M39 0zM393 1291h416q9 0 17.5 -8t8.5 -17q0 -38 -16.5 -69t-46.5 -31h-399q-11 0 -20 7.5t-9 16.5q0 26 12 63.5t37 37.5zM592 963q128 0 238 -55.5t177.5 -157t67.5 -226.5q0 -112 -44 -212.5t-118 -173.5t-175.5 -115.5t-213.5 -42.5q-186 0 -315 133.5t-129 322.5 q0 142 67.5 263t185.5 192.5t259 71.5zM289 520q0 -81 18.5 -159t54 -144t95.5 -106.5t135 -40.5q67 0 120.5 36.5t85.5 95.5t49 129t17 142q0 99 -38 188.5t-112.5 148t-168.5 58.5q-79 0 -139 -53t-88.5 -131t-28.5 -164z" />
<glyph unicode="&#x14e;" horiz-adv-x="1372" d="M34 0zM492 1564q39 -47 89.5 -65.5t121.5 -18.5t121.5 18.5t89.5 65.5q1 2 5 7.5t6.5 8t6.5 8t7 8t7.5 5.5t8.5 4.5t8 1.5q9 0 14 -7.5t5.5 -16t0.5 -25.5q0 -71 -80 -142t-200 -71t-200.5 71t-80.5 142q0 20 6 34.5t15 14.5q4 0 8 -1.5t8.5 -4.5t7.5 -5.5t7 -8t6.5 -8 t6.5 -8t5 -7.5zM766 1225q137 0 267 -84.5t211 -222t81 -283.5q0 -174 -78 -325t-219 -243t-311 -92q-182 0 -329.5 78.5t-232.5 223t-85 327.5q0 190 89.5 332t246.5 215.5t360 73.5zM299 676q0 -109 30.5 -215.5t85 -194t141 -142t189.5 -54.5q88 0 157 44t110.5 117 t62.5 160t21 182q0 102 -27 199.5t-76.5 178t-129 130t-175.5 49.5q-109 0 -199.5 -66.5t-140 -170.5t-49.5 -217z" />
<glyph unicode="&#x14f;" horiz-adv-x="1146" d="M39 0zM426 1330q8 -41 48.5 -65t113.5 -24q137 0 154 89q9 43 31 43q14 0 22 -14.5t8 -35.5q0 -81 -68.5 -149t-170.5 -68q-99 0 -149 65t-50 152q0 21 8.5 35.5t22.5 14.5q21 0 30 -43zM592 963q128 0 238 -55.5t177.5 -157t67.5 -226.5q0 -112 -44 -212.5t-118 -173.5 t-175.5 -115.5t-213.5 -42.5q-186 0 -315 133.5t-129 322.5q0 142 67.5 263t185.5 192.5t259 71.5zM289 520q0 -81 18.5 -159t54 -144t95.5 -106.5t135 -40.5q67 0 120.5 36.5t85.5 95.5t49 129t17 142q0 99 -38 188.5t-112.5 148t-168.5 58.5q-79 0 -139 -53t-88.5 -131 t-28.5 -164z" />
<glyph unicode="&#x150;" horiz-adv-x="1372" d="M34 0zM768 1355q-12 0 -12 13t10 30q17 28 44.5 77.5t52 90.5t48.5 76q19 27 56 27q31 0 81 -14t50 -33q0 -15 -27 -39q-101 -87 -266 -209q-24 -19 -37 -19zM498 1355q-13 0 -13 13q0 12 11 30t61 107.5t82 136.5q19 27 55 27q31 0 82 -14t51 -33q0 -16 -26 -39 q-95 -81 -267 -209q-24 -19 -36 -19zM766 1225q137 0 267 -84.5t211 -222t81 -283.5q0 -174 -78 -325t-219 -243t-311 -92q-182 0 -329.5 78.5t-232.5 223t-85 327.5q0 190 89.5 332t246.5 215.5t360 73.5zM299 676q0 -109 30.5 -215.5t85 -194t141 -142t189.5 -54.5 q88 0 157 44t110.5 117t62.5 160t21 182q0 102 -27 199.5t-76.5 178t-129 130t-175.5 49.5q-109 0 -199.5 -66.5t-140 -170.5t-49.5 -217z" />
<glyph unicode="&#x151;" horiz-adv-x="1146" d="M39 0zM720 1141q-40 -45 -61 -45q-12 0 -15 5.5t-3 21.5q0 21 60 143.5t97 187.5q9 15 25 26t31 11q43 0 75.5 -12t32.5 -35q0 -19 -87.5 -124.5t-154.5 -178.5zM467 1141q-40 -45 -62 -45q-12 0 -15 5.5t-3 21.5q0 21 60 143.5t97 187.5q9 15 25 26t31 11q43 0 75.5 -12 t32.5 -35q0 -19 -87.5 -125.5t-153.5 -177.5zM592 963q128 0 238 -55.5t177.5 -157t67.5 -226.5q0 -112 -44 -212.5t-118 -173.5t-175.5 -115.5t-213.5 -42.5q-186 0 -315 133.5t-129 322.5q0 142 67.5 263t185.5 192.5t259 71.5zM289 520q0 -81 18.5 -159t54 -144 t95.5 -106.5t135 -40.5q67 0 120.5 36.5t85.5 95.5t49 129t17 142q0 99 -38 188.5t-112.5 148t-168.5 58.5q-79 0 -139 -53t-88.5 -131t-28.5 -164z" />
<glyph unicode="&#x152;" horiz-adv-x="1892" d="M942 1016q-107 114 -254 114q-109 0 -199.5 -66.5t-140 -170.5t-49.5 -217q0 -109 30.5 -215.5t85 -194t141 -142t189.5 -54.5q89 0 164 49q68 44 68 145v668q0 47 -35 84zM1395 666q31 0 54.5 8t35 17.5t35.5 31.5q7 6 20 21t23 22.5t20 7.5q23 0 23 -41q0 -6 -4.5 -54 t-4.5 -65q0 -16 1 -61t1 -55q0 -19 -6.5 -36.5t-19.5 -17.5q-8 0 -16 5.5t-16 16.5t-13 19.5t-12 21t-9 15.5q-9 14 -15.5 22t-21 14.5t-34.5 6.5h-215q-29 0 -39.5 -10t-10.5 -39v-229q0 -85 36 -140t106 -55h223q45 0 78.5 8t55.5 21t41.5 38.5t32 49t32.5 65.5q3 6 4 9 q7 17 24 28t31 11q29 0 29 -52q0 -38 -30.5 -122.5t-47.5 -112.5q-13 -25 -21.5 -32t-33.5 -7q-20 0 -279 5t-385 5q-41 0 -138 -15.5t-212 -15.5q-182 0 -329.5 78.5t-232.5 223t-85 327.5q0 190 89.5 332t246.5 215.5t360 73.5q31 0 92 -7.5t94 -7.5h484q49 0 140 5.5 t103 5.5q48 0 54 -29q5 -23 11.5 -85.5t6.5 -82.5q0 -53 -33 -53q-18 0 -38.5 23t-34.5 55q-13 29 -55 48t-111 19h-244q-39 0 -51.5 -10.5t-12.5 -32.5v-344q0 -63 29 -63h195z" />
<glyph unicode="&#x153;" horiz-adv-x="1454" d="M762 764q-96 104 -217 104q-79 0 -139 -53t-88.5 -131t-28.5 -164q0 -81 18.5 -159t54 -144t95.5 -106.5t135 -40.5q98 0 168 77q7 7 11 15.5t6.5 15t3.5 19t1 18.5v24v25v441q0 26 -3.5 35.5t-16.5 23.5zM872 920q34 0 189.5 4t200.5 4q25 0 29.5 -4t13.5 -35 q12 -36 12 -101q0 -22 -8.5 -42.5t-26.5 -20.5q-42 0 -68 70q-5 13 -23 24.5t-40 11.5h-143q-33 0 -41.5 -9.5t-8.5 -39.5v-176q0 -25 1.5 -40.5t9 -28.5t22.5 -13h103q31 0 52.5 13t31.5 28t22 28t25 13q14 0 19 -31t5 -106q0 -107 -9 -126q-6 -13 -19 -13q-12 0 -23.5 14 t-21 31t-32 31t-54.5 14h-95q-23 0 -28 -6q-9 -10 -9 -62v-139q0 -38 18 -63t54 -25h172q18 0 34 18t24.5 35.5t21.5 49.5q3 7 4 10q6 18 21 31.5t30 13.5q20 0 32.5 -19.5t12.5 -56.5q0 -53 -32.5 -132t-57.5 -79q-68 0 -211 6t-217 6q-41 0 -145.5 -14t-194.5 -14 q-186 0 -315 133.5t-129 322.5q0 142 67.5 263t185.5 192.5t259 71.5q76 0 163.5 -21.5t116.5 -21.5z" />
<glyph unicode="&#x154;" horiz-adv-x="1333" d="M20 0zM486 1331q-13 0 -13 12q0 13 11 31q17 28 44.5 77.5t52 90.5t48.5 76q18 26 55 26q31 0 81 -14t50 -33q0 -16 -26 -39q-95 -81 -267 -209q-23 -18 -36 -18zM459 647q23 -33 63 -33q45 0 91.5 13t60.5 28q63 54 94 111t31 133q0 101 -76.5 167.5t-181.5 66.5 q-43 0 -73 -20.5t-30 -49.5v-326q0 -59 21 -90zM858 504q190 -285 383 -424q36 -26 117 -33q16 -1 25.5 -11.5t9.5 -23.5q0 -27 -43.5 -44t-100.5 -17q-77 0 -147.5 25.5t-112.5 70.5q-185 194 -323 426q-41 68 -170 68q-29 0 -43.5 -31.5t-14.5 -71.5v-174q0 -129 97 -172 q12 -5 46 -16t50 -21t16 -24t-22 -23.5t-43 -11.5q-4 0 -46 3t-100.5 6t-101.5 3q-39 0 -91.5 -3t-91 -6t-42.5 -3q-22 2 -45 12t-23 23q0 14 16.5 24t50.5 21t46 16q96 43 96 172v715q0 19 -1.5 34.5t-7 28t-8.5 21t-15 17t-17.5 12.5t-23.5 10.5t-26 8.5t-33 9t-36 10 q-33 11 -33 35q0 34 72 37q270 21 446 21q81 0 156 -17t139.5 -51t103 -92.5t38.5 -132.5q0 -169 -162 -287q-7 -5 -16.5 -11t-12 -8.5t-4.5 -6.5t-2 -11q0 -28 51 -102z" />
</font>
</defs>
</svg>
